<?xml version="1.0" encoding="UTF-8"?>
<!-- Generated by Pixelmator Pro 3.7 -->
<svg width="512" height="512" viewBox="0 0 512 512" xmlns="http://www.w3.org/2000/svg">
    <g id="celerate-copy">
        <path id="Shape" fill="#d98143" fill-rule="evenodd" stroke="none" d="M 258.719757 270.39975 C 253.221527 261.402222 250.002884 257.013794 248.019974 254.842834 C 246.037064 252.671906 241.034195 248.388519 236.902542 245.324219 C 232.770874 242.259918 227.194092 237.837952 224.50972 235.49762 C 221.825378 233.157257 218.204071 229.42868 216.462463 227.211853 C 214.72081 224.995056 212.824905 222.054169 212.249313 220.676575 C 211.673721 219.298981 210.912231 214.292328 210.557098 209.550659 C 210.202011 204.80899 209.576904 199.900513 209.167953 198.642944 C 208.759018 197.385376 206.623459 193.571533 204.422272 190.167755 C 202.221039 186.763977 199.583466 182.058746 198.561005 179.7117 C 196.701935 175.444366 196.701935 175.444366 193.187302 175.807098 C 190.514389 176.082977 188.894531 175.825684 186.423859 174.732788 C 184.592255 173.922577 181.414413 171.496307 179.138809 169.170715 C 176.918854 166.901947 174.176254 163.210785 173.044128 160.968109 C 171.912033 158.725403 170.528137 155.133545 169.968811 152.986206 C 169.409515 150.838867 168.958649 146.918488 168.966904 144.274261 C 168.976852 141.082733 169.406357 138.531982 170.244537 136.686554 C 170.939011 135.157562 172.659027 132.957123 174.066833 131.796661 C 176.626541 129.686737 176.626541 129.686737 173.380325 117.503632 C 171.59491 110.802917 169.570496 102.093719 168.881577 98.149841 C 168.192642 94.205933 167.626602 87.906006 167.623734 84.149933 C 167.619431 78.605957 167.909668 76.613831 169.165802 73.564667 C 170.016876 71.49881 172.051956 67.811066 173.688278 65.369629 C 175.3246 62.928162 180.229462 57.382813 184.588043 53.0466 C 188.946594 48.710419 195.746246 42.818665 199.698425 39.953949 C 203.650574 37.089172 209.028564 33.532166 211.649551 32.0495 C 214.270477 30.566803 218.719757 28.519348 221.536819 27.499603 C 224.353867 26.479828 229.270905 25.044037 232.463547 24.309021 C 236.021957 23.489777 242.227142 22.81073 248.497986 22.554321 C 254.866318 22.293945 261.385864 22.445068 265.769989 22.954681 C 269.643311 23.404938 274.874054 24.409027 277.39386 25.185974 C 279.913696 25.962921 283.475891 27.357788 285.309906 28.285645 C 287.14389 29.21347 290.170868 31.400421 292.03653 33.145538 C 293.902191 34.890625 296.149536 37.741119 297.030701 39.47998 C 297.911804 41.218842 298.828094 43.419861 299.066864 44.371155 C 299.399536 45.696625 300.396606 46.443573 303.333618 47.567474 C 305.441528 48.374115 308.66391 50.174286 310.494385 51.56778 C 312.324829 52.961273 314.730652 55.470428 315.840668 57.143677 C 316.950653 58.816895 318.319824 61.736389 318.883301 63.631439 C 319.446777 65.526428 320.242157 70.825348 320.650848 75.406769 C 321.198914 81.549866 321.185272 86.465302 320.598969 94.130371 C 320.161682 99.846924 319.406982 107.392273 318.921814 110.897858 C 318.039642 117.271606 318.039642 117.271606 319.694 117.271606 C 320.617004 117.271606 322.242859 118.166107 323.371796 119.295044 C 324.48468 120.407898 326.012665 122.714355 326.767334 124.42041 C 327.59903 126.300598 328.287323 129.740051 328.514923 133.152985 C 328.769897 136.977112 328.548248 140.389282 327.824127 143.788239 C 327.23764 146.540771 325.99469 150.459869 325.06192 152.497284 C 324.12915 154.53476 321.780731 157.877869 319.843231 159.926514 C 317.90567 161.975159 315.328766 163.978607 314.11673 164.378632 C 312.058655 165.057831 311.858215 165.409637 311.084076 169.700714 C 310.628174 172.227875 309.632935 176.542603 308.872437 179.289063 C 308.111938 182.035522 306.636475 186.184265 305.593597 188.508514 C 304.550751 190.832764 302.19043 195.010712 300.348541 197.792877 C 298.506622 200.575043 296.590759 203.587891 296.091095 204.488068 C 295.5914 205.388245 294.760101 209.565521 294.243683 213.770935 C 293.727295 217.976288 292.804474 222.913116 292.193054 224.741608 C 291.581573 226.570099 289.840912 230.104248 288.32489 232.595215 C 286.808868 235.086182 281.534882 242.502258 276.604919 249.075378 C 271.674896 255.648499 265.633911 263.135498 263.180481 265.713135 L 258.719757 270.39975 Z"/>
        <path id="path1" fill="#5099b0" fill-rule="evenodd" stroke="none" d="M 117.595215 166.948029 C 116.82576 167.159149 115.9897 166.537537 115.120293 165.10791 C 114.398193 163.920502 113.2491 161.710907 112.566757 160.197723 C 111.711777 158.301727 111.529877 157.123505 111.981583 156.40741 C 112.342094 155.835907 114.167732 154.756927 116.038551 154.009674 C 117.909416 153.26239 120.056969 152.505615 120.810913 152.327881 C 121.921036 152.066193 122.557693 152.76059 124.158913 155.979462 C 125.246361 158.165558 126.26445 160.571045 126.421379 161.324982 C 126.649841 162.422974 125.915565 163.087219 122.731918 164.662537 C 120.545815 165.744202 118.234291 166.772705 117.595215 166.948029 Z M 354.432709 157.886292 C 352.617645 158.671906 351.966034 158.709229 351.450165 158.057007 C 351.087158 157.598022 350.112701 155.236938 349.284729 152.81015 C 347.880249 148.693481 347.856873 148.341064 348.935913 147.552063 C 349.57196 147.086975 351.959869 146.075775 354.242279 145.304962 C 356.524719 144.53418 358.641052 144.152374 358.945221 144.456543 C 359.249359 144.760681 360.127441 146.799744 360.896423 148.987762 C 361.665466 151.175781 362.137268 153.37616 361.944885 153.877533 C 361.752472 154.378906 360.506073 155.259796 359.17514 155.835052 C 357.844177 156.41037 355.710052 157.333405 354.432709 157.886292 Z M 133.346466 74.596558 C 132.525864 74.905457 131.072693 73.531189 127.883095 69.429749 C 125.493073 66.356537 123.076675 63.085846 122.51326 62.161591 C 121.529518 60.547729 121.596916 60.389771 124.212227 58.179382 C 125.71003 56.913452 128.058868 55.246399 129.431793 54.474731 C 131.928009 53.071777 131.928009 53.071777 133.87912 55.306335 C 134.952225 56.535309 137.504013 59.805542 139.549774 62.573486 C 143.269318 67.606079 143.269318 67.606079 141.25708 69.228638 C 140.15033 70.121063 138.16922 71.599213 136.854599 72.513428 C 135.539978 73.427704 133.961319 74.365082 133.346466 74.596558 Z M 369.04776 68.590485 C 368.484344 68.671722 366.486816 67.949371 364.608765 66.98526 C 362.730743 66.021179 360.658966 64.719513 360.004822 64.092682 C 358.874817 63.009827 358.881104 62.780243 360.13089 59.490967 C 360.854431 57.586884 362.153046 54.574432 363.016785 52.796692 C 364.246613 50.265289 364.885681 49.624359 365.963776 49.841095 C 366.720978 49.993256 369.261169 50.824829 371.608734 51.688934 C 375.373718 53.074799 375.87384 53.470734 375.850342 55.04657 C 375.835724 56.029175 374.529633 59.445282 372.947937 62.637939 C 371.366241 65.830566 369.611176 68.509247 369.04776 68.590485 Z"/>
        <path id="path2" fill="#fd9b0e" fill-rule="evenodd" stroke="none" d="M 343.901367 203.289795 C 343.271027 203.273346 341.218719 202.735535 339.340698 202.094666 C 336.091766 200.985992 335.929138 200.813446 335.989075 198.539215 C 336.023712 197.224609 336.715637 194.649139 337.526703 192.815948 C 338.93512 189.632538 339.102692 189.499329 341.258362 189.849152 C 342.499695 190.050598 344.684204 190.703766 346.112671 191.300629 C 348.394318 192.253967 348.656952 192.597168 348.273621 194.124512 C 348.0336 195.08078 347.209503 197.540894 346.442291 199.591431 C 345.500824 202.107727 344.674866 203.309967 343.901367 203.289795 Z M 147.943481 196.43811 C 147.666504 196.409302 145.595978 195.491699 143.342346 194.398987 C 141.088715 193.306274 139.151962 191.980652 139.038452 191.453186 C 138.924957 190.92572 139.94133 188.232391 141.297043 185.467987 C 142.652756 182.703583 144.205719 179.844788 144.748047 179.115143 C 145.711029 177.819489 145.847031 177.843109 150.563583 180.124817 C 154.515762 182.036774 155.342941 182.711945 155.117233 183.841705 C 154.965561 184.601013 154.129791 186.605164 153.26001 188.29541 C 152.390228 189.985657 150.951523 192.520996 150.062851 193.929504 C 149.174194 195.338043 148.220505 196.466888 147.943481 196.43811 Z M 392.749512 186.094727 C 391.242706 187.490875 391.242706 187.490875 387.486633 184.803009 C 385.420776 183.324677 383.451813 181.704559 383.111053 181.202728 C 382.683502 180.573059 383.318451 179.101318 385.159821 176.453705 C 386.62735 174.343567 388.226532 172.461121 388.713501 172.270447 C 389.200531 172.079773 391.198059 173.167969 393.152496 174.68866 C 395.106964 176.209381 396.99588 177.870178 397.350067 178.379333 C 397.798767 179.024353 397.427338 180.122894 396.125183 182.001862 C 395.097351 183.485077 393.578278 185.326874 392.749512 186.094727 Z M 136.513138 120.681793 C 135.761948 120.680145 133.045807 119.417877 130.477264 117.876831 C 127.156654 115.884521 125.893181 114.750977 126.104721 113.953796 C 126.268364 113.337158 127.407661 111.202637 128.63649 109.210449 C 130.086288 106.860077 131.261932 105.661133 131.984665 105.795837 C 132.597305 105.910004 135.198151 107.196411 137.764313 108.65448 C 141.263748 110.642853 142.352066 111.604095 142.117859 112.499664 C 141.946121 113.156403 140.922119 115.266754 139.8423 117.189301 C 138.500092 119.578979 137.446869 120.683899 136.513138 120.681793 Z M 388.01413 115.214722 C 387.536194 115.210236 385.30127 114.174408 383.047638 112.912872 C 380.073944 111.248291 378.963043 110.238617 378.997192 109.231659 C 379.023071 108.468506 380.40036 105.762665 382.057861 103.218658 C 383.715302 100.674652 385.561676 97.987793 386.160767 97.247955 C 387.229675 95.927917 387.342865 95.956848 392.199066 98.79303 C 395.779633 100.884186 397.037109 101.972473 396.746826 102.728821 C 396.526184 103.303833 394.666565 106.35022 392.61438 109.498596 C 390.562195 112.646942 388.492096 115.219177 388.01413 115.214722 Z M 347.558228 98.577148 C 347.072906 98.763397 346.042816 98.111053 345.269165 97.127533 C 344.495544 96.143982 343.326111 93.934662 342.670471 92.217957 C 341.519623 89.204498 341.523041 89.064056 342.768768 88.153198 C 343.478455 87.634247 345.385406 86.567596 347.0065 85.782837 C 348.627625 84.998108 350.397125 84.526093 350.938721 84.733917 C 351.480347 84.941742 352.85257 86.95224 353.988068 89.20166 C 355.875122 92.93988 355.959259 93.384857 354.966827 94.377289 C 354.369629 94.974487 352.656921 96.087555 351.160797 96.8508 C 349.664703 97.614075 348.043579 98.39093 347.558228 98.577148 Z M 335.67926 41.467377 C 335.337219 41.467377 333.161865 40.201599 330.845154 38.654572 C 328.086853 36.812653 326.70459 35.452789 326.840546 34.714874 C 326.954712 34.095062 328.351227 31.749847 329.943909 29.503326 C 331.536591 27.256805 333.569916 24.511719 334.462433 23.403198 C 336.085114 21.387634 336.085114 21.387634 340.612396 24.427582 C 343.605743 26.437531 345.082794 27.863678 344.971832 28.636841 C 344.879547 29.279999 342.89093 32.429962 340.552612 35.63678 C 338.214325 38.843597 336.021332 41.467377 335.67926 41.467377 Z M 167.425903 37.369843 C 166.742981 37.369843 164.809433 35.994995 163.129089 34.314667 C 161.448761 32.634338 160.073914 30.967896 160.073914 30.61142 C 160.073914 30.254944 161.778671 28.506927 163.862244 26.726837 C 167.650574 23.490387 167.650574 23.490387 170.757568 26.503296 C 172.466415 28.160431 174.030075 29.923187 174.232407 30.420563 C 174.434845 30.918243 173.266418 32.683899 171.633896 34.347351 C 170.002365 36.009705 168.10878 37.369843 167.425903 37.369843 Z"/>
        <path id="path3" fill="#d98143" fill-rule="evenodd" stroke="none" d="M 371.123779 389.712189 C 369.418579 389.687469 366.340576 389.215027 364.283875 388.662354 C 362.227142 388.10965 359.241241 386.893768 357.648529 385.960388 C 356.055847 385.026978 354.010284 383.271393 353.102875 382.059021 C 352.195496 380.84668 350.924438 378.810547 350.278259 377.534271 C 349.604889 376.204163 348.857544 372.415039 348.527191 368.656311 C 348.210266 365.049683 347.323395 355.952515 346.556427 348.440399 C 345.78949 340.928284 344.679718 331.254211 344.090393 326.942535 C 343.421875 322.051941 341.998932 316.073975 340.307526 311.050201 C 338.816284 306.621094 337.291718 300.62207 336.919556 297.719055 C 336.482178 294.30722 336.475311 291.354248 336.900085 289.367737 C 337.261505 287.67749 338.470459 284.143372 339.586639 281.51413 C 340.70282 278.884888 342.529724 274.582489 343.646423 271.953247 C 344.763123 269.323975 346.187408 264.253296 346.811523 260.685059 C 347.435638 257.11676 348.570435 252.276398 349.333374 249.92868 C 350.11618 247.519775 351.357422 245.213928 352.182495 244.636047 C 352.986572 244.072845 354.61026 243.61203 355.790649 243.61203 C 356.971069 243.61203 358.746552 244.248932 359.736206 245.027405 C 361.150421 246.139801 361.535645 247.034332 361.535645 249.205688 C 361.535645 250.72525 361.008484 254.529419 360.364227 257.659424 C 359.719971 260.789429 359.423431 263.580933 359.705231 263.862762 C 359.987091 264.144592 361.546173 263.007111 363.16983 261.335022 C 364.793488 259.662903 367.977783 255.682648 370.246094 252.48999 C 372.514343 249.297333 375.854401 244.226654 377.668396 241.221802 C 379.482361 238.216949 382.020294 234.439301 383.308258 232.827026 C 384.59613 231.214752 386.565796 229.243469 387.685181 228.446381 C 388.804596 227.649292 390.457855 226.856171 391.359161 226.683868 C 392.333282 226.49765 393.529968 226.852173 394.309875 227.557983 C 395.568298 228.696838 395.740448 228.64386 398.523315 226.261841 C 400.119141 224.895905 402.59021 223.429138 404.014709 223.00235 C 406.246735 222.333618 406.793701 222.397461 407.972382 223.464142 C 408.72464 224.144928 409.340118 225.422577 409.340118 226.303375 C 409.340118 227.6763 409.678955 227.904846 411.714569 227.904846 C 413.498688 227.904846 414.369415 228.332642 415.216522 229.625519 C 416.028137 230.864227 416.243256 232.23941 415.984497 234.535156 C 415.781525 236.33609 415.143677 238.076111 414.519165 238.532776 C 413.533875 239.253235 413.609436 239.469971 415.2117 240.519836 C 416.852112 241.594666 416.983215 242.007385 416.7034 245.216064 C 416.509521 247.439056 414.947327 252.127472 412.459259 257.953369 C 410.293762 263.024048 406.675049 270.860565 404.417664 275.367859 C 402.160309 279.875122 399.148438 285.560425 397.724609 288.001892 C 396.300781 290.443359 393.269531 294.874176 390.988525 297.848206 C 388.70755 300.822266 384.438293 305.892944 381.501373 309.116425 C 376.161469 314.977264 376.161469 314.977264 377.292053 317.367493 C 377.913849 318.682129 379.725983 322.830872 381.319 326.586914 C 382.912018 330.342987 385.87915 337.084778 387.91272 341.568695 C 389.946228 346.052612 392.684601 351.584259 393.998016 353.861267 C 395.311432 356.138306 397.052734 358.842285 397.867615 359.870148 C 398.891083 361.161072 399.439789 362.990326 399.641968 365.785339 C 399.879974 369.075653 399.611328 370.537842 398.204132 373.611572 C 397.25235 375.690491 395.091461 378.773651 393.40213 380.462982 C 391.712799 382.152313 388.463593 384.476959 386.181641 385.628876 C 383.899719 386.780792 380.275787 388.180878 378.128448 388.740204 C 375.98111 389.2995 372.82901 389.736908 371.123779 389.712189 Z M 143.000885 387.478577 C 139.33606 387.615875 135.877945 387.326782 133.620651 386.694366 C 131.654205 386.143433 128.581055 384.948975 126.791435 384.039978 C 125.001854 383.130981 122.144371 381.158386 120.441483 379.656433 C 118.738602 378.15448 116.44062 375.279785 115.334877 373.26828 C 113.714066 370.319672 113.332924 368.816956 113.367973 365.513428 C 113.404823 362.044922 113.940147 360.315125 116.855278 354.245239 C 118.749352 350.301361 122.218437 342.157532 124.5644 336.147827 C 126.910309 330.138123 130.033646 322.363708 131.505066 318.871338 C 134.180435 312.521545 134.180435 312.521545 128.967499 306.920227 C 126.100388 303.839447 122.034248 298.711395 119.931671 295.524536 C 117.829056 292.337646 114.031929 285.730408 111.493568 280.841736 C 108.955208 275.953064 105.279755 268.265472 103.325859 263.758179 C 101.372009 259.250916 98.851898 253.411926 97.725693 250.782684 C 96.59948 248.153442 95.527328 244.675232 95.343132 243.053314 C 95.078705 240.724365 95.32988 239.669464 96.537994 238.03537 C 97.652412 236.528076 97.863365 235.761963 97.314995 235.213623 C 96.900963 234.799622 96.562256 232.971802 96.562256 231.151825 C 96.562256 228.517303 96.916473 227.488525 98.299942 226.105072 C 99.263718 225.141296 100.480301 224.537292 101.031631 224.74884 C 101.667786 224.992981 102.025627 224.701019 102.025627 223.937836 C 102.025627 223.281982 102.504013 222.062378 103.08873 221.22757 C 103.741058 220.296295 104.862556 219.710754 105.991142 219.712311 C 107.002769 219.713745 108.906067 220.35968 110.22068 221.147797 C 111.535294 221.935913 113.458054 223.377106 114.493439 224.350494 C 115.951851 225.721527 116.559578 225.936615 117.190987 225.305237 C 117.639236 224.856995 118.724098 224.490234 119.601799 224.490234 C 120.631683 224.490234 122.597374 225.882874 125.144447 228.417023 C 127.463104 230.723938 132.165024 237.118134 136.542358 243.917267 C 140.640503 250.282654 145.585068 257.197266 147.530334 259.282959 C 149.475586 261.368713 151.200439 262.9216 151.363373 262.733826 C 151.526321 262.546021 151.246002 259.780151 150.740524 256.587524 C 150.235001 253.394867 149.950974 249.606415 150.109329 248.168732 C 150.267685 246.731049 150.931931 244.963989 151.585373 244.241943 C 152.413818 243.326508 153.681122 242.929108 155.77182 242.929108 C 157.984436 242.929108 159.179169 243.338104 160.330933 244.489838 C 161.219131 245.378082 162.371399 247.952942 163.004974 250.465393 C 163.617279 252.893555 164.597107 257.185059 165.182358 260.002136 C 165.767624 262.819153 167.342163 267.58255 168.681366 270.587402 C 170.020584 273.592255 172.010452 278.436462 173.103271 281.352264 C 174.196136 284.268066 175.274414 288.724121 175.499451 291.254639 C 175.766006 294.251892 175.549515 297.54599 174.878265 300.705719 C 174.3116 303.373352 172.711288 308.290375 171.322113 311.632446 C 169.932877 314.974518 168.37468 319.113953 167.859406 320.831116 C 167.344086 322.54834 166.156647 330.422363 165.220581 338.328979 C 164.284531 346.235626 163.199295 356.969574 162.809021 362.18219 C 162.418701 367.394836 161.651672 373.215881 161.104507 375.117889 C 160.557343 377.019897 159.216721 379.808777 158.12532 381.31543 C 156.794647 383.152344 154.932709 384.582916 152.473328 385.657928 C 149.799469 386.826721 147.23288 387.320007 143.000885 387.478577 Z"/>
        <path id="path4" fill="#b85c27" fill-rule="evenodd" stroke="none" d="M 371.123779 389.712189 C 369.418579 389.687469 366.340576 389.215027 364.283875 388.662354 C 362.227142 388.10965 359.204468 386.872223 357.566864 385.912506 C 355.929199 384.952789 353.616882 382.795715 352.428375 381.118988 C 351.239838 379.442291 350.164734 377.438873 350.039215 376.666962 C 349.87854 375.678619 351.002869 376.481567 353.840607 379.381653 C 357.121002 382.73407 358.623627 383.726807 361.922394 384.720795 C 364.151123 385.392365 368.000031 385.955139 370.475586 385.971436 C 372.95108 385.987732 376.472229 385.601013 378.300323 385.112091 C 380.128387 384.623138 383.173584 383.444855 385.067352 382.493652 C 386.961151 381.54248 389.815033 379.695313 391.409393 378.388885 C 393.003723 377.082458 395.1073 374.649902 396.084045 372.983246 C 397.240356 371.010193 397.991119 368.505737 398.236053 365.804932 C 398.473267 363.188934 398.823822 361.990784 399.185242 362.560822 C 399.500397 363.057922 399.76001 365.001221 399.762085 366.879272 C 399.764496 369.067749 399.170654 371.572327 398.108246 373.854156 C 397.196594 375.812317 395.073639 378.791443 393.390625 380.474487 C 391.707611 382.157471 388.463593 384.476959 386.181641 385.628876 C 383.899719 386.780792 380.275787 388.180878 378.128448 388.740204 C 375.98111 389.2995 372.82901 389.736908 371.123779 389.712189 Z M 141.727371 387.638458 C 138.859558 387.600006 135.551743 387.339172 134.376724 387.058777 C 133.201691 386.778412 130.282196 385.623505 127.888969 384.492371 C 125.495743 383.361206 122.097435 381.154602 120.337158 379.588806 C 118.482758 377.939331 116.256676 374.980957 115.044518 372.555176 C 113.72094 369.906494 112.9562 367.342224 112.962822 365.575073 C 112.968575 364.038757 113.236549 362.366272 113.558334 361.858459 C 113.945229 361.247925 114.300743 362.194214 114.607811 364.652039 C 114.931931 367.246277 115.798088 369.446777 117.475464 371.937561 C 119.086693 374.330078 121.382004 376.470703 124.439888 378.432678 C 126.948494 380.042267 130.99855 382.0289 133.439987 382.847443 C 135.881439 383.665985 139.625549 384.521545 141.760254 384.748718 C 143.971542 384.984009 147.0569 384.811951 148.930939 384.348816 C 150.740112 383.901703 153.87944 382.443665 155.907288 381.108704 C 158.766052 379.226715 159.492783 378.966675 159.142532 379.95105 C 158.894058 380.649292 157.62355 382.171265 156.319138 383.33313 C 155.01474 384.495056 152.37117 385.954803 150.444534 386.577026 C 148.312241 387.265686 144.901306 387.681 141.727371 387.638458 Z M 374.488373 318.050415 C 374.250488 318.050415 373.853638 317.848206 373.606506 317.601074 C 373.359375 317.353882 373.49942 316.739258 373.917755 316.235229 C 374.336121 315.73114 375.101715 315.318726 375.619141 315.318726 C 376.136566 315.318726 376.559906 315.564575 376.559906 315.865051 C 376.559906 316.165527 376.191132 316.780212 375.740387 317.230896 C 375.289673 317.681641 374.726257 318.050415 374.488373 318.050415 Z M 136.938217 317.367493 C 136.232986 317.367493 135.261337 316.891968 134.778992 316.310791 C 134.073563 315.460785 133.777451 315.427399 133.265137 316.140076 C 132.814682 316.766663 132.749817 316.652588 133.043594 315.750366 C 133.272018 315.048767 133.629898 314.19809 133.838898 313.859985 C 134.047852 313.521851 135.119156 313.886353 136.21962 314.669952 C 137.320068 315.453552 138.220444 316.381042 138.220444 316.731079 C 138.220444 317.081116 137.643433 317.367493 136.938217 317.367493 Z M 159.620743 306.440735 C 159.27475 306.440735 157.797729 303.789825 156.338486 300.549805 C 154.879272 297.309784 152.344955 293.013397 150.70668 291.002258 C 148.728989 288.574463 145.167694 285.677307 140.109192 282.381104 C 133.238586 277.904144 132.682632 277.394287 134.447906 277.18924 C 135.710846 277.042542 138.241867 277.890625 141.581192 279.579468 C 144.890137 281.25293 148.234879 283.675476 150.854477 286.295959 C 153.297134 288.739471 155.840881 292.187073 157.152908 294.832489 C 158.363403 297.273193 159.555435 300.883484 159.801849 302.855408 C 160.058624 304.910156 159.981293 306.440735 159.620743 306.440735 Z M 355.546783 301.101257 C 353.071716 306.245789 352.769257 306.613556 352.34317 304.99588 C 352.084412 304.013428 352.207031 301.968018 352.615631 300.450531 C 353.024261 298.933044 354.604126 295.826263 356.126465 293.546509 C 357.648804 291.266785 360.641083 287.867493 362.77597 285.992493 C 364.910797 284.117554 368.891693 281.477936 371.622345 280.126709 C 374.61087 278.647888 377.329315 277.755463 378.451569 277.884766 C 380.283661 278.095825 380.262726 278.135895 377.242828 280.198853 C 375.552612 281.353516 372.277496 283.43277 369.964905 284.819458 C 367.652283 286.206177 364.077087 289.15863 362.02002 291.380493 C 359.734955 293.848633 357.216614 297.630432 355.546783 301.101257 Z M 391.547394 272.976379 C 391.339355 272.977081 390.115479 271.890503 388.827667 270.561829 C 387.539825 269.233093 384.483215 267.20929 382.035217 266.064453 C 379.587189 264.919617 376.875275 263.529602 376.008636 262.975586 C 374.433075 261.968231 374.433075 261.968231 377.307129 256.716919 C 378.887848 253.828705 381.628174 249.314423 383.396667 246.68515 C 385.165131 244.055908 387.913208 239.75351 389.503479 237.124268 C 391.093719 234.495026 393.132416 231.584503 394.033875 230.656464 C 395.672852 228.969116 395.672852 228.969116 395.012146 231.272705 C 394.648804 232.539703 393.321045 235.29657 392.061646 237.399048 C 390.802216 239.501556 388.378937 243.385468 386.676544 246.029968 C 384.974213 248.674469 382.302917 253.167603 380.740326 256.014709 C 377.899261 261.191284 377.899261 261.191284 379.790527 261.910034 C 380.83075 262.305359 382.137634 262.753113 382.694733 262.905121 C 383.385681 263.093628 384.835846 261.139587 387.257019 256.757538 C 389.209106 253.224396 393.115662 246.900543 395.938171 242.704559 C 398.760681 238.508575 402.572998 233.600189 404.410034 231.796997 C 406.247009 229.993835 408.491913 228.35379 409.398712 228.152435 C 410.326843 227.94635 410.748932 228.036102 410.364502 228.357758 C 409.988892 228.672089 409.374237 229.441864 408.998657 230.06842 C 408.623047 230.694977 406.743256 233.307159 404.821381 235.87323 C 402.899506 238.439331 399.625214 243.151062 397.545135 246.343689 C 395.465118 249.536346 392.011353 255.062042 389.870239 258.622986 C 385.977203 265.097473 385.977203 265.097473 388.256714 267.000488 C 390.536224 268.903503 390.536224 268.903503 391.720581 267.355225 C 392.372009 266.503662 395.450439 261.225159 398.561584 255.625153 C 401.672699 250.025177 405.31958 244.217316 406.66571 242.718781 C 408.288177 240.912567 409.859375 239.884644 411.326935 239.66925 C 412.569641 239.486847 413.892517 239.702637 414.342804 240.161133 C 414.783966 240.610321 414.837616 240.879639 414.462006 240.759552 C 414.086426 240.639435 412.620178 241.225586 411.203644 242.062103 C 409.78714 242.898621 408.041992 244.588348 407.32547 245.817017 C 406.609009 247.045715 404.981293 250.048553 403.708313 252.48999 C 402.435364 254.931427 400.08432 259.233826 398.483826 262.050903 C 396.883301 264.86792 394.75296 268.478333 393.749725 270.073975 C 392.74646 271.669617 391.755432 272.975708 391.547394 272.976379 Z M 122.451279 271.490906 C 122.13295 271.612244 120.864265 270.295105 119.631935 268.563965 C 118.399597 266.832764 116.226044 263.506714 114.801758 261.172668 C 113.377434 258.838654 110.533333 253.647217 108.481491 249.636169 C 106.42968 245.625092 103.94342 241.383728 102.956512 240.210846 C 101.969643 239.037994 100.303482 237.906647 99.254005 237.696777 C 97.990494 237.444061 97.468887 236.994476 97.710014 236.366058 C 97.910339 235.844055 98.958443 235.416962 100.039131 235.416962 C 101.241501 235.416962 102.78199 236.145813 104.00853 237.294983 C 105.110985 238.327911 107.317802 241.631561 108.912567 244.636383 C 110.507324 247.641235 113.651833 253.326569 115.900375 257.270447 C 118.148926 261.214294 120.671158 265.163239 121.505341 266.045837 C 123.022072 267.650574 123.022072 267.650574 125.205177 265.699951 C 127.388237 263.74939 127.388237 263.74939 124.057503 258.631897 C 122.225563 255.817261 118.011162 249.273224 114.692177 244.089539 C 111.373146 238.905914 107.395874 233.09082 105.853798 231.167175 C 104.311729 229.2435 102.829422 227.10788 102.559822 226.421356 C 102.274429 225.694672 102.368584 225.173157 102.785202 225.173157 C 103.178719 225.173157 105.286087 226.958496 107.468193 229.140594 C 109.650299 231.322723 113.945068 236.906036 117.012169 241.548035 C 120.079269 246.190033 124.155701 252.674591 126.070961 255.95816 C 129.553207 261.928284 129.553207 261.928284 131.879456 260.81897 C 133.389023 260.099121 134.106995 259.332092 133.924515 258.634277 C 133.769821 258.042786 132.310318 255.419586 130.681168 252.804932 C 129.052032 250.190247 126.371613 245.958527 124.724709 243.401062 C 123.077843 240.843597 120.499962 236.470062 118.996155 233.682068 C 117.492348 230.894104 116.366882 228.06955 116.49514 227.405273 C 116.650284 226.601776 117.766403 227.911896 119.82972 231.319427 C 121.535477 234.136475 124.659721 239.207153 126.772514 242.587646 C 128.885254 245.968109 132.448547 251.410614 134.690872 254.682098 C 137.511719 258.797638 138.525726 260.802582 137.981934 261.189575 C 137.549698 261.497192 135.682663 262.453522 133.832977 263.314758 C 131.983292 264.176025 128.795929 266.318329 126.749962 268.0755 C 124.704033 269.832642 122.7696 271.369568 122.451279 271.490906 Z M 351.61026 271.611786 C 350.996918 271.611786 350.597504 271.320251 350.722717 270.963928 C 350.8479 270.607605 352.717438 269.080566 354.877167 267.570557 C 357.036865 266.060547 358.803955 265.140961 358.803955 265.527039 C 358.803955 265.913147 359.18808 266.009705 359.657593 265.741638 C 360.127106 265.473572 359.589325 266.25116 358.462494 267.469604 C 357.335663 268.688049 355.583862 270.1185 354.569611 270.648376 C 353.555328 271.178223 352.223663 271.611786 351.61026 271.611786 Z M 157.000778 268.157532 C 156.625168 268.166992 155.112488 267.488312 153.639267 266.649353 C 152.166016 265.810425 150.851395 264.791107 150.717896 264.384186 C 150.584335 263.977295 150.952637 263.644379 151.536316 263.644379 C 152.119995 263.644379 153.741928 264.655945 155.140625 265.892334 C 156.539307 267.128723 157.376373 268.148071 157.000778 268.157532 Z"/>
        <path id="path5" fill="#699ca0" fill-rule="evenodd" stroke="none" d="M 153.927628 512 C 153.947464 478.391754 154.261078 459.876038 154.63739 449.171265 C 155.013702 438.466461 155.238403 428.171448 155.13678 426.293396 C 154.952011 422.878784 154.952011 422.878784 152.597382 426.976318 C 151.302322 429.22998 148.536499 432.785675 146.451096 434.87793 C 144.14061 437.195953 140.797943 439.596985 137.894272 441.0242 C 133.337708 443.263885 132.798126 443.366425 125.568649 443.366425 C 118.208115 443.366425 117.871025 443.298676 112.820518 440.803711 C 109.050491 438.941315 106.558357 437.080414 103.700752 433.993896 C 101.256126 431.353363 98.766075 427.657318 97.11834 424.223328 C 95.465637 420.778961 94.054741 416.449158 93.370064 412.720306 C 92.550598 408.257568 92.37336 404.543243 92.67131 398.078186 C 92.90773 392.948608 93.896263 385.098511 95.095123 378.830383 C 96.208664 373.008484 98.707558 360.869568 100.648193 351.855011 C 102.588875 342.840454 105.993355 327.98822 108.213722 318.850098 C 110.43409 309.711914 113.106583 299.446747 114.152603 296.038574 L 116.054474 289.841858 L 119.779076 295.580353 C 121.827629 298.736511 125.918274 303.836395 128.869415 306.913391 C 134.235214 312.507935 134.235214 312.507935 131.87529 317.840149 C 130.577347 320.772827 128.201416 326.552795 126.595406 330.684448 C 124.989433 334.816101 122.285255 341.577026 120.586121 345.70874 C 118.886948 349.840393 117.023293 353.958435 116.444664 354.859985 C 115.866028 355.761475 115.335457 356.837097 115.26564 357.250183 C 115.195862 357.6633 114.648705 358.923248 114.049774 360.050049 C 113.450798 361.17688 112.958862 363.651886 112.956573 365.550049 C 112.953697 367.892944 113.515236 370.130859 114.705017 372.518433 C 115.673416 374.461731 118.239792 377.685486 120.440231 379.722717 C 123.052124 382.140839 126.033279 384.072021 129.102127 385.33374 C 132.861481 386.879395 135.124084 387.314392 140.610672 387.546265 C 146.383774 387.790253 148.03894 387.609375 151.313614 386.376587 C 153.783234 385.446838 156.05896 383.953461 157.592072 382.25647 C 158.92128 380.785217 160.499863 377.972931 161.121552 375.968689 C 161.740158 373.974365 162.517868 368.193909 162.849777 363.123199 C 163.181702 358.052521 163.909393 350.216003 164.466797 345.70874 C 165.024261 341.201416 165.827805 334.461212 166.252472 330.730469 C 166.67717 326.999695 167.646912 321.929016 168.407486 319.46225 C 169.16806 316.995514 170.543732 313.488068 171.464569 311.667908 C 172.385376 309.847778 173.733292 306.033997 174.459946 303.192871 C 175.186584 300.351776 175.781097 296.143402 175.781097 293.840942 C 175.781097 291.538513 175.336395 287.947327 174.792862 285.860535 C 174.249329 283.773773 172.101196 278.160767 170.019241 273.387207 C 167.37793 267.331146 165.799973 262.500366 164.798294 257.40387 C 164.008759 253.386627 162.803802 248.816559 162.120682 247.248169 C 160.878586 244.396576 160.878586 244.396576 169.183517 240.688721 C 173.751175 238.649384 181.691055 235.323853 186.827591 233.298584 C 196.166779 229.616333 196.166779 229.616333 198.721191 222.785034 C 200.126129 219.027802 202.269135 213.956177 203.483505 211.51474 C 204.69783 209.073273 206.489578 206.331848 207.465118 205.422638 C 208.440689 204.513458 209.375153 203.905884 209.541763 204.07251 C 209.708405 204.239105 210.167496 207.520813 210.561981 211.365204 C 210.956497 215.209595 211.733002 219.440887 212.287582 220.768127 C 212.842117 222.095367 214.72081 224.995056 216.462463 227.211853 C 218.204071 229.42868 221.825378 233.154083 224.50972 235.490509 C 227.194092 237.826935 232.836197 242.316071 237.047668 245.4664 C 241.259201 248.616699 246.32988 252.992126 248.315872 255.189545 C 250.30191 257.386963 253.309738 261.511169 254.999939 264.354431 C 256.690155 267.197662 258.422028 269.532776 258.848419 269.543488 C 259.274872 269.55423 261.426086 267.630127 263.628876 265.2677 C 265.831696 262.905273 270.88446 256.68219 274.857178 251.438568 C 278.829956 246.194946 283.644501 239.599854 285.556213 236.782806 C 287.467865 233.965759 289.840088 230.051514 290.827759 228.084473 C 291.828552 226.091309 293.0578 221.858765 293.604523 218.52359 C 294.144073 215.232117 294.595612 211.309845 294.60791 209.807434 C 294.620209 208.304993 294.901886 206.64682 295.233795 206.122559 C 295.565765 205.598328 296.296844 205.345734 296.858429 205.561218 C 297.420013 205.776733 298.648468 206.973938 299.588318 208.22168 C 300.528168 209.469452 302.446503 213.256165 303.851227 216.636627 C 305.255951 220.01709 306.88089 224.236053 307.462189 226.012115 C 308.519104 229.241302 308.519104 229.241302 317.100708 232.086609 C 321.820557 233.65152 330.138367 236.622925 335.584625 238.689697 C 341.030914 240.75647 346.766388 242.994446 348.330078 243.662964 C 351.173187 244.878479 351.173187 244.878479 349.581146 248.85498 C 348.705536 251.042023 347.392365 256.36554 346.663055 260.685059 C 345.602875 266.964233 344.637451 270.065918 341.847412 276.157166 C 339.928131 280.347382 337.843567 285.625427 337.215027 287.886169 C 336.248383 291.362976 336.18573 292.875977 336.808624 297.701355 C 337.213654 300.838989 338.642059 306.470642 339.98291 310.216064 C 341.32373 313.961548 342.892975 319.79187 343.470123 323.172302 C 344.047241 326.552795 345.265289 336.847809 346.176819 346.050171 C 347.088379 355.252563 348.021301 364.120667 348.249939 365.75708 C 348.518829 367.681335 348.422455 368.582092 347.977173 368.306885 C 347.59848 368.072876 347.1073 368.174805 346.885681 368.533447 C 346.664001 368.89212 346.903473 369.434937 347.417786 369.739716 C 347.932159 370.044495 348.537994 371.471436 348.76413 372.910706 C 348.990295 374.349976 349.801849 376.821808 350.567627 378.403687 C 351.333374 379.985535 352.962036 382.249268 354.186829 383.434204 C 355.411591 384.619141 358.225037 386.38858 360.438843 387.366302 C 362.652679 388.344025 366.431366 389.327667 368.835938 389.552216 C 371.405426 389.792175 374.813843 389.608795 377.103363 389.107422 C 379.245911 388.638214 382.864044 387.374023 385.143677 386.298096 C 387.423309 385.222137 390.660492 383.134155 392.337372 381.658081 C 394.014282 380.182037 396.273438 377.344299 397.357819 375.35199 C 398.442169 373.35968 399.546844 370.540344 399.812592 369.086823 C 400.0784 367.633301 400.009888 365.171143 399.660339 363.615417 C 399.310791 362.059631 398.711273 360.408997 398.328094 359.947327 C 397.944916 359.485626 397.637512 358.950867 397.644928 358.758972 C 397.652344 358.567078 396.81131 357.503235 395.77597 356.394897 C 394.740631 355.28656 392.631775 351.660492 391.0896 348.336914 C 389.547394 345.013367 386.983795 339.374634 385.392609 335.806366 C 383.801392 332.238098 381.665558 327.321075 380.64624 324.879639 C 379.626953 322.438171 378.199127 319.211395 377.473267 317.708954 C 376.153595 314.977264 376.153595 314.977264 381.900208 308.830994 C 385.060852 305.4505 389.224213 300.47226 391.1521 297.768188 C 393.079956 295.064117 394.87793 292.836121 395.147522 292.817017 C 395.417175 292.797943 396.415131 295.330811 397.365204 298.445618 C 398.315247 301.560425 401.417023 314.237183 404.258057 326.616119 C 407.09903 338.995087 410.92865 356.191559 412.768402 364.830505 C 414.608063 373.469452 416.621277 384.37912 417.242126 389.074219 C 418.034485 395.065857 418.249725 399.952026 417.964233 405.464294 C 417.740479 409.783783 417.086823 415.161804 416.511658 417.415436 C 415.936493 419.669067 414.384979 423.727051 413.063904 426.433167 C 411.742828 429.139282 409.126312 433.0336 407.249512 435.087158 C 405.37262 437.140747 402.490845 439.609863 400.84552 440.574097 C 399.200165 441.53833 396.071381 442.791534 393.8927 443.359009 C 391.713959 443.926514 388.184387 444.390808 386.049255 444.390808 C 383.914093 444.390808 380.166565 443.772888 377.721405 443.01767 C 375.166412 442.228516 371.578003 440.387177 369.283722 438.687988 C 367.088135 437.06189 363.755127 433.803345 361.877106 431.446716 C 359.999054 429.090088 357.66156 425.791962 356.682648 424.117493 C 354.902863 421.073029 354.902863 421.073029 355.243744 466.536499 L 355.584625 512 L 254.756104 512 L 153.927628 512 Z M 360.206146 264.0802 C 359.082275 264.681671 359.072968 264.424713 360.03833 259.457184 C 360.600525 256.56424 361.123383 254.113281 361.200226 254.01059 C 361.277069 253.907898 362.6185 254.55011 364.181152 255.437714 C 367.0224 257.051575 367.0224 257.051575 364.209259 260.247437 C 362.662048 262.005188 360.860626 263.729919 360.206146 264.0802 Z M 151.559662 263.235779 C 151.496048 263.324036 150.496719 262.4021 149.338913 261.187012 C 148.181107 259.971924 146.405075 257.9758 145.392197 256.751221 C 143.550598 254.524719 143.550598 254.524719 145.898972 253.543518 C 147.190582 253.003845 148.655624 252.469208 149.154648 252.355408 C 149.802429 252.207703 150.292648 253.711212 150.868607 257.611877 C 151.312271 260.61676 151.62323 263.147522 151.559662 263.235779 Z"/>
        <path id="path6" fill="#396b7a" fill-rule="evenodd" stroke="none" d="M 252.157394 512 C 250.953278 512 250.902466 510.333374 250.903885 470.854004 C 250.904678 448.223694 251.379807 413.266693 251.959732 393.171722 C 252.820969 363.327576 252.881363 350.256042 252.289474 321.806458 C 251.766403 296.664063 251.772705 285.932861 252.312119 283.221436 C 252.723053 281.155609 253.835632 277.928802 254.784454 276.050781 C 255.733261 274.172729 257.303009 271.791077 258.272736 270.758118 C 259.242493 269.72522 260.271576 268.880096 260.559601 268.880096 C 260.847626 268.880096 259.791351 271.569092 258.212341 274.855652 C 255.3414 280.831238 255.3414 280.831238 255.606003 319.074799 C 255.751511 340.108765 255.516632 372.684082 255.084015 391.464417 C 254.651398 410.244751 254.098282 445.048126 253.854889 468.805237 C 253.431702 510.111969 253.357452 512 252.157394 512 Z M 264.500977 485.366089 C 263.884003 485.366089 262.569489 484.729156 261.579803 483.950684 C 260.290802 482.936737 259.780396 481.901337 259.780396 480.300446 C 259.780396 479.002686 260.304047 477.591736 261.029266 476.935425 C 261.716156 476.313782 263.235321 475.805176 264.405151 475.805176 C 265.828979 475.805176 266.883636 476.306976 267.595276 477.322968 C 268.179993 478.157776 268.658356 479.830566 268.658356 481.040314 C 268.658356 482.539093 268.174805 483.578552 267.140564 484.302979 C 266.305786 484.887695 265.117981 485.366089 264.500977 485.366089 Z M 156.951126 432.320282 C 155.396255 435.057678 155.396255 435.057678 155.174133 428.795959 C 155.051956 425.35199 155.18251 422.534912 155.464203 422.535767 C 155.74588 422.536621 155.976395 421.654022 155.976395 420.574432 C 155.976395 419.494843 156.44928 417.271301 157.027191 415.633209 C 157.605164 413.995148 157.989304 412.118011 157.880844 411.461823 C 157.709488 410.424896 157.256332 410.547699 154.418686 412.400085 C 152.62294 413.572327 149.396103 414.945038 147.248016 415.450562 C 145.099884 415.956085 140.373413 416.374512 136.74472 416.380371 C 132.24292 416.387665 128.871338 415.993988 126.13102 415.141113 C 123.922241 414.453674 120.130241 412.849609 117.704422 411.576538 C 115.119171 410.219818 111.290657 407.274902 108.45356 404.460693 C 104.940086 400.975555 102.895744 398.201599 100.995453 394.340851 C 99.277061 390.849609 98.272598 387.756012 98.071983 385.336914 C 97.903923 383.309998 98.105125 379.710754 98.519112 377.338562 C 98.933136 374.966431 100.35321 370.829895 101.674911 368.146271 C 102.996567 365.462646 105.429848 361.763367 107.08213 359.925598 C 108.734459 358.08783 111.700768 355.705505 113.673965 354.631531 C 117.167435 352.730164 117.251297 352.718323 116.869156 354.179626 C 116.653328 355.005005 116.122253 356.107452 115.689003 356.629517 C 115.25576 357.15155 114.505898 357.426941 114.02272 357.241516 C 113.539497 357.056091 111.779716 358.421936 110.112099 360.276733 C 108.444473 362.131531 106.059044 365.564697 104.811165 367.906006 C 103.563278 370.247284 102.122368 373.739899 101.609138 375.667358 C 101.095901 377.594849 100.672333 381.302856 100.66787 383.90741 C 100.662155 387.255127 101.058723 389.467102 102.02108 391.455017 C 102.769775 393.001678 104.785652 395.911072 106.500748 397.920349 C 108.215851 399.929657 111.060532 402.716187 112.822311 404.11264 C 114.584053 405.509094 117.56208 407.425842 119.440109 408.37207 C 121.318146 409.318268 124.538803 410.592102 126.597115 411.20282 C 128.655426 411.813507 132.372894 412.502167 134.858185 412.733154 C 137.37384 412.966949 141.430969 412.79541 144.010773 412.346161 C 146.559387 411.902344 150.389557 410.658386 152.522186 409.581818 C 154.654861 408.505249 157.516418 406.388428 158.881226 404.877747 C 160.315964 403.289673 161.809402 400.62677 162.421753 398.564789 C 163.004257 396.603333 163.826019 393.281372 164.247894 391.182709 C 164.6698 389.084015 165.055649 385.062042 165.105423 382.244995 C 165.155136 379.427948 164.836853 375.586975 164.398071 373.709473 C 163.95932 371.832031 163.73616 370.160065 163.90213 369.99408 C 164.068161 369.828064 164.617233 370.134949 165.122375 370.675995 C 165.627533 371.217041 166.388474 372.704346 166.813431 373.98111 C 167.238373 375.257874 167.586044 379.456421 167.586044 383.311218 C 167.586044 387.165985 167.139343 392.654633 166.593338 395.50824 C 166.047394 398.361816 165.265274 403.229065 164.855362 406.32431 C 164.445465 409.419586 163.654831 413.795959 163.098373 416.049591 C 162.541916 418.303223 161.280991 422.270172 160.296326 424.865021 C 159.31163 427.459839 157.80632 430.814728 156.951126 432.320282 Z M 354.36496 433.606842 C 351.355896 425.854797 349.591614 420.214172 348.50296 416.070831 C 347.414276 411.92746 345.883484 404.319366 345.101135 399.16394 C 344.318756 394.008484 343.624573 386.786591 343.558441 383.115295 C 343.492218 379.438416 343.812744 375.207275 344.272064 373.695374 C 344.730652 372.18573 345.55069 370.342346 346.094269 369.598938 C 346.637878 368.85553 347.287781 368.452393 347.538513 368.703156 C 347.789276 368.953918 347.460388 371.356201 346.807678 374.041565 C 345.780731 378.266846 345.725952 379.768036 346.400635 385.194244 C 346.829407 388.642853 347.685608 393.461975 348.303253 395.903412 C 348.920929 398.344849 350.061157 401.707245 350.837097 403.375366 C 351.613007 405.043488 353.492523 407.701019 355.013702 409.281006 C 356.956635 411.29895 358.858337 412.471893 361.405304 413.223175 C 363.399414 413.811371 367.261261 414.494751 369.987213 414.74176 C 372.961182 415.011261 376.973755 414.852295 380.019928 414.344269 C 382.811981 413.878662 387.026367 412.776062 389.385223 411.894104 C 391.744049 411.012115 395.386993 409.153503 397.480652 407.763794 C 399.57431 406.374084 402.763367 403.799377 404.567413 402.042145 C 406.37146 400.284943 408.815552 396.929596 409.998688 394.585815 C 411.181824 392.242004 412.320831 388.880676 412.529785 387.116119 C 412.761047 385.163818 412.473907 382.178802 411.796387 379.491089 C 411.184052 377.06189 409.740356 373.140106 408.588165 370.776062 C 407.435974 368.412048 404.905792 364.808167 402.965515 362.767517 C 401.025269 360.726868 398.976776 358.973297 398.413361 358.870728 C 397.849945 358.768127 396.973511 358.126526 396.465698 357.444946 C 395.957886 356.763367 395.711334 356.036682 395.917847 355.8302 C 396.124359 355.623688 397.621613 356.097748 399.245148 356.883667 C 400.868622 357.669586 403.453278 359.625488 404.988861 361.230103 C 406.524445 362.834717 408.713043 365.537567 409.852417 367.23642 C 410.991852 368.935272 412.316559 371.635223 412.796234 373.236328 C 413.27594 374.837402 413.854614 375.8461 414.082153 375.477905 C 414.309753 375.10968 414.516663 376.097504 414.541992 377.673035 C 414.567383 379.248596 414.65976 382.957947 414.747375 385.916016 C 414.890808 390.760315 414.687775 391.743591 412.703003 395.81839 C 411.138947 399.029358 408.878601 401.952454 404.915039 405.889771 C 400.629517 410.146912 398.113434 412.014801 394.096985 413.920776 C 391.218414 415.286774 386.940063 416.857819 384.5896 417.412018 C 382.239105 417.966187 377.384216 418.424164 373.800964 418.429718 C 370.106049 418.435455 365.524109 417.983398 363.215668 417.385437 C 360.977051 416.805481 357.964752 415.553223 356.52182 414.60257 C 355.078827 413.651917 353.723236 413.049072 353.509399 413.262909 C 353.295563 413.476746 353.498779 415.266846 353.960938 417.240875 C 354.423157 419.214905 354.703125 423.704834 354.58313 427.218445 L 354.36496 433.606842 Z M 264.377869 421.854431 C 263.693146 421.854431 262.378601 421.100098 261.456635 420.178162 C 260.534729 419.256226 259.780396 417.719635 259.780396 416.76355 C 259.780396 415.807465 260.39505 414.410583 261.14624 413.659363 C 261.89743 412.908142 263.386414 412.293518 264.455017 412.293518 C 265.523621 412.293518 266.906494 412.85553 267.528168 413.542419 C 268.14975 414.229309 268.658356 415.9021 268.658356 417.259766 C 268.658356 419.036407 268.233002 420.026154 267.140564 420.791321 C 266.305786 421.376038 265.062561 421.854431 264.377869 421.854431 Z M 265.266724 356.294006 C 263.274353 356.294006 262.317596 355.905762 261.526428 354.776184 C 260.941711 353.941406 260.463318 352.558502 260.463318 351.703064 C 260.463318 350.847595 261.077972 349.533081 261.829163 348.78186 C 262.580353 348.03064 264.069336 347.416016 265.137939 347.416016 C 266.206543 347.416016 267.610565 348.001343 268.257965 348.716736 C 268.905365 349.432129 269.603333 350.660828 269.80899 351.447205 C 270.014618 352.233582 269.679138 353.645813 269.063446 354.58548 C 268.184235 355.927307 267.369354 356.294006 265.266724 356.294006 Z M 264.100708 299.611542 C 262.967804 299.611542 261.532257 299.049561 260.910614 298.362671 C 260.289001 297.675781 259.780396 296.186829 259.780396 295.053894 C 259.780396 293.920959 260.342407 292.485413 261.029266 291.8638 C 261.716156 291.242188 263.235321 290.733582 264.405151 290.733582 C 265.828979 290.733582 266.883636 291.235352 267.595276 292.251343 C 268.179993 293.086151 268.658356 294.575104 268.658356 295.56012 C 268.658356 296.545166 268.096375 297.859711 267.409485 298.481323 C 266.722595 299.102936 265.233643 299.611542 264.100708 299.611542 Z M 215.2686 275.025574 C 214.055649 275.024902 212.720612 273.659485 209.585693 269.213409 C 207.332062 266.017212 204.37558 261.251587 203.015793 258.623199 C 201.655991 255.994781 199.701141 251.311523 198.671707 248.215973 C 197.496857 244.683075 196.664719 240.426483 196.436539 236.782806 C 196.236603 233.590149 195.783966 230.790253 195.43071 230.560822 C 195.077408 230.33139 195.271988 229.958099 195.863037 229.731293 C 196.606354 229.446045 197.023224 229.785248 197.214996 230.83136 C 197.367477 231.663208 197.988998 234.604675 198.596191 237.36795 C 199.203369 240.131226 200.923599 245.509247 202.418945 249.319092 C 203.914291 253.128906 207.251236 259.613281 209.834366 263.72876 C 212.417542 267.844238 214.80127 271.293945 215.131516 271.394775 C 215.461761 271.495605 217.186188 269.664948 218.963608 267.326691 C 220.740982 264.988403 223.619843 261.141022 225.361115 258.776917 C 227.102341 256.412842 229.637741 253.723846 230.9953 252.801392 C 232.352798 251.878906 234.168564 251.124146 235.030258 251.124146 C 235.96785 251.124146 237.786362 252.313477 239.558777 254.085907 C 241.187714 255.714844 244.32959 259.616882 246.540756 262.75705 C 248.751862 265.897217 250.668961 268.911682 250.800964 269.455811 C 250.969986 270.152649 250.685501 270.308838 249.839066 269.984009 C 249.17807 269.730377 246.469269 267.684357 243.819534 265.437317 C 241.1698 263.190308 237.950058 261.061432 236.664536 260.706482 C 234.950348 260.233154 233.700256 260.32309 231.975372 261.043762 C 230.681839 261.584259 226.750381 264.951447 223.238739 268.526428 C 218.805176 273.040039 216.369507 275.026123 215.2686 275.025574 Z M 266.295959 274.097504 C 265.029358 274.57251 265.0401 274.459961 266.497772 271.98938 C 267.344727 270.553955 269.797089 267.19278 271.94754 264.520081 C 274.097992 261.847412 277.1698 257.925659 278.773773 255.805084 C 280.377747 253.684509 282.590393 251.576569 283.690704 251.120789 C 285.396423 250.414276 286.021454 250.484467 287.930878 251.597076 C 289.162598 252.314789 292.167908 255.659515 294.609375 259.029816 C 297.050812 262.400116 299.758331 266.060181 300.626099 267.163269 C 301.920166 268.80835 302.319458 268.989502 302.846863 268.170868 C 303.200562 267.621948 304.122009 265.081573 304.894531 262.525635 C 305.667084 259.969727 306.728455 255.634674 307.253204 252.892212 C 307.777893 250.14975 308.420471 243.866638 308.681122 238.929749 C 308.941742 233.992859 309.365112 229.953583 309.621948 229.953583 C 309.878754 229.953583 310.103363 230.337738 310.120972 230.807251 C 310.138611 231.276764 310.374237 234.273071 310.644592 237.465729 C 310.927826 240.810333 310.816406 246.093353 310.381714 249.930878 C 309.966705 253.594055 308.692505 259.509277 307.550018 263.075836 C 306.407562 266.642365 304.776825 270.369568 303.926208 271.358459 C 302.499969 273.016541 302.244324 273.083069 300.641418 272.213379 C 299.685394 271.694702 296.828827 269.426422 294.293488 267.172791 C 291.758179 264.919159 288.564026 262.371887 287.195404 261.512268 C 285.654541 260.544373 283.974152 260.046875 282.782288 260.205688 C 281.446014 260.383789 278.836395 262.469604 274.245789 267.028931 C 270.609314 270.640686 267.031891 273.821503 266.295959 274.097504 Z"/>
        <path id="path7" fill="#b95e27" fill-rule="evenodd" stroke="none" d="M 209.739716 199.571472 C 219.457245 208.81897 224.131409 212.762024 226.396042 214.299896 C 228.660721 215.83783 232.412109 217.97525 234.732483 219.049744 C 237.052841 220.124237 241.388962 221.711121 244.368362 222.57608 C 248.504074 223.776764 251.492477 224.148773 257.002411 224.148773 C 263.057373 224.148773 265.154022 223.842072 270.0242 222.243958 C 273.216858 221.196289 278.133911 218.997253 280.950958 217.357239 C 283.768005 215.717194 287.993561 212.630341 290.341125 210.497528 C 294.609375 206.619659 294.609375 206.619659 294.603455 208.896484 C 294.600159 210.148712 294.405426 212.772034 294.170715 214.726105 C 293.935944 216.680176 293.400848 218.370392 292.981506 218.482178 C 292.562225 218.593933 289.68573 221.316559 286.589386 224.532379 C 282.129669 229.164215 279.787842 230.975739 275.321198 233.248932 C 272.220062 234.827148 268.027374 236.4216 266.004211 236.792084 C 263.980988 237.162598 259.832245 237.441315 256.78479 237.411438 C 253.737274 237.381561 249.399979 236.94809 247.146347 236.448151 C 244.892715 235.948181 240.743973 234.561096 237.926926 233.365692 C 235.109863 232.170288 231.500229 230.440399 229.905518 229.521484 C 228.310791 228.602539 225.095383 226.249451 222.760223 224.292419 C 220.425018 222.335388 217.581055 220.145569 216.440292 219.426147 C 215.299484 218.706757 213.682144 217.980896 212.846161 217.813141 C 211.765137 217.596222 211.227768 216.889252 210.985306 215.365082 C 210.797806 214.186401 210.440842 210.150665 210.192047 206.396759 L 209.739716 199.571472 Z"/>
        <path id="path8" fill="#c0672f" fill-rule="evenodd" stroke="none" d="M 259.577515 208.729126 C 256.87207 208.699463 254.274338 208.520203 253.80484 208.33075 C 253.335327 208.141296 252.951187 207.387634 252.951187 206.655945 C 252.951187 205.924225 253.480835 205.122314 254.128159 204.873932 C 254.775528 204.625519 257.464539 204.482391 260.103729 204.555908 C 262.74295 204.629395 265.593781 204.848145 266.438873 205.041992 C 267.283966 205.23584 267.975433 205.800232 267.975433 206.296234 C 267.975433 206.792175 267.192688 207.554596 266.235992 207.990509 C 265.279327 208.426422 262.28299 208.758789 259.577515 208.729126 Z"/>
        <path id="path9" fill="#89421c" fill-rule="evenodd" stroke="none" d="M 259.260864 199.859375 C 256.729553 199.834259 253.42923 199.423279 251.926804 198.946136 C 250.424362 198.468964 247.520279 197.223969 245.473267 196.179443 C 243.426254 195.134949 240.169373 192.63385 238.235779 190.621429 C 236.302185 188.609039 233.75145 185.14502 232.567459 182.923645 C 231.383484 180.702271 230.414795 178.073029 230.414795 177.080933 C 230.414795 176.088776 230.816681 175.122803 231.307907 174.934326 C 231.799133 174.745819 234.180817 175.058258 236.600555 175.628601 C 239.020279 176.198914 243.919571 176.663788 247.487808 176.661591 C 251.056061 176.659393 258.574188 176.359802 264.194794 175.995819 C 271.282043 175.536835 275.739258 174.893005 278.738281 173.894989 C 281.116669 173.103485 283.779999 172.635986 284.65686 172.856079 C 285.533691 173.076141 286.403198 173.837738 286.58905 174.548492 C 286.774902 175.259247 286.210876 177.25351 285.335541 178.980225 C 284.460266 180.706909 282.228638 184.365509 280.376404 187.110413 C 278.524139 189.855347 275.570435 193.279694 273.812622 194.720093 C 272.05484 196.160492 269.097107 197.916382 267.239929 198.62204 C 265.07608 199.444244 262.210266 199.888672 259.260864 199.859375 Z"/>
        <path id="path10" fill="#fdf9f7" fill-rule="evenodd" stroke="none" d="M 258.414551 184.521759 C 253.343872 184.677826 247.631363 184.554718 245.720108 184.24826 C 243.808853 183.941772 241.414673 183.146912 240.399719 182.481903 C 239.384796 181.816864 238.226151 180.659454 237.824966 179.909851 C 237.15593 178.65976 237.257172 178.585114 239.047791 179.008331 C 240.121536 179.262115 244.789886 179.654083 249.421875 179.879395 C 254.180267 180.11087 261.161316 179.947784 265.47052 179.504517 C 269.665283 179.072998 273.788818 178.533722 274.633942 178.306091 C 275.708466 178.016724 276.170502 178.188477 276.170502 178.877289 C 276.170502 179.419006 275.431946 180.556122 274.529236 181.404205 C 273.626495 182.252228 271.70578 183.236786 270.260956 183.592072 C 268.816132 183.947388 263.485229 184.365723 258.414551 184.521759 Z"/>
        <path id="path11" fill="#ad5925" fill-rule="evenodd" stroke="none" d="M 190.335861 160.082245 C 189.889816 160.246552 188.864105 159.720215 188.056503 158.912628 C 187.248917 158.105042 186.154083 156.405457 185.623596 155.135803 C 185.093109 153.86618 184.659073 151.732025 184.659073 150.39328 C 184.659073 149.054535 184.230576 146.933624 183.706848 145.680145 C 183.183105 144.426697 182.039093 142.899994 181.164642 142.287476 C 180.290192 141.674988 178.490646 141.169159 177.165695 141.163391 C 175.358978 141.155548 175.012817 140.987457 175.781097 140.490936 C 176.344513 140.126831 177.762802 139.824219 178.932861 139.818481 C 180.102966 139.812714 181.87616 140.449799 182.873322 141.234161 C 183.870483 142.018555 185.119461 143.497803 185.648773 144.521393 C 186.178101 145.545013 186.832794 148.341187 187.103653 150.735168 C 187.470657 153.979095 187.993439 155.456055 189.156174 156.53363 C 190.014191 157.328796 190.81311 158.385315 190.931534 158.881439 C 191.049957 159.377563 190.781891 159.917908 190.335861 160.082245 Z M 316.296295 150.009399 C 315.253815 151.497711 315.21579 151.501923 314.794556 150.174744 C 314.556885 149.425873 314.717346 147.403564 315.151154 145.680664 C 315.802551 143.093689 315.74762 141.960236 314.835541 139.171783 C 314.228149 137.314697 313.731171 135.053375 313.731171 134.146576 C 313.731171 133.239777 314.422638 131.485107 315.267731 130.247375 C 316.112823 129.009583 317.572601 127.504395 318.511597 126.902496 C 320.218903 125.808136 320.218903 125.808136 319.014099 127.515442 C 318.35141 128.454437 317.300781 130.210907 316.679352 131.418671 C 315.621277 133.474945 315.627747 133.873383 316.781036 137.682465 C 317.566711 140.277405 317.895599 142.969116 317.68927 145.116333 C 317.511353 146.967682 316.884552 149.169556 316.296295 150.009399 Z"/>
        <path id="path12" fill="#9b4d1f" fill-rule="evenodd" stroke="none" d="M 261.708832 167.381226 C 259.709167 167.535278 256.997467 167.518555 255.682861 167.344055 C 254.368256 167.169525 252.44754 166.223053 251.414612 165.240723 C 250.381683 164.258423 249.536575 163.237274 249.536575 162.971466 C 249.536575 162.705719 250.689011 162.755859 252.097534 163.082947 C 253.506058 163.410065 256.135773 163.684998 257.941406 163.693939 C 259.747009 163.702911 262.57077 163.371216 264.21637 162.956848 C 265.862 162.54248 267.731781 161.625153 268.371429 160.918304 C 269.283264 159.910706 269.452637 158.839813 269.155396 155.959991 C 268.946838 153.939728 267.922882 150.170532 266.879883 147.583984 C 265.836853 144.997437 264.850128 142.012878 264.687103 140.951599 C 264.524078 139.890381 264.691925 138.720825 265.06012 138.352692 C 265.497345 137.915405 266.009247 138.358612 266.536163 139.630646 C 266.979797 140.701721 267.996704 142.639526 268.795929 143.93692 C 269.595123 145.234283 270.302277 146.9104 270.36731 147.661591 C 270.432373 148.412811 271.024414 151.023621 271.682922 153.463379 C 272.346924 155.923431 272.713409 158.927002 272.505768 160.206573 C 272.299835 161.475555 271.580414 163.132751 270.907043 163.889221 C 270.233704 164.645691 268.706635 165.677826 267.513641 166.182831 C 266.320618 166.687866 263.708435 167.227142 261.708832 167.381226 Z"/>
        <path id="path13" fill="#2e2825" fill-rule="evenodd" stroke="none" d="M 283.621948 136.393402 C 282.528503 136.393402 281.027069 135.786591 280.2854 135.044952 C 279.543762 134.303284 278.743927 132.927521 278.508087 131.987732 C 278.272186 131.047913 278.190094 128.884521 278.325623 127.180176 C 278.517365 124.769379 278.364349 124.161072 277.636414 124.440399 C 277.121765 124.637909 275.834717 125.416138 274.776245 126.1698 C 273.717804 126.923492 272.6875 127.274292 272.486664 126.949402 C 272.285858 126.62442 272.955719 125.561401 273.975311 124.587036 C 274.994843 123.612701 277.211975 122.189484 278.902191 121.424408 C 280.821198 120.555756 283.441162 120.027679 285.878357 120.018311 C 289.289124 120.005188 290.088776 120.273163 292.218323 122.142944 C 293.558655 123.319733 294.519836 124.41803 294.354309 124.583496 C 294.188782 124.749023 293.179718 124.439758 292.111908 123.89624 C 291.044037 123.352722 289.48703 122.697296 288.651825 122.439758 C 287.15921 121.979462 287.150452 122.012634 288.139618 124.380066 C 288.693115 125.704773 289.145996 128.004211 289.145996 129.489868 C 289.145996 131.399536 288.62793 132.806793 287.378021 134.292236 C 286.149292 135.752472 285.00351 136.393402 283.621948 136.393402 Z"/>
        <path id="path14" fill="#2e2825" fill-rule="evenodd" stroke="none" d="M 226.357483 139.787262 C 225.396332 139.775848 224.072128 139.453247 223.414841 139.070374 C 222.757523 138.6875 221.758728 137.48291 221.195358 136.393372 C 220.631927 135.303864 220.170975 132.835052 220.170975 130.907043 C 220.170975 128.979065 219.888824 127.504059 219.544037 127.629272 C 219.199188 127.754425 217.612442 128.910461 216.017929 130.198181 C 213.352142 132.350983 213.151779 132.413177 213.529037 130.970551 C 213.7547 130.107635 214.610489 128.687256 215.43074 127.814087 C 216.251007 126.940918 217.930054 125.74826 219.161972 125.163696 C 220.477997 124.539185 223.190018 124.108734 225.737549 124.120087 C 228.869171 124.133972 230.913849 124.569183 233.099747 125.687134 C 234.764236 126.538452 236.251755 127.611847 236.405304 128.072479 C 236.589081 128.62384 235.475632 128.433472 233.146469 127.515442 C 231.200577 126.748444 229.72728 126.357849 229.872467 126.64743 C 230.017685 126.937012 230.506409 128.039093 230.958527 129.096466 C 231.410706 130.153839 231.780624 131.941071 231.780624 133.068176 C 231.780624 134.195221 231.439209 135.788605 231.021896 136.609039 C 230.604614 137.429474 229.777588 138.484863 229.184082 138.954376 C 228.590561 139.423859 227.318588 139.798676 226.357483 139.787262 Z"/>
        <path id="path15" fill="#3f2f2b" fill-rule="evenodd" stroke="none" d="M 296.815857 107.649078 C 295.7901 107.615173 292.799622 106.987366 290.17038 106.253967 C 286.059692 105.10733 284.077789 104.979004 276.024536 105.338013 C 266.659088 105.755463 266.659088 105.755463 266.206207 103.95108 C 265.957123 102.958618 266.073517 101.443848 266.464935 100.5849 C 266.856293 99.725952 267.989655 98.383545 268.98349 97.601746 C 269.977356 96.820007 272.436249 95.812073 274.447662 95.361908 C 276.477661 94.907623 280.274231 94.698761 282.980927 94.892395 C 286.521057 95.145721 288.904114 95.78006 291.678314 97.207733 C 293.780029 98.289307 296.412994 100.307373 297.529449 101.692352 C 299.07373 103.608032 299.454285 104.629211 299.120148 105.960602 C 298.7771 107.327423 298.2724 107.697205 296.815857 107.649078 Z"/>
        <path id="path16" fill="#3f2f2b" fill-rule="evenodd" stroke="none" d="M 209.084015 112.953003 C 207.685318 113.243317 207.098099 113.032135 206.744888 112.111603 C 206.460068 111.369415 206.826584 109.91629 207.670151 108.442993 C 208.438431 107.101257 210.349731 105.012512 211.917435 103.801422 C 213.485184 102.590363 216.346664 101.130615 218.276306 100.557556 C 220.301102 99.956238 224.403595 99.517303 227.977798 99.51947 C 231.383987 99.521576 235.400101 99.849243 236.902542 100.247681 C 238.404968 100.646088 240.172012 101.600372 240.82933 102.368286 C 241.486664 103.13623 242.024445 104.451141 242.024445 105.290314 C 242.024445 106.129517 241.486664 107.290985 240.82933 107.871399 C 239.906036 108.686707 237.304276 109.002289 229.390411 109.258972 C 221.165085 109.525726 218.339203 109.884186 215.049057 111.078308 C 212.795425 111.89621 210.111145 112.739838 209.084015 112.953003 Z"/>
        <path id="path17" fill="#48342e" fill-rule="evenodd" stroke="none" d="M 192.620285 145.271393 C 192.007111 145.271393 190.797653 144.118958 189.932587 142.710419 C 189.067505 141.30191 187.780869 138.828217 187.073441 137.213409 C 186.365967 135.598572 184.754364 133.370575 183.492065 132.262238 C 181.961655 130.918549 179.347137 130.256195 177.146942 130.247131 C 174.936661 130.237976 176.776428 130.247131 174.463562 121.881348 C 173.191513 117.280151 171.26004 109.674133 170.171432 104.979034 C 168.748734 98.842987 168.08165 93.845673 167.799164 87.207794 C 167.429993 78.531982 167.506149 77.725647 169.057388 73.885132 C 169.965561 71.636749 171.922287 67.955872 173.405716 65.705353 C 174.889145 63.454865 178.873093 58.732483 182.258972 55.211121 C 185.644867 51.689758 190.56636 47.063293 193.195587 44.929993 C 195.824814 42.796692 200.43454 39.336945 203.439407 37.241638 C 206.444275 35.146271 210.972916 32.336182 213.503113 30.996979 C 216.033264 29.657715 221.06897 27.612091 224.693481 26.451019 C 228.318054 25.289978 234.457672 23.84906 238.337112 23.248932 C 243.684113 22.421814 248.246719 22.247498 257.195282 22.528503 C 266.117584 22.808685 270.333801 23.252289 274.463196 24.345337 C 277.468079 25.140717 281.839081 26.686371 284.176605 27.780182 C 286.51416 28.873962 290.002075 31.242554 291.927612 33.043671 C 293.85318 34.844788 296.149536 37.741119 297.030701 39.47998 C 297.911804 41.218842 298.832703 43.43808 299.077026 44.411652 C 299.419281 45.775238 300.275574 46.43222 302.805756 47.272675 C 304.612213 47.872681 307.775665 49.570465 309.835632 51.045624 C 311.895599 52.520691 314.543549 55.180725 315.71994 56.956787 C 316.896332 58.732819 318.32016 61.736389 318.884033 63.631439 C 319.447876 65.526428 320.25354 70.810211 320.674377 75.373138 C 321.25296 81.646851 321.23822 86.308411 320.6138 94.494934 C 320.159698 100.448975 319.332611 108.202576 318.775879 111.725098 C 318.020355 116.505585 317.414703 118.412292 316.387665 119.243927 C 315.630829 119.856781 314.470062 122.01944 313.808136 124.049835 C 312.604706 127.741486 312.604706 127.741486 311.858887 123.360229 C 311.448639 120.9505 310.20343 116.213104 309.091675 112.832642 C 307.97998 109.452148 306.277344 103.920532 305.308105 100.540039 C 304.338867 97.159576 302.759613 91.013306 301.798676 86.881622 C 300.837708 82.749969 299.11554 77.44986 297.97171 75.103577 C 296.82782 72.757355 294.418976 69.235779 292.618622 67.277832 C 289.345337 63.717926 289.345337 63.717926 282.92865 66.66098 C 279.399445 68.279663 274.265167 70.180084 271.519104 70.884125 C 268.773041 71.588226 263.241394 72.498474 259.226532 72.906952 C 253.263962 73.513611 250.112869 73.445496 242.024445 72.535065 C 236.578171 71.922058 228.617203 71.243347 224.333435 71.026794 C 218.320862 70.7229 215.439835 70.895203 211.699402 71.782471 C 209.034454 72.414581 205.571869 73.509399 204.004822 74.215363 C 202.437775 74.921326 200.638397 76.288391 200.006256 77.253204 C 199.135513 78.582123 198.707596 81.61792 198.241379 89.773743 C 197.770462 98.012024 197.205826 101.983246 195.836777 106.68634 C 194.852753 110.066803 193.59198 114.676514 193.035065 116.930145 C 192.295212 119.924133 192.134445 122.958893 192.438095 128.198364 C 192.666687 132.142242 193.052032 137.597076 193.294418 140.32019 C 193.677567 144.624542 193.589478 145.271393 192.620285 145.271393 Z"/>
        <path id="path18" fill="#302526" fill-rule="evenodd" stroke="none" d="M 221.878281 156.790619 C 218.873398 156.753998 215.339294 156.506927 214.024689 156.241669 C 212.710068 155.97641 210.650009 155.242981 209.446808 154.611816 C 208.243576 153.980682 206.16922 152.342072 204.837128 150.970428 C 203.505051 149.598816 201.69397 146.910339 200.812469 144.995941 C 199.931015 143.081604 198.514236 139.011139 197.664093 135.950439 C 196.140305 130.464569 196.092331 130.393036 194.28241 130.912109 C 192.914322 131.304504 192.019821 131.095978 190.772263 130.093933 C 189.851471 129.35434 188.995148 128.470123 188.869354 128.129089 C 188.743561 127.788025 189.423386 126.578705 190.380127 125.441711 C 191.336807 124.304749 192.312469 123.421631 192.548264 123.479218 C 192.784012 123.536835 193.794388 122.981445 194.793564 122.245056 C 195.792725 121.508667 199.068695 120.094666 202.073563 119.102936 C 205.07843 118.111145 209.742676 116.841339 212.438553 116.281128 C 215.13443 115.720886 221.434357 115.05954 226.438431 114.811493 C 232.571793 114.507507 236.818542 114.62854 239.470322 115.182953 C 241.79245 115.668518 244.28241 116.744629 245.548218 117.809723 C 246.727524 118.802063 247.82869 120.134949 247.995163 120.771637 C 248.27211 121.830475 248.506027 121.842285 250.737518 120.909882 C 252.237091 120.283325 254.778366 119.964294 257.332428 120.081879 C 261.390961 120.268768 261.551727 120.20816 264.23819 117.478149 C 266.105377 115.580688 268.140045 114.341156 270.573792 113.618408 C 272.545593 113.032867 277.496857 112.04129 281.576691 111.414978 C 286.817139 110.610474 291.57254 110.369598 297.777466 110.594391 C 302.608154 110.769409 307.021454 111.037292 307.584869 111.189697 C 308.148285 111.342072 308.769135 111.67804 308.9646 111.936249 C 309.160034 112.194489 310.235657 112.750946 311.354828 113.172852 C 312.47403 113.594757 314.11496 114.411499 315.001434 114.987854 C 316.613159 116.035736 316.613159 116.035736 314.177124 118.531708 C 311.828156 120.938477 311.716797 121.283936 311.060577 128.198364 C 310.686279 132.142242 309.858521 136.981171 309.221069 138.951569 C 308.583618 140.921997 307.024628 143.746185 305.756653 145.22757 C 304.488647 146.708954 301.845886 148.680359 299.883911 149.608459 C 297.921936 150.536499 294.324524 151.657104 291.889618 152.098541 C 289.375702 152.554352 285.834229 152.700928 283.69455 152.437805 C 281.622162 152.182953 278.510651 151.369202 276.78006 150.629456 C 275.0495 149.88974 272.545441 148.151093 271.215454 146.765778 C 269.885437 145.380432 267.88855 142.403107 266.777863 140.149475 C 265.667206 137.895844 264.083801 133.801727 263.259186 131.051453 C 261.888184 126.478851 261.546509 125.961823 259.266418 125.009125 C 257.289917 124.183289 256.258179 124.12149 254.290314 124.71106 C 252.924881 125.120178 251.337082 125.995331 250.761871 126.655914 C 250.097412 127.418854 249.554703 129.97403 249.273773 133.661713 C 249.030563 136.85437 248.34314 141.049255 247.746201 142.983643 C 247.149231 144.918091 245.748672 147.607391 244.633835 148.95993 C 243.518967 150.312439 241.281418 152.19574 239.661484 153.145111 C 238.04158 154.094421 234.606934 155.318054 232.028931 155.864258 C 229.450928 156.410461 224.883148 156.827301 221.878281 156.790619 Z M 224.609955 153.861511 C 229.373779 153.682434 232.58577 153.171295 235.230377 152.171448 C 237.315567 151.383087 239.988983 149.738556 241.171341 148.516937 C 242.353699 147.295258 243.849579 145.066528 244.495575 143.564087 C 245.308548 141.67334 245.76355 138.301544 245.973663 132.611237 C 246.271194 124.553955 246.241928 124.348175 244.506119 122.285278 C 243.532013 121.127625 241.730042 119.759888 240.501709 119.245819 C 239.006989 118.6203 235.85202 118.351105 230.962112 118.431885 C 226.94371 118.498322 220.797409 119.039734 217.303696 119.635071 C 213.810013 120.230438 209.326019 121.183563 207.33931 121.753174 C 205.35257 122.322754 203.08606 123.429779 202.302567 124.213287 C 201.034973 125.480896 200.928925 126.134094 201.339874 130.145172 C 201.593887 132.624268 202.554413 136.894836 203.47438 139.635437 C 204.394348 142.376007 205.956299 145.841125 206.945374 147.335724 C 207.934448 148.830292 209.701401 150.64151 210.872009 151.360657 C 212.042572 152.079742 214.075912 152.994385 215.390518 153.393158 C 216.705139 153.791901 220.853897 154.002625 224.609955 153.861511 Z M 286.119629 149.316986 C 288.774597 149.34552 292.488922 148.91095 294.373657 148.351227 C 296.258392 147.791565 299.03006 146.442902 300.532898 145.354248 C 302.120239 144.204346 303.948303 141.983521 304.894989 140.05484 C 306.333221 137.124664 306.526672 135.772675 306.542511 128.539825 C 306.55423 123.198853 306.242798 119.592194 305.648224 118.183868 C 305.132446 116.962036 303.945313 115.72525 302.916534 115.337982 C 301.915894 114.961212 299.64328 114.480591 297.866364 114.269867 C 296.089447 114.059143 291.479736 114.17868 287.622559 114.535522 C 283.765381 114.892365 278.346588 115.708069 275.580872 116.348175 C 272.815125 116.988342 269.588348 118.159668 268.410187 118.95108 C 266.594299 120.17099 266.236603 120.87674 266.061035 123.586212 C 265.939941 125.454498 266.465881 128.849731 267.326965 131.758606 C 268.137146 134.495544 269.562317 138.355835 270.494019 140.337006 C 271.42572 142.318207 273.234375 144.773987 274.513123 145.794373 C 275.791931 146.814758 277.840424 148.013062 279.065338 148.457306 C 280.290192 148.90152 283.464661 149.288391 286.119629 149.316986 Z"/>
        <path id="path19" fill="#312727" fill-rule="evenodd" stroke="none" d="M 194.137268 79.534698 C 193.500992 79.70108 192.337357 79.194183 191.551437 78.408264 C 190.765472 77.622314 190.122437 76.255493 190.122437 75.370911 C 190.122437 74.181274 191.180511 73.020386 194.186829 70.91156 C 196.422256 69.343506 200.239548 67.130096 202.669708 65.992889 C 205.099854 64.855682 209.536346 63.419006 212.528534 62.800293 C 217.908752 61.687775 218.115128 61.697662 231.191788 63.693207 C 241.803696 65.312622 246.639709 65.71109 255.682861 65.71109 C 264.773865 65.71109 267.808746 65.458862 271.390045 64.40564 C 273.831512 63.687653 277.980255 62.014526 280.609497 60.687622 C 283.238708 59.360657 286.771698 57.335968 288.46048 56.188202 C 290.149292 55.040466 291.867798 54.011414 292.279388 53.901398 C 292.690948 53.791382 293.417877 54.171539 293.894775 54.746185 C 294.371704 55.320831 294.580994 56.48642 294.359894 57.336426 C 294.138824 58.186401 293.01181 59.882294 291.855377 61.105042 C 290.699005 62.327759 289.894287 63.557037 290.067139 63.8367 C 290.23999 64.116394 289.719299 64.372955 288.910034 64.406799 C 288.10083 64.440674 285.041168 65.609711 282.11087 67.004669 C 279.180542 68.399658 274.417175 70.14743 271.525604 70.88858 C 268.633972 71.629791 263.25235 72.565552 259.566345 72.968079 C 254.836212 73.48465 250.717438 73.48819 245.566467 72.980072 C 241.552521 72.584167 235.226501 71.899597 231.508652 71.458832 C 227.790771 71.018097 221.951797 70.819611 218.533157 71.017761 C 214.982956 71.223541 210.27037 72.026764 207.544022 72.890778 C 204.17038 73.95993 202.117752 75.095856 200.544083 76.764404 C 199.319458 78.062897 198.31749 78.785278 198.31749 78.36972 C 198.31749 77.833679 197.878296 77.849182 196.805847 78.423157 C 195.974411 78.868103 194.77359 79.368317 194.137268 79.534698 Z"/>
    </g>
</svg>
