<?xml version="1.0" encoding="UTF-8"?>
<!-- Generated by Pixelmator Pro 3.7 -->
<svg width="512" height="512" viewBox="0 0 512 512" xmlns="http://www.w3.org/2000/svg">
    <g id="waving-copy">
        <path id="Shape" fill="#d98143" fill-rule="evenodd" stroke="none" d="M 273.295563 276.544739 C 272.019531 276.544739 272.024414 276.462769 273.442902 274.058594 C 274.90979 271.572388 274.90979 271.572388 273.250458 269.096222 C 272.33783 267.734314 270.553131 264.626221 269.284454 262.189331 C 268.015808 259.752441 265.140808 255.792603 262.895599 253.389679 C 260.650391 250.986755 257.108307 247.727234 255.024261 246.146332 C 252.940247 244.565399 248.463058 241.526917 245.074966 239.394165 C 241.686874 237.261383 236.604736 233.450317 233.781326 230.925079 C 230.957916 228.399841 227.799683 225.26709 226.763016 223.963409 C 225.726349 222.659668 224.245453 219.55777 223.472122 217.070251 C 222.658875 214.454315 221.893188 209.557129 221.656036 205.454895 C 221.246033 198.362335 221.246033 198.362335 217.824936 193.134552 C 215.943344 190.259277 212.750671 184.611023 210.730148 180.582886 C 207.056442 173.259003 207.056442 173.259003 203.805603 173.644012 C 201.264114 173.945007 199.812317 173.680023 197.152451 172.429749 C 195.281189 171.55014 191.899887 168.974457 189.638428 166.705963 C 187.376968 164.4375 184.533371 160.704773 183.319305 158.411102 C 182.105225 156.117371 180.646744 152.267303 180.078217 149.855377 C 179.509689 147.443481 179.039963 143.965759 179.034409 142.127197 C 179.028839 140.288574 179.401184 137.526337 179.861832 135.988831 C 180.338242 134.398682 181.858582 132.068359 183.387772 130.584351 C 186.076172 127.975342 186.076172 127.975342 183.551865 118.744568 C 182.163498 113.667664 180.434753 106.669678 179.710205 103.193512 C 178.985657 99.717346 178.066803 93.404266 177.668289 89.16452 C 177.175674 83.923309 177.163712 80.089905 177.630951 77.18869 C 178.008911 74.841766 179.273605 70.980774 180.441391 68.608612 C 181.609177 66.236511 184.353409 62.077393 186.539673 59.366119 C 188.725937 56.654846 192.626495 52.422882 195.207565 49.961823 C 197.788635 47.500732 202.21048 43.617004 205.03389 41.331329 C 207.8573 39.045624 212.423126 35.716522 215.180176 33.933258 C 217.937241 32.149933 222.187866 29.786407 224.626022 28.680878 C 227.064163 27.575378 231.861923 25.920746 235.287689 25.003967 C 238.713455 24.087189 244.473114 22.970276 248.086899 22.521973 C 252.253571 22.005066 258.53891 21.863647 265.266632 22.135498 C 271.101654 22.371246 277.877838 23.018005 280.324799 23.572754 C 282.771759 24.127502 286.621887 25.163635 288.880585 25.875214 C 291.139313 26.586853 294.820709 28.068115 297.061432 29.166931 C 299.302185 30.265747 302.717773 32.706818 304.651642 34.591522 C 306.996063 36.876343 308.622955 39.238495 309.533783 41.680206 C 310.807159 45.093781 311.135956 45.425323 314.381073 46.568115 C 316.295776 47.242371 319.301361 48.784149 321.06012 49.994232 C 322.818909 51.204315 325.143341 53.590546 326.225525 55.296936 C 327.307709 57.003387 328.659637 59.817932 329.229828 61.551514 C 329.799988 63.285065 330.573822 66.859528 330.949463 69.49469 C 331.325104 72.129852 331.637024 77.212036 331.6427 80.78833 C 331.648346 84.364624 331.061707 92.218872 330.33902 98.242126 C 329.616333 104.265411 328.815613 110.457672 328.559631 112.002686 C 328.111755 114.705841 328.17038 114.826996 330.114868 115.215881 C 331.244263 115.441772 333.124969 116.746918 334.378784 118.174957 C 335.612549 119.580139 337.083191 121.830292 337.646881 123.175232 C 338.210541 124.520233 338.828705 128.117828 339.020569 131.169983 C 339.259888 134.976807 339.015045 138.308136 338.240845 141.779144 C 337.620117 144.562073 336.356476 148.467072 335.432739 150.45697 C 334.509003 152.446808 332.097839 155.730225 330.074677 157.753418 C 328.051483 159.776581 325.655365 161.536621 324.749939 161.664551 C 323.283051 161.871857 323.047028 162.357574 322.583038 166.123962 C 322.296631 168.448669 321.303558 172.968994 320.376221 176.169098 C 319.448853 179.369171 317.458923 184.652374 315.954102 187.909515 C 314.44931 191.166656 311.508331 196.271606 309.41861 199.253845 C 307.328918 202.236115 305.92746 204.676117 306.304321 204.676117 C 306.748688 204.676117 306.764008 205.217438 306.347961 206.216187 C 305.995087 207.063202 305.505341 211.452301 305.259613 215.969757 C 304.894043 222.69104 304.452972 225.115997 302.832031 229.316803 C 301.742554 232.140198 299.524506 236.914337 297.903046 239.925964 C 296.281555 242.937622 292.388855 249.25177 289.252533 253.957458 C 286.116241 258.663147 282.277832 264.053284 280.722748 265.935547 C 279.167694 267.817841 277.157288 270.974915 276.255249 272.951294 C 275.102722 275.47644 274.222809 276.544739 273.295563 276.544739 Z"/>
        <path id="path1" fill="#d98143" fill-rule="evenodd" stroke="none" d="M 373.920135 512 C 374.687592 500.064667 374.958221 496.599579 375.016663 496.599579 L 375.122925 496.599579 L 385.770447 496.599579 C 394.332062 496.599579 397.741425 496.299164 403.173798 495.066132 C 406.889526 494.222748 410.042664 493.645721 410.180817 493.783875 C 410.31897 493.921997 410.218597 498.077148 409.957794 503.017517 L 409.483582 512 L 391.701843 512 L 373.920135 512 Z"/>
        <path id="path2" fill="#b85c27" fill-rule="evenodd" stroke="none" d="M 388.127716 500.173828 C 379.199554 500.412964 376.292786 500.280212 375.636292 499.603455 C 375.16571 499.118347 374.780609 498.244019 374.780457 497.660492 C 374.780273 496.748322 376.253265 496.599579 385.28714 496.599579 C 392.647949 496.599579 397.515564 496.240875 401.543365 495.401611 C 404.705475 494.742737 407.985718 494.013794 408.832733 493.781738 C 410.18222 493.412048 410.372772 493.614807 410.372772 495.420654 C 410.372772 497.116943 410.100372 497.472229 408.832733 497.42923 C 407.985718 497.400513 405.598633 497.936157 403.528137 498.619598 C 400.700958 499.552795 396.866333 499.939789 388.127716 500.173828 Z"/>
        <path id="path3" fill="#699ca0" fill-rule="evenodd" stroke="none" d="M 163.877335 512 C 164.493057 495.821014 164.823959 481.960693 165.009903 470.76123 C 165.195862 459.561768 165.515533 442.159302 165.720276 432.089081 C 165.925034 422.01886 166.355301 410.237823 166.676422 405.909027 C 167.06749 400.637329 167.027847 397.894867 166.556351 397.603455 C 166.091995 397.316467 166.385818 394.63736 167.419693 389.731323 C 168.281693 385.64093 169.012299 381.524231 169.043274 380.58313 C 169.074234 379.641968 168.752975 378.936157 168.329361 379.014618 C 167.800339 379.11261 167.457047 376.111633 167.233154 369.432129 C 166.98912 362.151001 166.592499 358.944824 165.654999 356.674133 C 164.966278 355.006042 163.858109 353.096619 163.192383 352.430878 C 162.209457 351.447937 161.846848 349.190308 161.262894 340.417236 C 160.867386 334.475464 160.561172 322.062531 160.582428 312.832947 C 160.608337 301.577148 160.890045 295.344238 161.438004 293.902527 C 161.887329 292.720398 164.332672 289.499878 166.872131 286.74585 C 169.499725 283.896271 172.643539 279.513519 174.167908 276.574921 C 175.641144 273.734924 177.330078 269.717224 177.921112 267.646729 C 178.512131 265.576233 179.458237 259.876831 180.023575 254.981476 C 180.588898 250.08609 181.519043 244.541931 182.090546 242.661133 C 183.129669 239.241516 183.129669 239.241516 191.172806 235.504974 C 195.596527 233.44986 201.1698 230.831787 203.557846 229.687042 C 207.834732 227.63681 207.928024 227.53244 209.788254 222.717529 C 210.826935 220.029083 212.859222 215.309631 214.304443 212.22995 C 215.763489 209.120758 217.863098 205.846039 219.025452 204.866669 C 221.118759 203.102905 221.118759 203.102905 221.626556 208.167419 C 221.905838 210.952881 222.656967 214.899658 223.295715 216.937988 C 223.934479 218.976318 225.400024 221.993134 226.552475 223.641998 C 227.704941 225.290863 230.803909 228.509857 233.439102 230.795288 C 236.07428 233.08075 242.234451 237.57196 247.128357 240.775757 C 252.959473 244.593109 257.926727 248.517426 261.539825 252.161438 C 265.463379 256.11853 267.879883 259.301056 269.919739 263.197693 C 271.496307 266.209351 273.23877 269.255432 273.791901 269.966827 C 274.719238 271.159424 274.924225 271.177246 276.422577 270.195496 C 277.316345 269.609894 279.282379 267.641815 280.791565 265.822021 C 282.300751 264.002197 286.104889 258.663147 289.245209 253.957458 C 292.385559 249.25177 296.281555 242.937622 297.903046 239.925964 C 299.524506 236.914337 301.749878 232.140198 302.848297 229.316803 C 304.506775 225.053833 304.928711 222.714996 305.336517 215.5242 C 305.606628 210.761688 306.099518 206.449554 306.431854 205.941711 C 306.896667 205.231415 307.504639 205.571106 309.066864 207.413971 C 310.183777 208.731567 312.308838 212.119659 313.789246 214.943085 C 315.269623 217.766479 317.326202 222.194244 318.359406 224.782562 C 320.034576 228.978973 320.541412 229.618256 323.039795 230.686035 C 324.58078 231.344635 329.537689 233.193115 334.055145 234.793762 C 338.572601 236.39447 346.580811 239.541718 351.851196 241.78772 C 357.121552 244.033691 364.359741 247.380005 367.936066 249.223969 C 371.51239 251.067932 376.552734 254.170258 379.136841 256.118011 C 381.720947 258.065765 385.498901 261.676331 387.532288 264.141541 C 389.565674 266.60672 392.58905 271.406952 394.250885 274.808716 C 395.912689 278.21051 398.340607 284.535828 399.64624 288.865082 C 400.951874 293.194305 402.820374 301.664551 403.798462 307.687805 C 404.77655 313.71106 406.333801 325.569397 407.259003 334.039612 C 408.184235 342.509857 409.277924 354.214172 409.689453 360.049225 C 410.100983 365.884277 410.897491 378.512634 411.459473 388.112213 C 412.021423 397.711792 412.666199 417.754944 412.892212 432.652588 C 413.297119 459.338684 413.324524 459.748505 414.743927 460.373322 C 415.536316 460.722137 416.552582 461.781067 417.00235 462.726501 C 417.641296 464.069733 417.613892 466.762695 416.876953 475.046814 C 416.358307 480.877563 415.583008 486.630707 415.154114 487.831604 C 414.725189 489.032471 413.324066 490.81601 412.040527 491.795044 C 410.54657 492.93454 407.548248 494.058685 403.708466 494.918915 C 400.409424 495.65799 394.318176 496.45871 390.172363 496.698273 C 386.02655 496.937805 380.8815 496.831787 378.738892 496.462646 C 375.55484 495.914093 374.775024 495.969299 374.469757 496.764862 C 374.264313 497.300232 374.096222 500.947144 374.096222 504.86911 L 374.096222 512 L 268.986786 512 L 163.877335 512 Z"/>
        <path id="path4" fill="#396b7a" fill-rule="evenodd" stroke="none" d="M 270.883789 512 C 269.181976 512 269.181976 512 269.661774 480.343597 C 269.925659 462.932556 270.429474 437.290863 270.781372 423.362061 C 271.13324 409.433228 271.623047 385.870605 271.869781 371.00061 C 272.162567 353.358368 272.019623 336.354004 271.458435 322.061523 C 270.985413 310.014984 270.43689 295.909607 270.23941 290.716248 C 269.880402 281.273804 269.880402 281.273804 272.399414 276.176971 C 273.784851 273.373688 275.554474 270.739685 276.331879 270.323639 C 277.109283 269.907593 277.63269 269.844849 277.495026 270.184204 C 277.357361 270.52359 276.320709 272.934265 275.191345 275.54129 C 273.359497 279.769867 273.138611 281.021423 273.144012 287.139954 C 273.147339 290.91217 273.543488 301.33374 274.024323 310.299011 C 274.505157 319.264282 274.895325 338.976807 274.891296 354.104645 C 274.887299 369.232483 274.576813 391.620087 274.201294 403.854858 C 273.825806 416.08963 273.308655 445.427429 273.052124 469.049957 C 272.585632 512 272.585632 512 270.883789 512 Z M 371.829224 512 C 369.777191 512 369.777191 512 370.241058 483.7659 C 370.496185 468.237152 371.010559 445.983551 371.384094 434.313446 C 371.75766 422.643372 372.517731 404.624878 373.073151 394.272369 C 373.628601 383.919861 374.389771 369.28949 374.764648 361.760376 C 375.139496 354.231293 375.45047 333.535919 375.455688 315.77063 C 375.461426 296.217163 375.720673 283.312256 376.11261 283.070007 C 376.468719 282.849915 377.079681 283.827393 377.470306 285.242157 C 377.860962 286.656921 378.542297 295.3927 378.984467 304.65506 C 379.48114 315.059845 379.622894 329.974182 379.355438 343.681396 C 379.11734 355.883575 378.29715 376.955444 377.532776 390.507813 C 376.768402 404.060181 375.941895 425.826813 375.696014 438.878113 C 375.249023 462.607697 375.249023 462.607697 378.266052 463.425812 C 380.211365 463.953308 384.443909 464.13205 390.181122 463.929016 C 396.918396 463.690582 400.949402 463.140167 406.781067 461.662323 C 412.996094 460.087311 414.647858 459.878174 415.336853 460.57901 C 415.806458 461.056702 415.88269 461.350922 415.506256 461.232819 C 415.129791 461.114746 414.051758 461.563568 413.110626 462.230194 C 412.169495 462.896851 409.047668 464.187317 406.173248 465.097931 C 403.298828 466.008545 398.233093 467.114777 394.915985 467.556183 C 391.574097 468.000916 386.699799 468.160767 383.984283 467.914673 C 381.28891 467.670441 378.115448 467.192932 376.932129 466.853577 C 374.780701 466.236542 374.780701 466.236542 374.780701 477.715332 C 374.780701 484.028625 374.578339 494.325409 374.330963 500.597046 C 373.881256 512 373.881256 512 371.829224 512 Z M 283.392731 485.305939 C 281.877106 485.305939 280.574768 484.782318 279.666992 483.807953 C 278.899445 482.98407 278.271423 481.46637 278.271423 480.435303 C 278.271423 479.225342 278.910858 478.057678 280.07489 477.142059 C 281.066803 476.361847 282.466827 475.72345 283.186096 475.72345 C 283.905334 475.72345 285.249847 476.479492 286.173859 477.403503 C 287.09787 478.327545 287.853912 479.799042 287.853912 480.673523 C 287.853912 481.548004 287.37442 482.948059 286.788391 483.784729 C 286.042145 484.850159 285.024719 485.305939 283.392731 485.305939 Z M 166.599182 426.784363 C 166.327316 427.537262 166.162674 421.638336 166.233307 413.675598 C 166.30394 405.71286 166.592728 399.339844 166.875076 399.513367 C 167.15741 399.68689 167.388428 399.374329 167.388428 398.818817 C 167.388428 398.263275 167.019974 397.685944 166.569656 397.535828 C 165.967697 397.335205 166.243164 394.918701 167.610016 388.409668 C 168.632523 383.540405 169.977203 374.628296 170.598221 368.605011 C 171.448288 360.360107 171.744507 350.223663 171.796814 327.589447 C 171.846039 306.295471 172.087082 297.451721 172.623123 297.273041 C 173.039368 297.134277 173.588516 297.564331 173.843445 298.228699 C 174.098389 298.893066 174.640259 302.525177 175.047623 306.300049 C 175.454987 310.074951 175.823364 322.249756 175.866241 333.355164 C 175.909134 344.460571 175.713013 361.401062 175.43045 371.00061 C 175.147873 380.60022 174.588623 391.996521 174.187653 396.325745 C 173.786697 400.654968 173.00972 406.199158 172.461044 408.646088 C 171.912384 411.093048 170.835037 415.097168 170.066956 417.544128 C 169.298889 419.991058 168.315643 422.763153 167.881973 423.704285 C 167.448318 424.645416 166.871063 426.031464 166.599182 426.784363 Z M 283.485687 421.650879 C 282.472382 421.650879 281.223755 420.927094 280.374481 419.847412 C 279.594238 418.85553 278.955872 417.369171 278.955872 416.544434 C 278.955872 415.719666 279.668762 414.375183 280.540039 413.556641 C 281.411316 412.738098 282.811371 412.06842 283.651215 412.06842 C 284.491089 412.06842 285.934296 412.824432 286.858307 413.748444 C 287.782349 414.672485 288.538361 416.07251 288.538361 416.85965 C 288.538361 417.64679 287.782349 419.046814 286.858307 419.970856 C 285.934296 420.894867 284.416626 421.650879 283.485687 421.650879 Z M 285.066376 355.257996 C 283.964355 355.257996 282.446655 354.641968 281.693726 353.889038 C 280.940826 353.136139 280.324799 351.791626 280.324799 350.901276 C 280.324799 350.010925 280.963165 348.470886 281.743408 347.478943 C 282.592682 346.399292 283.841309 345.675507 284.854614 345.675507 C 285.785522 345.675507 287.303223 346.431519 288.227234 347.35553 C 289.151276 348.279572 289.907288 349.624084 289.907288 350.343323 C 289.907288 351.062561 289.268921 352.462616 288.488708 353.454529 C 287.533325 354.669067 286.415771 355.257996 285.066376 355.257996 Z M 282.545105 300.500946 C 281.069061 300.500946 279.992828 299.952576 279.005554 298.697479 C 278.225311 297.705566 277.586945 296.361084 277.586945 295.709717 C 277.586945 295.05835 278.225311 293.713837 279.005554 292.721924 C 279.960907 291.507385 281.078461 290.918457 282.427856 290.918457 C 283.529907 290.918457 285.047607 291.534485 285.800507 292.287384 C 286.623779 293.110657 287.169434 294.568939 287.169434 295.945862 C 287.169434 297.294678 286.655121 298.700806 285.917725 299.368164 C 285.229309 299.991211 283.711609 300.500946 282.545105 300.500946 Z M 230.57988 275.604187 C 229.600311 275.860352 228.482239 275.363281 227.056122 274.037598 C 225.907227 272.969574 223.200943 269.323669 221.04216 265.935547 C 218.883377 262.547485 215.953278 257.50293 214.530838 254.725433 C 213.108383 251.947937 210.996674 247.055817 209.838135 243.854065 C 208.679596 240.652283 207.539703 236.14859 207.305023 233.845825 C 207.070358 231.543091 206.591507 229.470886 206.240952 229.240936 C 205.890396 229.010986 206.135498 228.618713 206.785614 228.369263 C 207.435745 228.119751 208.035477 227.999908 208.118362 228.102875 C 208.201248 228.205872 208.435715 229.06012 208.639374 230.001251 C 208.843063 230.942383 209.616226 233.714478 210.357544 236.161438 C 211.098846 238.608398 212.469223 242.458496 213.402802 244.717224 C 214.33638 246.975922 216.267624 250.980042 217.694427 253.615234 C 219.121246 256.250427 221.674561 260.716553 223.368454 263.539948 C 225.062363 266.363342 227.18988 269.44342 228.096268 270.384583 C 229.744247 272.095734 229.744247 272.095734 231.933914 269.624329 C 233.138214 268.265015 236.12561 264.598816 238.572571 261.477203 C 241.019516 258.35553 244.407608 254.778198 246.101669 253.527527 C 247.795715 252.276855 250.005142 251.245911 251.011505 251.236572 C 252.017868 251.227264 253.770721 252.001709 254.906738 252.957611 C 256.042755 253.913483 258.66983 256.951202 260.74469 259.708038 C 262.81955 262.464874 265.21228 265.89859 266.061829 267.338501 C 267.407532 269.619263 267.450409 269.896606 266.394653 269.491486 C 265.728119 269.235718 263.738617 267.80957 261.973511 266.322296 C 260.208405 264.835022 256.991516 262.80719 254.824875 261.81604 C 251.273697 260.191467 250.632965 260.095886 248.322479 260.845703 C 246.597977 261.405334 244.030182 263.493713 240.473923 267.228821 C 237.566895 270.282074 234.474335 273.331177 233.601578 274.004578 C 232.728821 274.678009 231.369049 275.397827 230.57988 275.604187 Z M 283.289856 274.670959 C 282.838623 274.957947 282.297546 274.914612 282.087463 274.574646 C 281.87735 274.23468 283.11972 272.151825 284.848297 269.946045 C 286.576843 267.740295 289.47998 263.746521 291.299713 261.070984 C 293.119446 258.395447 295.576324 255.238373 296.75946 254.055206 C 298.397064 252.417603 299.5159 251.904083 301.446106 251.904083 C 303.633057 251.904083 304.507538 252.44516 307.806671 255.839752 C 309.910461 258.004333 313.268646 261.890869 315.269318 264.47644 C 318.540039 268.7034 318.961029 269.031128 319.443726 267.726288 C 319.738983 266.928101 320.342438 262.819031 320.784729 258.594971 C 321.27951 253.869354 321.414337 247.221375 321.135193 241.31366 C 320.885681 236.032959 320.498901 231.096405 320.275665 230.343506 C 320.006897 229.437042 320.098846 229.205811 320.547852 229.659027 C 320.920776 230.035461 321.583282 231.883545 322.02005 233.765808 C 322.456848 235.648071 323.054169 240.422211 323.347473 244.374969 C 323.640747 248.327759 323.782745 253.25589 323.662994 255.326385 C 323.543274 257.396881 323.111816 261.247009 322.704254 263.882172 C 322.296692 266.517365 321.664673 269.844299 321.299805 271.275391 C 320.934906 272.706482 320.164948 274.058289 319.588745 274.279419 C 318.903687 274.542297 317.080109 273.235046 314.320038 270.502594 C 311.998444 268.204254 308.760864 265.3414 307.125427 264.140747 C 305.091949 262.647797 303.144562 261.863525 300.965271 261.659851 C 298.251068 261.406219 297.372711 261.661072 295.040771 263.378845 C 293.534943 264.488098 290.459564 267.365173 288.206604 269.7724 C 285.953613 272.179596 283.741089 274.383942 283.289856 274.670959 Z"/>
        <path id="path5" fill="#b95e27" fill-rule="evenodd" stroke="none" d="M 221.248962 198.21347 C 229.635391 205.72876 233.590347 209.056519 235.448334 210.457062 C 237.306335 211.857574 241.54541 214.369019 244.868515 216.037964 C 248.191605 217.706909 253.722092 219.878937 257.158478 220.864655 C 262.715088 222.458557 264.210022 222.615631 270.667847 222.284119 C 275.149506 222.054047 279.632294 221.370575 282.378204 220.498718 C 284.825165 219.721771 288.756653 217.940674 291.114899 216.54071 C 293.473114 215.140747 297.452148 212.283508 299.957214 210.191284 C 302.46225 208.099091 304.767883 206.284637 305.080872 206.159119 C 305.39386 206.033661 305.649933 208.110321 305.649933 210.773987 C 305.649933 215.36673 305.537262 215.714508 303.469086 217.504517 C 302.269623 218.542694 298.70224 221.76886 295.541565 224.673828 C 292.38092 227.578766 288.203125 230.731567 286.25766 231.679993 C 284.312195 232.628418 281.06134 233.716736 279.0336 234.09848 C 277.005798 234.480194 272.693695 234.756287 269.451111 234.712006 C 266.208496 234.667725 262.169434 234.386078 260.475372 234.086121 C 258.781342 233.786163 255.547256 232.938141 253.288528 232.201569 C 251.0298 231.465027 247.179688 229.928772 244.732742 228.787628 C 242.285782 227.646484 236.747055 224.39328 232.424454 221.558289 C 227.464325 218.305115 224.39447 216.679932 224.102386 217.152527 C 223.847855 217.564392 223.285919 216.696716 222.853653 215.224396 C 222.421387 213.752075 221.883499 209.322296 221.65834 205.380493 L 221.248962 198.21347 Z"/>
        <path id="path6" fill="#c0672f" fill-rule="evenodd" stroke="none" d="M 273.091736 203.30722 C 269.066925 203.30722 267.998016 203.065643 266.963135 201.922119 C 266.211151 201.091187 265.963318 200.303253 266.343719 199.952728 C 266.692444 199.631348 270.134857 199.205688 273.99353 199.006805 C 280.492249 198.671814 281.009277 198.738434 281.009277 199.910675 C 281.009277 200.60672 280.324738 201.65567 279.488037 202.241699 C 278.456879 202.963959 276.396301 203.30722 273.091736 203.30722 Z"/>
        <path id="path7" fill="#89421c" fill-rule="evenodd" stroke="none" d="M 269.930084 192.029388 C 265.220886 192.33786 263.531952 192.151062 260.133148 190.94577 C 257.87442 190.144806 254.178329 188.455536 251.919601 187.191864 C 249.660873 185.928192 246.466248 183.520142 244.82045 181.840637 C 243.174652 180.161133 241.668289 177.951111 241.472992 176.929474 C 241.133286 175.152435 241.218414 175.088196 243.438675 175.446808 C 244.715088 175.652954 247.453476 176.312927 249.523972 176.913361 C 251.594467 177.513824 256.368622 178.189484 260.133148 178.414886 C 263.897705 178.640228 270.876862 178.484894 275.642426 178.069641 C 281.121033 177.592255 286.309967 176.681915 289.754028 175.593933 C 292.749878 174.647522 296.012817 173.23465 297.005035 172.454193 C 298.579742 171.215515 298.861664 171.172363 299.223206 172.114532 C 299.451019 172.70816 299.44693 173.952759 299.214142 174.88031 C 298.981354 175.807831 297.177094 178.218048 295.204681 180.236359 C 293.232239 182.2547 289.924408 185.017456 287.853912 186.375854 C 285.783417 187.734253 282.183807 189.478149 279.854797 190.25119 C 277.525787 191.0242 273.059662 191.824402 269.930084 192.029388 Z"/>
        <path id="path8" fill="#9b4d1f" fill-rule="evenodd" stroke="none" d="M 272.117828 166.652802 C 270.043701 166.790955 267.531708 166.761139 266.535583 166.586517 C 265.539459 166.411865 264.221497 165.713257 263.606781 165.033997 C 262.543121 163.858643 262.696808 163.780792 266.786835 163.423065 C 269.150574 163.216278 272.640564 162.698975 274.542328 162.273438 C 276.444092 161.84787 279.024384 160.876801 280.276276 160.115479 C 282.417267 158.813477 282.528809 158.558563 282.154144 155.824921 C 281.935059 154.226471 280.838196 150.429962 279.716705 147.388275 C 278.595154 144.346588 277.468201 140.741852 277.21228 139.377777 C 276.847504 137.433258 276.948578 136.976959 277.680328 137.265137 C 278.193665 137.467255 279.508484 139.242065 280.602173 141.209167 C 281.695831 143.176178 282.668365 145.555634 282.763367 146.496765 C 282.858368 147.437927 283.445404 149.593994 284.067932 151.288025 C 284.690399 152.982056 285.364258 155.75415 285.565369 157.448181 C 285.890472 160.187073 285.714172 160.733795 283.973755 162.383942 C 282.897308 163.404602 280.637848 164.726074 278.952759 165.320618 C 277.26767 165.915161 274.191956 166.514618 272.117828 166.652802 Z"/>
        <path id="path9" fill="#2e2825" fill-rule="evenodd" stroke="none" d="M 237.901337 139.652161 C 236.107727 139.652161 234.929871 139.163544 233.784576 137.944458 C 232.554794 136.635406 232.08754 135.16629 231.783005 131.651123 C 231.385712 127.065491 231.385712 127.065491 228.81897 129.322968 C 226.536682 131.330231 226.252243 131.427612 226.252243 130.201447 C 226.252243 129.442993 227.185822 128.036865 228.326874 127.076721 C 229.467941 126.116577 231.546997 125.012909 232.947006 124.624084 C 234.347015 124.23526 236.416519 123.917145 237.545868 123.917145 C 238.675232 123.917145 240.700165 124.222961 242.045715 124.59671 C 243.391251 124.970551 245.239304 126.088623 246.152496 127.081451 C 247.565445 128.617615 247.608871 128.784851 246.443893 128.203857 C 245.690979 127.828369 244.215363 127.315552 243.164749 127.064209 C 241.254532 126.607239 241.254532 126.607239 242.385406 128.794128 C 243.145721 130.264374 243.405685 131.962189 243.178757 133.975433 C 242.993118 135.622375 242.295074 137.573364 241.627518 138.311005 C 240.842102 139.178864 239.527191 139.652161 237.901337 139.652161 Z M 295.001953 134.176453 C 293.567871 134.176453 292.115997 133.647308 291.29361 132.824951 C 290.550293 132.081604 289.78537 130.772552 289.593811 129.915985 C 289.402222 129.059357 289.163391 127.194824 289.063049 125.772522 C 288.880585 123.186554 288.880585 123.186554 287.195679 124.403595 C 286.268982 125.072968 285.261963 125.725342 284.957855 125.853271 C 284.653748 125.981201 284.755005 125.317474 285.182892 124.378357 C 285.610779 123.43924 287.429504 121.871521 289.224518 120.894562 C 291.592773 119.605591 293.500732 119.118256 296.178894 119.118256 C 298.532257 119.118256 300.48288 119.539825 301.561981 120.281677 C 302.492767 120.92157 303.716309 122.064789 304.281006 122.822205 C 304.845703 123.579559 305.429718 124.519073 305.578827 124.909973 C 305.727936 125.300873 305.26593 125.118805 304.552124 124.505402 C 303.838318 123.891998 302.22467 122.868256 300.966217 122.230438 C 299.707733 121.59259 298.544098 121.204681 298.38031 121.3685 C 298.216522 121.532257 298.39917 122.499054 298.786163 123.516876 C 299.173157 124.53476 299.489777 126.664978 299.489777 128.250763 C 299.489777 129.836548 299.010284 131.818542 298.424255 132.655212 C 297.673981 133.726379 296.661499 134.176453 295.001953 134.176453 Z"/>
        <path id="path10" fill="#3f2f2b" fill-rule="evenodd" stroke="none" d="M 220.275314 113.415558 C 218.557205 113.727875 217.959747 113.548798 217.601059 112.614075 C 217.340103 111.934021 217.664703 110.434601 218.347244 109.167175 C 219.011688 107.93338 220.843201 105.999054 222.417252 104.868622 C 223.991302 103.73822 226.961136 102.246857 229.016891 101.554474 C 231.681793 100.656891 234.770294 100.295532 239.7771 100.295532 C 245.489899 100.295532 247.276978 100.550812 249.359573 101.664459 C 251.523972 102.821838 251.952393 103.429413 252.13179 105.596069 C 252.308914 107.73526 252.082687 108.265442 250.762863 108.804199 C 249.89325 109.15918 245.177628 109.595276 240.283722 109.773285 C 233.744965 110.011108 230.206085 110.483612 226.936707 111.555176 C 224.489746 112.357147 221.492126 113.194336 220.275314 113.415558 Z"/>
        <path id="path11" fill="#3f2f2b" fill-rule="evenodd" stroke="none" d="M 310.360596 105.042114 C 309.594452 105.74646 308.372986 105.716522 303.938782 104.884705 C 299.29834 104.014221 297.255554 103.986176 290.546997 104.700928 C 286.193176 105.164764 281.732727 105.441376 280.634888 105.315552 C 279.176514 105.148376 278.461456 104.579407 277.980286 103.203125 C 277.454773 101.700012 277.597687 100.939514 278.687714 99.438568 C 279.439026 98.404053 281.50412 96.830353 283.276794 95.941437 C 285.615692 94.768555 288.114563 94.224426 292.385895 93.957977 C 296.778168 93.683929 299.17868 93.876587 301.845093 94.717102 C 303.810394 95.336609 306.57666 96.845184 307.992432 98.069489 C 309.420227 99.30426 310.731323 101.158752 310.936615 102.233948 C 311.164948 103.429993 310.944366 104.505463 310.360596 105.042114 Z"/>
        <path id="path12" fill="#ad5925" fill-rule="evenodd" stroke="none" d="M 200.242432 158.817108 C 199.412308 158.817108 198.303558 157.922211 197.486343 156.592621 C 196.73436 155.369141 195.811172 153.136078 195.434814 151.630249 C 195.058456 150.12442 194.419601 147.66037 194.015152 146.154541 C 193.610672 144.648712 192.820343 142.697845 192.258835 141.819305 C 191.697327 140.940735 189.952881 139.638458 188.382294 138.925354 C 185.526688 137.628845 185.526688 137.628845 188.040909 137.6138 C 189.770126 137.603455 191.220459 138.1586 192.686066 139.391846 C 193.858093 140.378021 195.255249 142.233704 195.790848 143.515594 C 196.326447 144.797485 196.973465 146.993652 197.228653 148.396057 C 197.483856 149.798401 198.578827 152.716858 199.661957 154.881439 C 201.545258 158.645203 201.570602 158.817108 200.242432 158.817108 Z M 325.885956 150.498108 C 325.323914 151.067688 324.816864 151.160492 324.557739 150.74118 C 324.327209 150.368195 324.440155 148.47287 324.808716 146.529419 C 325.177277 144.585876 325.287964 140.306824 325.054688 137.020294 C 324.654968 131.388763 324.724487 130.938873 326.262756 129.204529 C 327.160492 128.192352 328.495148 127.146545 329.228668 126.880432 C 330.480774 126.426178 330.469971 126.526367 329.051971 128.517761 C 328.221252 129.684418 327.364563 131.523865 327.148254 132.605499 C 326.931946 133.687073 327.151062 136.489807 327.635223 138.833832 C 328.345367 142.272064 328.349243 143.721863 327.655273 146.336243 C 327.182159 148.118591 326.385956 149.991455 325.885956 150.498108 Z"/>
        <path id="path13" fill="#48342e" fill-rule="evenodd" stroke="none" d="M 203.967743 144.914307 C 203.56958 145.046234 202.593933 144.4552 201.799637 143.600983 C 201.005341 142.746674 199.519638 139.949585 198.498108 137.385193 C 197.261688 134.281342 195.873642 132.107513 194.3461 130.882813 C 192.978531 129.786316 189.505951 128.904694 187.770325 128.700745 C 184.858093 128.358521 186.22702 128.358521 183.660126 119.118256 C 182.248337 114.036133 180.489059 106.951904 179.750626 103.37561 C 179.012192 99.799316 178.068802 93.509247 177.654221 89.397766 C 177.130371 84.20285 177.113007 80.556854 177.59726 77.44635 C 177.980515 74.984558 179.254974 71.018616 180.429367 68.633057 C 181.603775 66.247498 184.353409 62.077393 186.539673 59.366119 C 188.725937 56.654846 192.626495 52.422882 195.207565 49.961823 C 197.788635 47.500732 202.21048 43.617004 205.03389 41.331329 C 207.8573 39.045624 212.423126 35.716522 215.180176 33.933258 C 217.937241 32.149933 222.187866 29.786407 224.626022 28.680878 C 227.064163 27.575378 231.861923 25.920746 235.287689 25.003967 C 238.713455 24.087189 244.473099 22.970276 248.086899 22.521973 C 252.253571 22.005066 258.53891 21.863647 265.266632 22.135498 C 271.101654 22.371246 277.877838 23.018005 280.324799 23.572754 C 282.771759 24.127502 286.621887 25.163635 288.880585 25.875214 C 291.139313 26.586853 294.820709 28.068115 297.061432 29.166931 C 299.302185 30.265747 302.717773 32.706818 304.651642 34.591522 C 306.996063 36.876343 308.622955 39.238495 309.533783 41.680206 C 310.807159 45.093781 311.135925 45.425323 314.381073 46.568115 C 316.295776 47.242371 319.301361 48.784149 321.06012 49.994232 C 322.818909 51.204315 325.143341 53.590546 326.225525 55.296936 C 327.307709 57.003387 328.659637 59.817932 329.229828 61.551514 C 329.799988 63.285065 330.573822 66.859528 330.949463 69.49469 C 331.325104 72.129852 331.637634 77.212036 331.644043 80.78833 C 331.650452 84.364624 331.337463 90.062805 330.948517 93.450897 C 330.55957 96.838989 329.509399 106.57547 328.921692 110.904694 C 328.333954 115.233948 324.640656 121.576721 324.130432 121.171661 C 321.767792 119.295929 323.90979 121.217651 322.077057 114.327026 C 321.059387 110.500885 319.339203 109.129059 319.339203 106.392853 C 319.339203 104.662354 318.540253 101.806213 317.320068 99.174561 C 316.209534 96.77948 314.384003 91.053223 313.263306 86.449646 C 312.142609 81.846069 310.210938 76.018188 308.970642 73.498779 C 307.730347 70.979431 305.311584 67.391205 303.595642 65.525024 C 300.475739 62.131989 300.475739 62.131989 297.073792 63.852905 C 295.202698 64.799377 290.780884 66.541168 287.247467 67.723511 C 283.71405 68.905853 278.633545 70.250061 275.957397 70.710632 C 273.281311 71.171234 267.240021 71.548096 262.532379 71.548096 C 257.824707 71.548096 249.955688 71.131866 245.045639 70.623169 C 238.162109 69.910004 234.714706 69.869843 229.987457 70.447876 C 226.615494 70.860168 221.664642 71.848053 218.985565 72.643219 C 216.306473 73.438324 213.293457 74.749268 212.289963 75.556366 C 210.540649 76.963287 210.450531 77.362457 210.104385 85.237335 C 209.905807 89.754791 209.47406 96.376984 209.144928 99.953308 C 208.751068 104.233185 207.946228 107.913239 206.790207 110.719971 C 205.538651 113.758728 205.03389 116.229858 205.03389 119.318146 C 205.03389 123.339935 204.859863 123.181244 204.349426 125.962891 C 204.095917 127.34436 205.081116 130.81369 204.886383 137.744049 C 204.771347 141.837982 204.39537 144.772644 203.967743 144.914307 Z"/>
        <path id="path14" fill="#312727" fill-rule="evenodd" stroke="none" d="M 211.408005 76.405365 C 210.537415 77.27594 209.825119 77.74762 209.825119 77.453461 C 209.825119 77.159302 208.900528 77.054382 207.770447 77.220215 C 206.556 77.398438 205.016541 77.063599 204.005905 76.401398 C 202.9776 75.727631 202.296036 74.633728 202.296036 73.657043 C 202.296036 72.467285 203.165436 71.477875 205.547226 69.95694 C 207.335388 68.815094 210.33847 67.113403 212.220749 66.175476 C 214.103012 65.237518 218.261124 63.801636 221.460999 62.984619 C 224.660858 62.167633 229.466568 61.332123 232.14035 61.127869 C 235.506287 60.870819 239.506866 61.199219 245.145157 62.195404 C 249.624008 62.986786 256.368622 63.900391 260.133148 64.225616 C 264.069397 64.565674 269.44989 64.556702 272.795715 64.204437 C 275.995575 63.867523 280.919403 62.818756 283.737549 61.873779 C 286.555664 60.928833 291.213684 58.931885 294.088654 57.436188 C 296.963654 55.94043 300.594269 53.622406 302.156738 52.285004 C 303.929779 50.767334 305.405579 50.009949 306.083038 50.269897 C 306.932831 50.595978 307.065918 51.242157 306.695923 53.245941 C 306.38443 54.933228 305.317078 56.681305 303.563873 58.375641 C 302.101135 59.789276 301.055695 61.340332 301.240692 61.822449 C 301.431946 62.320831 301.053009 62.72818 300.362305 62.766663 C 299.694183 62.803925 296.683472 63.934509 293.671844 65.279144 C 290.660217 66.623718 285.27005 68.514496 281.693726 69.480835 C 277.544586 70.601929 272.389038 71.394592 267.448181 71.671082 C 262.50235 71.947815 256.444183 71.756592 250.678833 71.141724 C 245.714432 70.612335 239.13353 70.189697 236.054611 70.202606 C 232.975693 70.215454 228.304733 70.595001 225.674698 71.046021 C 223.044678 71.49704 219.114883 72.53125 216.941849 73.344269 C 214.768814 74.157318 212.27858 75.53479 211.408005 76.405365 Z"/>
        <path id="path15" fill="#699ca0" fill-rule="evenodd" stroke="none" d="M 129.157516 436.664032 C 125.903191 436.639252 121.623726 436.183594 119.647591 435.651489 C 117.671455 435.119354 114.899384 434.093201 113.487427 433.371155 C 112.075462 432.649078 109.441528 430.7547 107.634224 429.161407 C 105.826927 427.568115 103.114357 424.447571 101.606293 422.226868 C 100.098236 420.006134 97.967163 416.08078 96.870583 413.503845 C 95.774002 410.926941 94.512894 406.615051 94.06813 403.921875 C 93.568153 400.894409 93.424255 396.223785 93.691154 391.686432 C 93.928581 387.650116 94.444923 383.269653 94.838585 381.952026 C 95.253563 380.56308 95.370514 377.377686 95.116898 374.371552 C 94.742126 369.929382 94.941139 368.311646 96.506248 363.077911 C 97.510971 359.718079 99.257195 354.144958 100.386742 350.693176 C 101.634544 346.880005 103.133667 343.72403 104.206947 342.650757 C 105.178513 341.679199 106.737373 340.884277 107.671082 340.884277 C 108.951401 340.884277 109.291412 341.178711 109.054214 342.082092 C 108.881226 342.740845 108.306282 344.477203 107.776566 345.940613 C 107.246857 347.403992 106.84272 349.934021 106.878502 351.562836 C 106.918922 353.403137 107.772018 356.207214 109.13179 358.969299 C 110.515381 361.779785 112.504959 364.438538 114.542442 366.199768 C 116.314774 367.731812 119.612907 369.902832 121.871635 371.024231 C 124.130363 372.14563 127.826462 373.446106 130.08519 373.914185 C 132.343918 374.382202 136.656036 374.735596 139.667679 374.699463 C 143.539001 374.652985 146.275879 374.195068 149.008606 373.136597 C 151.134476 372.313171 154.265762 370.414215 155.967026 368.916687 C 157.668274 367.419189 159.751633 364.765686 160.596695 363.02002 C 161.441772 361.274353 162.277954 358.339508 162.45488 356.498169 C 162.651901 354.447754 163.07338 353.249146 163.54245 353.405365 C 163.963684 353.545654 164.924362 355.148926 165.677261 356.968201 C 166.861176 359.828918 167.046051 361.833313 167.04509 371.798462 C 167.044312 379.986969 167.270416 383.320984 167.826508 383.320984 C 168.37529 383.320984 168.234329 385.001831 167.35463 388.948273 C 166.664703 392.043304 166.102722 395.970398 166.105774 397.675171 C 166.109161 399.566315 165.126984 403.443329 163.586533 407.619385 C 162.197906 411.383942 160.103973 416.288177 158.933365 418.5177 C 157.762741 420.747192 155.25914 424.265869 153.369797 426.337006 C 151.480438 428.408112 148.548584 430.984131 146.854538 432.061493 C 145.160492 433.138855 141.816956 434.625305 139.424454 435.364685 C 136.441269 436.286682 133.215317 436.694916 129.157516 436.664032 Z"/>
        <path id="path16" fill="#396b7a" fill-rule="evenodd" stroke="none" d="M 134.561508 403.797821 C 130.217255 403.766479 124.857475 403.303802 122.650871 402.769653 C 120.444275 402.235535 116.649101 400.848877 114.217155 399.688232 C 111.586258 398.432617 107.894089 395.784302 105.100807 393.149261 C 101.787048 390.023224 99.64122 387.234589 97.805504 383.668579 C 96.370789 380.881531 95.470879 378.366943 95.798256 378.059814 C 96.124641 377.753571 96.537453 377.912811 96.715607 378.413666 C 96.893761 378.91452 98.495888 381.07431 100.275894 383.213196 C 102.055901 385.352112 105.146011 388.570984 107.142799 390.366272 C 109.139595 392.16153 112.96244 394.679932 115.638016 395.962646 C 118.313599 397.245361 122.658768 398.692383 125.293953 399.178284 C 127.929131 399.664124 132.495071 400.029053 135.440491 399.989166 C 138.385895 399.94931 142.514725 399.571472 144.615662 399.149536 C 146.716583 398.727631 150.031494 397.651733 151.982117 396.758728 C 153.932739 395.865723 156.696304 393.967468 158.123367 392.540405 C 159.55043 391.113342 161.299133 388.63205 162.009369 387.026428 C 162.719604 385.420807 163.647339 381.656067 164.070999 378.660339 C 164.494644 375.664612 164.689743 370.066772 164.504547 366.220764 C 164.319351 362.374725 163.8517 359.027771 163.465347 358.78302 C 163.078979 358.5383 162.557495 356.644012 162.306503 354.573517 C 161.850143 350.80896 161.850143 350.80896 163.198013 352.360229 C 163.939362 353.213379 165.108475 355.369446 165.796051 357.151459 C 166.813782 359.789124 167.045898 362.363708 167.044632 371.00061 C 167.043289 380.181152 166.829468 382.290466 165.456818 386.664581 C 164.147079 390.838196 163.252487 392.334229 160.324905 395.246765 C 158.374786 397.18689 155.305054 399.462189 153.503281 400.303009 C 151.701492 401.143829 148.479691 402.286957 146.343719 402.843323 C 143.914383 403.476074 139.502426 403.833496 134.561508 403.797821 Z"/>
        <path id="path17" fill="#302526" fill-rule="evenodd" stroke="none" d="M 234.123566 156.683105 C 231.111923 156.651794 227.482819 156.351898 226.058868 156.016602 C 224.634933 155.681305 222.609741 154.962128 221.558426 154.418488 C 220.507126 153.874847 218.479706 152.138 217.05307 150.558899 C 215.626419 148.979767 213.749451 146.110779 212.882019 144.183289 C 212.014603 142.255859 210.641449 138.414124 209.830612 135.646149 C 208.422516 130.839386 208.272797 130.625671 206.495972 130.886475 C 205.168579 131.081268 204.075668 130.631012 202.681122 129.314758 C 200.726639 127.470062 200.726639 127.470062 202.485275 125.860901 C 203.45253 124.97583 205.206314 123.523163 206.382568 122.63269 C 207.558823 121.742218 210.717941 120.270508 213.402832 119.362122 C 216.087723 118.453766 220.770218 117.250702 223.80838 116.688629 C 226.846542 116.126617 234.328476 115.47403 240.434891 115.238495 C 250.029434 114.868439 251.961655 114.97226 254.660492 116.00296 C 256.380646 116.659882 258.586761 118.202332 259.571686 119.436676 C 261.289917 121.590088 261.430115 121.637329 263.158112 120.645599 C 264.147156 120.077942 266.489227 119.579102 268.362701 119.537018 C 270.236176 119.494904 272.421417 119.699371 273.218781 119.991302 C 274.417603 120.430237 274.818695 120.159668 275.53595 118.42807 C 276.013 117.276337 277.174133 115.727692 278.116272 114.986633 C 279.05835 114.245544 281.826874 113.022217 284.268524 112.268066 C 286.710144 111.513916 292.44281 110.405304 297.007782 109.804443 C 302.051758 109.140564 308.050446 108.829102 312.299377 109.010529 C 318.571716 109.27832 319.627594 109.517059 322.562103 111.331329 C 324.361145 112.443634 325.938812 113.902496 326.067993 114.573303 C 326.216339 115.343567 325.790955 115.926849 324.913544 116.156281 C 324.061523 116.37912 323.348389 117.319946 323.069672 118.588928 C 322.819702 119.72702 322.900574 120.850739 323.249359 121.08606 C 323.622742 121.337921 323.675323 123.906372 323.377258 127.331818 C 323.098785 130.531677 322.361176 134.804626 321.738068 136.827271 C 320.933197 139.439941 319.659882 141.450043 317.340607 143.769287 C 314.755554 146.35437 313.0336 147.36969 309.067352 148.647583 C 305.611328 149.761047 302.448608 150.261322 298.865204 150.261322 C 296.008881 150.261322 292.22171 149.839874 290.44931 149.324829 C 288.67691 148.809723 285.968292 147.311127 284.430176 145.994537 C 282.892059 144.678009 280.681213 141.714142 279.517212 139.408234 C 278.35318 137.102295 277.149719 134.44281 276.842896 133.498199 C 276.536041 132.55365 275.950592 130.473846 275.54187 128.876404 C 275.001312 126.76358 274.25531 125.690979 272.804565 124.940765 C 271.707703 124.373566 270.012726 123.909515 269.037903 123.909515 C 268.06308 123.909515 266.086731 124.510834 264.646057 125.24585 C 262.026642 126.582153 262.026642 126.582153 261.707611 133.630524 C 261.468506 138.913513 261.007874 141.536011 259.868591 144.101166 C 259.032593 145.983429 257.518097 148.39798 256.503021 149.466827 C 255.487961 150.535645 253.383392 152.161438 251.826218 153.079712 C 250.269043 153.998016 246.880951 155.197205 244.297119 155.744629 C 241.713303 156.292084 237.135193 156.714355 234.123566 156.683105 Z M 237.429031 153.6828 C 242.765518 153.452209 244.943985 153.031677 247.96315 151.649475 C 250.056641 150.69104 252.777313 148.838257 254.009125 147.532166 C 255.240921 146.226074 256.761505 143.61377 257.388153 141.72702 C 258.117432 139.531342 258.553528 135.826263 258.59967 131.433533 C 258.661499 125.547974 258.474609 124.304077 257.287506 122.699951 C 256.526184 121.671173 255.006943 120.367401 253.911423 119.802734 C 252.475296 119.062439 249.722336 118.779327 244.043777 118.787903 C 239.712097 118.794464 232.627899 119.3591 228.301132 120.042694 C 223.97438 120.726288 219.136765 121.853577 217.550873 122.54776 C 215.507034 123.442413 214.533478 124.343628 214.207413 125.642792 C 213.954407 126.650909 213.925873 129.386993 214.144012 131.723053 C 214.362152 134.059082 215.238129 138.107819 216.090637 140.720245 C 217.316132 144.475677 218.376602 146.209564 221.156128 149.002319 C 223.713257 151.571594 225.493469 152.730682 227.686432 153.254059 C 229.344574 153.649811 233.72876 153.842712 237.429031 153.6828 Z M 299.512573 146.976074 C 305.076843 146.828094 306.621399 146.516998 310.000488 144.8638 C 312.528137 143.627136 314.675049 141.942291 315.928925 140.211334 C 317.010132 138.718811 318.266083 135.838226 318.720001 133.810028 C 319.224792 131.554321 319.393402 127.778809 319.154236 124.087128 C 318.939178 120.767731 318.366821 117.181793 317.882294 116.118439 C 317.397797 115.055054 316.275269 113.908936 315.387878 113.571533 C 314.500458 113.234161 310.945343 112.9599 307.487671 112.962158 C 304.029968 112.964355 298.244385 113.411835 294.630829 113.956543 C 291.017273 114.501282 286.730316 115.405304 285.104279 115.965515 C 283.478241 116.525757 281.388885 117.743073 280.461243 118.670715 C 279.059143 120.072815 278.780457 121.002991 278.809052 124.185547 C 278.827972 126.291077 279.519714 130.093445 280.346252 132.635193 C 281.172821 135.17691 282.585327 138.545441 283.485199 140.120758 C 284.385071 141.696106 285.967163 143.57724 287.000946 144.301056 C 288.03476 145.024902 289.804626 145.961914 290.93399 146.383362 C 292.067444 146.806305 295.910736 147.071838 299.512573 146.976074 Z"/>
        <path id="path18" fill="#d98143" fill-rule="evenodd" stroke="none" d="M 139.325439 374.225983 C 134.387619 374.3349 130.306229 374.067871 128.374039 373.509521 C 126.679985 373.019958 123.337883 371.61908 120.947136 370.396423 C 118.556381 369.173828 115.272774 366.807556 113.650223 365.138062 C 112.027672 363.468567 110.007027 360.670898 109.159897 358.920959 C 108.312775 357.171021 107.473785 354.220947 107.295471 352.365173 C 107.101006 350.3414 107.415321 347.437378 108.080849 345.108765 C 108.691132 342.973511 110.112686 336.29834 111.239876 330.275085 C 112.367065 324.251831 114.677437 312.811523 116.374039 304.852264 C 119.458763 290.380859 119.458763 290.380859 116.430824 283.976135 C 114.765465 280.453552 112.622063 275.171936 111.667709 272.239197 C 110.713356 269.306458 109.159058 263.243622 108.213707 258.766235 C 107.268364 254.288818 106.040245 246.67804 105.484566 241.853394 C 104.928886 237.028778 104.1446 229.84726 103.741699 225.89447 C 103.338799 221.941711 102.820343 215.89978 102.589584 212.468018 C 102.358826 209.036255 102.380295 205.390625 102.637299 204.366638 C 102.894302 203.342651 103.885483 201.723938 104.839928 200.769501 C 106.267334 199.342102 107.035858 199.095917 109.170761 199.382263 C 111.766251 199.730408 111.766251 199.730408 111.422859 193.707855 C 111.09314 187.92511 111.150002 187.614807 112.851006 185.913788 C 114.237106 184.527679 115.299477 184.142242 117.733742 184.142242 C 119.932327 184.142242 121.24649 184.543793 122.213867 185.511169 C 122.966774 186.264069 123.736794 186.880096 123.925026 186.880096 C 124.113251 186.880096 124.267258 185.788055 124.267258 184.453369 C 124.267258 182.789429 124.795357 181.498535 125.947304 180.346588 C 127.229782 179.064117 128.351151 178.666534 130.686035 178.666534 C 133.00293 178.666534 134.272095 179.110321 135.919373 180.496399 C 137.115433 181.502808 138.405624 183.010132 138.786469 183.846008 C 139.478928 185.365753 139.478928 185.365753 141.968918 183.66983 C 143.88031 182.368011 145.015579 182.061768 146.854538 182.351929 C 148.341827 182.586578 149.833023 183.451813 150.787384 184.633881 C 151.632858 185.681061 152.488098 187.461884 152.687912 188.591248 C 152.887711 189.720612 153.477051 193.724731 153.997528 197.489258 C 154.518021 201.253815 155.417923 207.105957 155.997314 210.49408 C 156.576721 213.882172 157.540192 220.350342 158.138382 224.867798 C 158.736588 229.385254 159.70755 234.563263 160.296097 236.374542 C 160.884628 238.185791 162.078964 240.49588 162.95015 241.508026 C 163.82132 242.520172 164.662048 243.194275 164.818405 243.006042 C 164.974762 242.817841 165.662552 240.542755 166.346832 237.950348 C 167.031113 235.357941 168.487183 231.44342 169.582535 229.251404 C 170.735779 226.943573 173.029236 223.957642 175.030991 222.157898 C 178.199677 219.30896 178.785629 219.049866 182.059097 219.049866 C 184.907043 219.049866 185.931702 219.370667 187.11853 220.634003 C 188.129791 221.710449 188.606781 223.087708 188.606781 224.931213 C 188.606781 226.678741 187.707565 229.464325 186.080109 232.758423 C 184.69043 235.571198 182.97551 239.56662 182.269165 241.637146 C 181.562836 243.707642 180.681229 248.327759 180.310059 251.904083 C 179.938873 255.480408 179.215622 260.789795 178.702805 263.702789 C 178.189987 266.615784 176.7435 271.228149 175.488373 273.952515 C 174.233276 276.67688 172.00235 280.453674 170.530807 282.345459 C 169.05925 284.237183 166.210175 287.533203 164.199524 289.66983 C 160.543793 293.554688 160.543793 293.554688 160.554382 312.941589 C 160.560211 323.60437 160.901825 336.948608 161.313538 342.595398 C 161.725235 348.242249 162.105484 354.282501 162.158524 356.018219 C 162.2146 357.853516 161.728958 360.278076 160.99794 361.812408 C 160.30658 363.263489 158.857574 365.56604 157.777908 366.92923 C 156.698257 368.292419 153.875824 370.452789 151.505829 371.730042 C 147.406448 373.939331 146.813721 374.060791 139.325439 374.225983 Z"/>
        <path id="path19" fill="#b85c27" fill-rule="evenodd" stroke="none" d="M 138.103714 374.361755 C 134.446426 374.328064 130.068085 373.914246 128.374039 373.442139 C 126.679985 372.970001 123.599907 371.721802 121.529404 370.668396 C 119.4589 369.614929 116.821236 368.033936 115.667915 367.155029 C 114.514595 366.276123 112.571251 364.164948 111.349365 362.463501 C 110.12748 360.762085 108.664917 358.011627 108.099228 356.35141 C 107.533539 354.691223 107.166824 351.994965 107.284309 350.359741 C 107.49791 347.386658 107.49791 347.386658 108.668999 351.164642 C 109.313103 353.242523 110.798813 356.390015 111.970589 358.159058 C 113.142365 359.928131 115.586647 362.466034 117.402321 363.798859 C 119.218002 365.131714 122.394661 366.970093 124.461571 367.884155 C 126.528473 368.798248 130.179382 369.950378 132.574692 370.444489 C 134.970016 370.938599 138.93187 371.315674 141.37883 371.282471 C 144.476868 371.240417 147.178818 370.678162 150.276855 369.430847 C 153.573868 368.103455 155.587433 366.701233 158.053238 364.015533 C 159.883301 362.022278 161.176819 361.007446 160.92775 361.760376 C 160.678665 362.513306 159.730316 364.262695 158.820297 365.647949 C 157.910278 367.033203 155.846725 369.073975 154.234634 370.182983 C 152.622528 371.292053 149.829742 372.699707 148.028427 373.311188 C 145.821701 374.060242 142.584091 374.402954 138.103714 374.361755 Z M 147.618439 280.944672 C 147.285675 281.15033 146.592651 280.321472 146.0784 279.102783 C 145.461746 277.641449 145.145264 274.090271 145.148911 268.673401 C 145.153854 261.347046 145.335266 260.093933 146.828491 257.072174 C 147.749207 255.208954 150.382492 251.767151 152.680222 249.423737 C 154.977951 247.080322 158.07225 244.600677 159.556442 243.913391 C 161.040619 243.226135 162.4431 242.406982 162.67305 242.093109 C 162.903 241.779205 163.262299 241.968384 163.471481 242.513489 C 163.716492 243.152008 161.826981 245.357788 158.160736 248.713196 C 154.80896 251.780762 151.891998 255.124786 151.064331 256.848572 C 150.291397 258.458313 149.335999 262.385376 148.941223 265.575378 C 148.546448 268.765381 148.223465 273.444336 148.223465 275.973022 C 148.223465 278.50177 147.951202 280.739014 147.618439 280.944672 Z M 115.711472 240.74234 C 113.658081 241.029144 113.658081 241.029144 116.3395 238.670197 C 119.02092 236.311249 119.02092 236.311249 117.165176 228.536133 C 116.144516 224.259827 114.440086 216.163361 113.377541 210.544037 C 112.315002 204.924683 111.635445 199.619751 111.867401 198.755249 C 112.277229 197.227905 112.333893 197.24884 113.871979 199.494568 C 114.957138 201.078979 115.880119 204.24762 116.807465 209.572174 C 117.551422 213.84375 118.801048 220.880798 119.584404 225.210022 C 120.367767 229.539246 121.257126 233.351227 121.560768 233.681061 C 121.870537 234.017578 123.812515 233.576324 125.985504 232.675659 C 129.773926 231.105438 129.852249 231.017944 129.586456 228.653625 C 129.437027 227.32431 128.474503 221.924622 127.447533 216.654236 C 126.420563 211.38385 124.881889 202.392944 124.028267 196.674347 C 123.174644 190.955811 122.759636 186.452148 123.106033 186.666229 C 123.452431 186.88031 123.995064 186.636047 124.31189 186.123413 C 124.731209 185.444946 125.183655 185.899078 125.974831 187.792633 C 126.572617 189.223358 127.651863 194.146423 128.373138 198.732849 C 129.094437 203.319244 130.191116 210.613831 130.810211 214.943085 C 131.429306 219.272308 132.156677 224.27298 132.426575 226.055695 C 132.696487 227.838409 133.094025 229.473694 133.309998 229.689667 C 133.52597 229.90564 135.473602 229.619873 137.638092 229.054688 C 139.802551 228.489441 141.858902 227.741577 142.207733 227.392761 C 142.597092 227.003387 142.304688 223.750641 141.450455 218.968506 C 140.68512 214.684021 139.45137 206.558411 138.708817 200.911591 C 137.966248 195.264771 137.19458 188.488586 136.994003 185.853394 C 136.629333 181.062164 136.629333 181.062164 137.977142 182.773315 C 138.718445 183.714447 139.556076 184.79248 139.838547 185.168945 C 140.121017 185.54538 140.375977 186.777435 140.405121 187.906799 C 140.43425 189.036163 140.987122 193.194275 141.633698 197.147034 C 142.280273 201.099823 143.498322 209.393646 144.340469 215.577789 C 145.871658 226.821716 145.871658 226.821716 148.914169 227.835876 C 151.494705 228.696075 151.751205 228.934601 150.603424 229.406708 C 149.859131 229.712891 146.324066 230.627167 142.747757 231.438416 C 139.171432 232.249695 134.089294 233.681396 131.454117 234.619995 C 128.818939 235.558563 124.66082 237.255554 122.213867 238.391022 C 119.766914 239.52652 116.840836 240.584595 115.711472 240.74234 Z"/>
    </g>
</svg>
