<?xml version="1.0" encoding="UTF-8"?>
<!-- Generated by Pixelmator Pro 3.7 -->
<svg width="512" height="512" viewBox="0 0 512 512" xmlns="http://www.w3.org/2000/svg">
    <g id="arms-crossed">
        <path id="Shape" fill="#699ca0" fill-rule="evenodd" stroke="none" d="M 133.962784 512.24054 C 134.648041 500.832245 134.86055 485.815582 134.877136 471.509979 C 134.901932 450.135742 135.082001 445.230896 135.887436 443.991058 C 136.657166 442.806213 136.684921 442.365417 136.016739 441.937622 C 135.548767 441.638031 134.304916 439.852844 133.252594 437.970551 C 132.200287 436.088226 130.246124 432.238037 128.910034 429.414551 C 127.573936 426.591095 125.467316 421.970856 124.228668 419.1474 C 122.990013 416.323914 121.032646 411.39566 119.87896 408.19574 C 118.725273 404.995819 116.529442 398.219482 114.999336 393.137207 C 113.469223 388.054993 110.845337 377.73645 109.16848 370.207214 C 107.491615 362.677948 105.328918 351.12738 104.362488 344.539276 C 103.396057 337.951172 102.414108 327.535095 102.180382 321.392517 C 101.919037 314.52417 102.061081 307.408691 102.549301 302.911621 C 102.985931 298.889709 104.116249 292.711792 105.061104 289.182861 C 106.005959 285.65387 108.013077 280.394592 109.521378 277.495422 C 111.029671 274.596252 114.074516 270.088989 116.287689 267.479187 C 118.50087 264.869324 122.267792 261.069946 124.658623 259.036133 C 127.049461 257.002258 131.931732 253.430664 135.508133 251.099152 C 139.084534 248.767639 145.875824 244.735718 150.599869 242.139282 C 155.323929 239.542816 163.984619 234.960693 169.845825 231.956726 C 180.502579 226.495117 180.502579 226.495117 185.213364 215.533203 C 189.222626 206.203735 190.432831 204.061066 193.340027 201.14502 C 196.75592 197.718719 196.75592 197.718719 197.10466 204.614532 C 197.405991 210.572815 197.696579 211.875763 199.241806 214.197235 C 200.225418 215.675079 203.614914 219.348206 206.773987 222.359924 C 209.933075 225.371643 216.120056 230.299866 220.522812 233.311584 C 224.925568 236.323303 231.960098 240.943512 236.15509 243.578735 C 240.406937 246.249725 245.798996 250.370483 248.339249 252.890228 C 251.100037 255.628632 254.379959 259.924988 256.660767 263.790314 C 258.731323 267.299438 260.377869 270.347595 260.319794 270.564148 C 260.261719 270.780731 260.646729 271.355011 261.175415 271.840454 C 261.970306 272.570313 262.136597 272.518738 262.136597 271.542358 C 262.136597 270.892944 262.705841 269.725769 263.401581 268.948547 C 264.097321 268.171326 266.219971 264.917389 268.118561 261.717407 C 270.017151 258.517456 273.357239 252.665222 275.541016 248.712341 C 277.724792 244.75946 280.351685 239.523193 281.37854 237.076202 C 282.405396 234.629242 283.750488 230.164917 284.367615 227.155609 C 284.984741 224.14624 285.640839 218.447998 285.825592 214.492767 C 286.010345 210.537476 286.393677 206.718201 286.67749 206.00531 C 287.11911 204.896027 287.505188 205.195007 289.355804 208.078888 C 290.545044 209.93219 292.413483 213.441559 293.507813 215.877533 C 294.602173 218.313477 296.36676 222.664978 297.429108 225.547516 C 299.360718 230.788483 299.360718 230.788483 307.272186 233.669434 C 311.623505 235.253967 319.649872 238.330933 325.108582 240.507019 C 330.567291 242.683197 338.217957 245.87616 342.110046 247.602478 C 346.002167 249.328796 351.297363 252.144501 353.877197 253.859528 C 356.457031 255.574646 360.516174 259.082275 362.897552 261.654419 C 365.278931 264.226563 368.654175 268.8573 370.398071 271.945068 C 372.141968 275.032837 374.983978 281.31012 376.713623 285.894653 C 378.443268 290.479126 382.328369 302.160278 385.347168 311.852692 C 388.365967 321.545105 393.173218 336.945862 396.029938 346.076599 C 398.886688 355.207336 402.578156 368.009827 404.233246 374.526611 C 405.888336 381.043335 407.739105 390.129822 408.346069 394.718689 C 409.077148 400.246033 409.312225 405.256927 409.042572 409.564697 C 408.818695 413.141083 408.141907 417.915344 407.538574 420.174103 C 406.935272 422.432861 405.313568 426.435394 403.934784 429.068573 C 402.53009 431.751221 399.622253 435.691803 397.321014 438.031311 C 395.062256 440.327698 391.828094 443.084564 390.134003 444.157745 C 388.439911 445.230896 385.051758 446.865356 382.604736 447.789948 C 378.767059 449.23996 376.672302 449.515106 367.36203 449.792084 L 356.56842 450.113129 L 356.608795 481.003632 L 356.649139 511.894196 L 245.305969 512.067322 L 133.962784 512.24054 Z M 247.519562 458.455383 C 248.970825 458.190979 253.700394 457.112457 258.029724 456.058716 C 262.35907 455.004913 271.445496 452.243652 278.221832 449.922546 C 284.998169 447.60144 294.084595 444.122437 298.41394 442.191406 C 305.087585 439.214752 306.839294 438.703644 309.925049 438.832611 C 312.045166 438.921234 314.36026 438.573303 315.470398 437.999237 C 316.518524 437.457214 318.391266 435.857544 319.632019 434.444427 C 320.872772 433.031311 322.772461 429.984863 323.853577 427.674591 C 324.934692 425.364319 326.198364 421.658783 326.661743 419.440125 C 327.125122 417.221466 327.504242 412.166748 327.504242 408.207428 C 327.504242 403.471649 327.067291 399.25238 326.227081 395.875122 C 325.524628 393.051666 324.114655 388.893433 323.093811 386.634674 C 322.072937 384.375916 320.462921 381.628967 319.515961 380.530396 C 317.847107 378.594299 317.533508 378.5159 309.30191 377.976563 C 304.631165 377.670502 293.879272 377.101563 285.408844 376.712341 C 276.433197 376.299866 263.582977 375.156891 254.60733 373.972717 C 246.136917 372.855164 233.970322 371.268372 227.57045 370.446533 C 221.170578 369.624695 212.70015 368.926605 208.747299 368.895264 C 204.341141 368.860291 198.954666 369.334167 194.826172 370.119934 C 188.092072 371.401672 188.092072 371.401672 188.50174 373.542328 C 188.727051 374.719727 189.36293 377.170593 189.91478 378.988739 C 190.466629 380.806885 191.127411 383.871948 191.383179 385.799988 C 191.677841 388.021179 192.394623 389.851868 193.339737 390.796997 C 194.160095 391.61731 196.345291 392.981201 198.195786 393.827789 C 200.046249 394.674377 202.1763 395.455933 202.92923 395.564575 C 203.682159 395.673157 207.762695 396.986572 211.99707 398.483215 C 216.231461 399.979858 222.699783 402.911346 226.371109 404.99762 C 230.04245 407.083893 238.044693 411.005127 244.153885 413.711426 C 255.059616 418.542572 255.269714 418.675812 255.71315 421.03952 C 255.961563 422.363617 255.960754 426.349915 255.711334 429.897919 C 255.41568 434.103973 254.550476 438.557251 253.225098 442.694824 C 252.037262 446.403015 249.982086 450.865448 248.280762 453.430634 C 246.679413 455.845001 245.259338 458.071442 245.125061 458.378265 C 244.990768 458.685059 246.068298 458.719788 247.519562 458.455383 Z M 321.714966 374.656311 C 333.097778 374.689575 341.289307 374.985474 347.262115 375.335327 C 353.234924 375.685181 361.243347 376.607513 365.058563 377.38501 C 368.873779 378.162415 373.5354 379.225067 375.417725 379.746368 C 377.300049 380.26767 379.353485 380.721741 379.980896 380.755432 C 380.608368 380.789063 381.224396 380.550964 381.349854 380.226257 C 381.475372 379.90155 382.502075 379.159058 383.63147 378.576172 C 384.760834 377.993317 386.526459 376.630737 387.555054 375.548248 C 388.583618 374.465759 389.609528 372.658478 389.834808 371.532104 C 390.079895 370.30658 389.789978 368.348389 389.112915 366.656219 C 388.079071 364.072388 388.07431 363.648804 389.057709 361.74707 C 389.649689 360.602356 390.134003 358.794952 390.134003 357.730652 C 390.134003 356.666321 389.684265 355.153412 389.134552 354.368622 C 388.584839 353.583801 387.182709 352.54718 386.018707 352.065002 C 384.476898 351.426422 384.028839 350.88974 384.368256 350.088379 C 384.624542 349.483398 384.977448 348.332458 385.152466 347.530762 C 385.361633 346.572784 384.783386 345.303894 383.465485 343.828888 C 381.505524 341.635345 381.337921 341.586243 376.043304 341.656616 C 370.626373 341.728546 370.626373 341.728546 370.851532 337.027649 C 371.047333 332.940002 370.882538 332.132599 369.588074 330.838074 C 368.469116 329.719116 367.469574 329.409546 365.563202 329.59137 C 364.168274 329.724396 361.2211 330.908936 359.013916 332.223755 C 356.806732 333.538574 351.150452 338.310547 346.444458 342.828064 C 341.738434 347.345612 335.844513 353.813965 333.346832 357.202118 C 330.849121 360.590302 327.210175 365.903564 325.260254 369.009369 L 321.714966 374.656311 Z"/>
        <path id="path1" fill="#3d717e" fill-rule="evenodd" stroke="none" d="M 196.768936 476.288239 C 188.48674 476.442535 179.400299 476.276123 176.576828 475.918518 C 173.753357 475.560913 168.844711 474.636505 165.668747 473.864288 C 162.492783 473.092072 157.625626 471.41214 154.852859 470.131042 C 152.080078 468.849884 147.759857 466.367554 145.25235 464.614716 C 142.744858 462.861816 139.36972 460.308044 137.752029 458.939575 C 134.810806 456.451447 134.810806 456.451447 134.952927 450.796448 C 135.031097 447.686218 135.333237 444.76004 135.624344 444.293884 C 135.988693 443.71051 136.437454 443.659668 137.064331 444.130859 C 137.565201 444.507294 141.193161 448.063263 145.126434 452.032928 C 150.909195 457.869171 153.264282 459.733002 157.432098 461.771698 C 160.266953 463.158356 164.884323 464.811859 167.692947 465.446136 C 171.255737 466.250732 175.801926 466.590485 182.730804 466.570099 C 188.192993 466.554016 196.66626 466.032349 201.560272 465.410828 C 206.454285 464.789307 211.204025 464.041748 212.115234 463.749634 C 213.128082 463.424896 214.941238 463.603394 216.780594 464.208923 C 218.992798 464.937256 221.63446 465.096527 226.759995 464.810791 C 230.593903 464.597046 235.333221 463.930206 237.291794 463.328949 C 239.250381 462.727692 241.714508 461.521576 242.767624 460.648712 C 244.092499 459.550598 247.318344 458.475006 253.238373 457.157532 C 257.944153 456.110291 262.256378 455.214966 262.821075 455.167969 C 263.616608 455.101746 263.894318 456.07074 264.054474 459.471619 C 264.192902 462.411682 263.966919 464.150208 263.369995 464.737579 C 262.879852 465.219818 258.320618 466.721313 253.238373 468.074127 C 248.156128 469.427002 241.071777 471.131683 237.495377 471.862274 C 233.918976 472.592926 226.680618 473.824524 221.410141 474.599243 C 214.849152 475.563599 207.079056 476.096191 196.768936 476.288239 Z M 270.917114 462.782776 C 268.658752 463.085724 268.324738 462.938416 268.007324 461.499451 C 267.81012 460.605347 267.551575 458.487762 267.4328 456.793701 C 267.216858 453.713531 267.216858 453.713531 279.221893 449.568542 C 285.824646 447.288788 294.869263 443.80423 299.321014 441.825073 C 305.623444 439.023163 307.864868 438.325378 309.446869 438.672852 C 310.564362 438.918304 312.158295 439.793701 312.988922 440.618134 C 313.81955 441.442596 316.152374 442.825348 318.172943 443.690918 C 320.193542 444.556519 324.043732 445.728638 326.728943 446.295776 C 329.812408 446.94696 332.998108 447.16626 335.375763 446.89093 C 337.446289 446.651215 339.833435 446.458344 340.68045 446.46228 C 341.527496 446.466248 342.669006 446.533661 343.217163 446.612061 C 343.765259 446.690491 344.074524 446.97998 343.904358 447.25528 C 343.734192 447.53064 345.672852 448.102905 348.212463 448.526978 C 350.752075 448.95105 353.676971 449.468964 354.71225 449.677856 C 356.575287 450.053772 356.594574 450.11322 356.594574 455.479126 C 356.594574 460.900574 356.594574 460.900574 350.947632 460.888702 C 347.841797 460.882172 342.374542 460.569153 338.798157 460.193115 C 335.221741 459.817017 328.617493 458.892456 324.12204 458.138489 C 319.626587 457.384552 312.782135 455.989929 308.91214 455.039368 C 301.875763 453.311066 301.875763 453.311066 295.866852 455.320923 C 292.561981 456.426331 286.170288 458.480499 281.663147 459.885712 C 277.156006 461.290894 272.320282 462.594574 270.917114 462.782776 Z"/>
        <path id="path2" fill="#396b7a" fill-rule="evenodd" stroke="none" d="M 343.567566 447.751129 C 350.745911 448.949982 353.676971 449.468964 354.71225 449.677856 C 356.575287 450.053772 356.594574 450.11322 356.594574 455.479126 C 356.594574 460.900574 356.594574 460.900574 350.947632 460.888702 C 347.841797 460.882172 342.374542 460.569153 338.798157 460.193115 C 335.221741 459.817017 328.617493 458.892456 324.12204 458.138489 C 319.626587 457.384552 312.791046 455.992157 308.931946 455.044281 C 301.915375 453.320801 301.915375 453.320801 293.490997 456.103333 C 288.857574 457.633698 281.98645 459.77597 278.221832 460.863892 C 274.457214 461.951782 270.530029 463.027008 269.49472 463.253235 C 267.612427 463.664551 267.612427 463.664551 267.612427 487.95047 C 267.612427 512.236389 267.612427 512.236389 265.901215 512.236389 C 264.190033 512.236389 264.190033 512.236389 264.190033 489.70462 C 264.190033 477.312134 264.018768 466.726471 263.809418 466.180939 C 263.486633 465.339752 262.628845 465.41864 258.162476 466.699982 C 255.265991 467.530975 249.661972 469.022125 245.709122 470.013733 C 241.756256 471.005249 235.749954 472.286499 232.361786 472.860931 C 228.973633 473.435303 222.967331 474.364075 219.014465 474.924744 C 215.061615 475.485504 206.31189 476.151978 199.570663 476.405792 C 191.516464 476.709106 184.475662 476.579468 179.036316 476.02771 C 174.483658 475.565918 168.294785 474.565308 165.283279 473.804199 C 162.271774 473.04306 157.558624 471.381165 154.809616 470.111023 C 152.060623 468.840912 147.759857 466.367554 145.25235 464.614716 C 142.744858 462.861816 139.36972 460.308044 137.752029 458.939575 C 134.810806 456.451447 134.810806 456.451447 134.952927 450.796448 C 135.031097 447.686218 135.333237 444.76004 135.624344 444.293884 C 135.988693 443.71051 136.437454 443.659668 137.064331 444.130859 C 137.565201 444.507294 141.193161 448.063263 145.126434 452.032928 C 150.909195 457.869171 153.264282 459.733002 157.432098 461.771698 C 160.266953 463.158356 164.73317 464.764648 167.35704 465.341278 C 169.980911 465.917847 174.907288 466.494263 178.30455 466.622162 C 181.701813 466.750092 187.862823 466.610382 191.995697 466.311707 C 196.128555 466.013092 202.435425 465.324646 206.010956 464.78183 C 209.586487 464.239075 212.973953 463.682739 213.538651 463.545593 C 214.103333 463.408447 214.720612 462.526184 214.91037 461.585022 C 215.100128 460.64389 216.875198 457.409729 218.85498 454.39801 C 220.834747 451.386292 223.411713 446.458069 224.581558 443.44635 C 225.751419 440.434631 227.313705 435.044373 228.053314 431.467987 C 229.085083 426.478882 229.331635 423.133392 229.112671 417.093964 C 228.955704 412.764618 228.588531 408.683441 228.296753 408.024628 C 227.910324 407.152161 228.074478 406.826782 228.901093 406.826782 C 229.553436 406.826782 230.466187 407.856476 231.047806 409.248444 C 231.604324 410.580383 232.250717 414.578857 232.484238 418.134003 C 232.736664 421.976868 232.58548 426.555908 232.111359 429.426819 C 231.672745 432.082703 230.357666 437.24762 229.188965 440.90448 C 228.020264 444.561279 226.139481 449.401337 225.009445 451.660095 C 223.879425 453.918884 221.855591 457.2742 220.512054 459.116425 C 219.168518 460.958588 217.511902 462.611633 216.830673 462.789764 C 216.149445 462.967896 215.592072 463.366882 215.592072 463.676361 C 215.592072 463.98584 217.027603 464.454346 218.78212 464.717468 C 220.536636 464.98056 224.617844 465.015442 227.851456 464.794952 C 231.085068 464.574493 235.333221 463.908447 237.291794 463.314911 C 239.250381 462.721375 241.714508 461.521576 242.767624 460.648712 C 244.108337 459.537445 247.247528 458.505554 253.238373 457.206818 C 257.944153 456.186676 268.155365 453.227509 275.929932 450.63092 C 283.704498 448.034332 293.9711 444.18158 298.744598 442.069183 C 305.523499 439.069366 307.867584 438.325989 309.451172 438.673828 C 310.566315 438.918762 312.158295 439.793701 312.988922 440.618134 C 313.81955 441.442596 316.152374 442.825348 318.172943 443.690918 C 320.193542 444.556519 324.043732 445.728638 326.728943 446.295776 C 329.414154 446.862854 333.286469 447.193573 335.334137 447.030731 C 338.892395 446.747772 339.24408 446.537292 343.283051 442.274139 C 345.730743 439.690552 348.527283 435.778137 349.928925 432.976379 C 351.259918 430.315857 352.919159 425.730957 353.61615 422.787659 C 354.468506 419.188232 354.883392 414.840759 354.883392 409.508759 C 354.883392 404.045929 354.497101 400.109039 353.640961 396.845917 C 352.957611 394.241425 351.314056 389.898071 349.988586 387.194 C 348.663147 384.489929 346.58844 381.131958 345.378113 379.731812 C 343.177521 377.186127 343.177521 377.186127 335.203125 377.157959 C 330.817169 377.142517 325.21167 377.530762 322.746429 378.020752 C 320.281189 378.510742 317.431488 378.702698 316.413696 378.447205 C 314.563202 377.982788 314.563202 377.982788 316.901031 376.502563 C 318.80307 375.298309 320.519592 374.976807 326.109467 374.778076 C 329.888306 374.643738 338.678375 374.872864 345.642914 375.28717 C 352.607483 375.701599 361.231903 376.625946 364.808319 377.341339 C 368.384705 378.056732 374.527039 379.442596 378.457947 380.421082 C 382.388824 381.399475 386.393036 382.73584 387.35614 383.390625 C 389.1073 384.581238 389.1073 384.581238 387.396088 384.776215 C 386.454926 384.883453 382.142731 384.04425 377.813385 382.911285 C 373.48407 381.778381 366.245728 380.229187 361.728149 379.468719 C 357.210602 378.708191 352.189789 378.084351 350.570801 378.082336 C 347.627197 378.078705 347.627197 378.078705 350.672546 382.356689 C 352.347473 384.709595 354.516907 388.607361 355.493469 391.018372 C 356.470032 393.429413 357.656311 397.279602 358.129669 399.574341 C 358.602966 401.869141 358.97699 406.826782 358.960785 410.591431 C 358.941132 415.150269 358.429504 419.56955 357.428711 423.824097 C 356.602295 427.337433 354.977325 432.199982 353.817719 434.629791 C 352.63916 437.099152 349.913849 440.966919 347.638428 443.399353 L 343.567566 447.751129 Z M 277.806885 483.488342 C 276.88501 483.488342 275.446198 483.00885 274.609497 482.422821 C 273.48288 481.633667 273.088257 480.6698 273.088257 478.707062 C 273.088257 477.210419 273.556427 475.588684 274.163849 474.981232 C 274.755432 474.389679 276.247772 473.90564 277.480164 473.90564 C 278.781616 473.90564 280.195679 474.430328 280.853638 475.157379 C 281.476685 475.845825 281.98645 477.492188 281.98645 478.815918 C 281.98645 480.27829 281.49527 481.667236 280.734741 482.35556 C 280.046295 482.978577 278.728729 483.488342 277.806885 483.488342 Z M 176.0681 413.569519 C 175.281372 413.748413 175.112457 413.425842 175.405731 412.304413 C 175.622208 411.476563 176.622025 409.612061 177.627518 408.161133 C 178.632996 406.710236 181.04126 404.023529 182.979187 402.190735 C 184.917114 400.35791 187.831055 397.979248 189.45462 396.904846 C 191.49321 395.555756 192.128403 394.801178 191.507584 394.465912 C 191.013153 394.198914 188.976395 393.636719 186.98143 393.216614 C 184.986465 392.796478 181.394394 392.452759 178.999023 392.452759 C 176.603653 392.452759 172.236206 392.913391 169.293564 393.47641 C 166.350937 394.039429 162.445984 394.997437 160.615906 395.605286 C 158.164673 396.419434 157.087112 396.509064 156.523697 395.945648 C 155.960297 395.382263 156.021545 394.929688 156.756287 394.22699 C 157.304855 393.702332 160.833832 392.099396 164.59845 390.664917 C 171.061493 388.20224 171.882248 388.055267 179.314743 388.030212 C 186.650528 388.005432 187.442444 388.135986 190.950867 389.948547 C 193.021408 391.01825 196.230759 392.661194 198.082764 393.599609 C 201.450043 395.305786 201.450043 395.305786 197.437057 396.936829 C 195.229919 397.833862 191.7733 399.704712 189.755692 401.09433 C 187.738083 402.483917 184.070587 405.805237 181.605713 408.475067 C 179.140823 411.144928 176.648911 413.437408 176.0681 413.569519 Z M 264.361145 375.341736 C 263.514099 375.341187 262.827179 375.109741 262.834656 374.827454 C 262.842133 374.545105 262.679291 367.075714 262.472717 358.228821 C 262.266174 349.381958 261.651062 337.677368 261.105774 332.218689 C 260.560455 326.759949 259.176239 316.133423 258.029663 308.604187 C 256.883118 301.07489 255.756775 292.286255 255.526703 289.073822 C 255.214188 284.70993 255.387558 282.272736 256.212341 279.435547 C 256.819519 277.346954 258.109924 274.78183 259.079865 273.735229 C 260.049835 272.688538 260.991699 271.980499 261.172882 272.161621 C 261.354065 272.342865 260.905334 274.005615 260.17572 275.856567 C 259.446106 277.707642 258.646088 280.904846 258.397888 282.961487 C 258.077026 285.620087 258.558746 290.756531 260.064484 300.732666 C 261.229309 308.450195 262.616058 318.152588 263.146118 322.293732 C 263.676178 326.434875 264.454071 335.059265 264.874786 341.459106 C 265.295471 347.858978 265.698517 358.100922 265.770447 364.218994 C 265.901154 375.337372 265.900482 375.342651 264.361145 375.341736 Z M 189.38858 371.233917 C 187.802689 371.233917 187.417358 370.497345 184.106918 361.137878 C 182.142899 355.585052 178.873596 345.959595 176.841797 339.747925 C 174.809998 333.536316 171.713257 324.44986 169.960129 319.555817 C 168.207016 314.661804 165.275513 307.091431 163.445709 302.732635 C 161.615891 298.373932 158.583908 292.31366 156.707962 289.26532 C 154.832016 286.21701 151.727493 282.005432 149.809021 279.906372 C 147.890549 277.807251 144.350052 274.815247 141.941238 273.257385 C 139.53241 271.699585 137.561569 270.192841 137.561569 269.909119 C 137.561569 269.625366 138.000381 269.224792 138.536713 269.018921 C 139.073044 268.81311 141.114059 269.443115 143.072296 270.418945 C 145.030533 271.394775 148.606491 274.039612 151.018875 276.296265 C 153.431259 278.552887 157.235886 283.136444 159.473618 286.481873 C 161.711349 289.827332 164.608597 294.787354 165.911957 297.504211 C 167.215317 300.220978 169.72551 306.294067 171.490173 310.999847 C 173.254837 315.705627 176.49411 325.100098 178.688553 331.876434 C 180.882996 338.652771 184.398956 349.58728 186.501801 356.175415 C 188.60463 362.763489 190.499313 368.846802 190.712204 369.693848 C 191.036316 370.983398 190.820999 371.233917 189.38858 371.233917 Z M 275.141663 353.4375 C 273.845917 353.4375 272.709686 352.829895 271.768951 351.633972 C 270.988708 350.642029 270.350342 349.297546 270.350342 348.646149 C 270.350342 347.994751 270.988708 346.650238 271.768951 345.658325 C 272.716583 344.453613 273.844086 343.854797 275.164703 343.854797 C 276.317108 343.854797 277.723907 344.479614 278.537415 345.352783 C 279.304993 346.176727 279.933014 347.52124 279.933014 348.340668 C 279.933014 349.160034 279.294647 350.642029 278.514404 351.633972 C 277.573669 352.829895 276.437439 353.4375 275.141663 353.4375 Z M 352.374359 337.057617 C 351.371338 337.605927 351.189056 337.085022 350.858032 332.725159 C 350.651123 329.999634 350.302124 323.611389 350.082489 318.529114 C 349.862854 313.446838 349.386719 306.208496 349.024384 302.443848 C 348.662109 298.67926 348.165466 291.937744 347.920776 287.462708 C 347.546997 280.626526 347.630249 279.377075 348.441742 279.64386 C 348.972931 279.818573 349.77655 281.432922 350.22757 283.231354 C 350.678589 285.029785 351.516418 290.24231 352.089417 294.814758 C 352.662415 299.387268 353.427826 307.440613 353.790314 312.71106 C 354.152832 317.981506 354.616821 325.08847 354.821472 328.504333 C 355.086304 332.924866 354.951569 334.962677 354.353973 335.574707 C 353.892212 336.047546 353.001404 336.714905 352.374359 337.057617 Z M 269.100677 302.101624 C 267.963959 302.101624 266.552979 301.448486 265.678314 300.517456 C 264.859772 299.646118 264.190033 298.15979 264.190033 297.214355 C 264.190033 296.268921 264.902924 294.825806 265.774231 294.007202 C 266.645538 293.188629 268.163239 292.518921 269.146942 292.518921 C 270.263824 292.518921 271.46817 293.196136 272.354095 294.322449 C 273.134338 295.314331 273.772736 296.854401 273.772736 297.744843 C 273.772736 298.635193 273.156708 299.979767 272.403778 300.732666 C 271.650848 301.485596 270.164459 302.101624 269.100677 302.101624 Z M 268.148376 277.460419 C 267.773041 277.460419 267.6633 276.921387 267.90451 276.262573 C 268.145691 275.60376 269.727081 273.021423 271.41864 270.523987 C 273.110199 268.026611 275.715912 263.124817 277.209137 259.631226 C 278.702301 256.137573 280.435822 252.713684 281.06131 252.022522 C 281.709656 251.306122 283.132599 250.765778 284.37088 250.765778 C 285.654663 250.765778 287.852936 251.633392 289.745636 252.887054 C 291.507019 254.053711 294.26889 256.594849 295.883148 258.533997 C 297.497406 260.473145 299.728271 263.44574 300.840607 265.139801 C 302.863037 268.219971 302.863037 268.219971 303.059814 264.797577 C 303.16806 262.915253 302.793823 258.216553 302.22821 254.356018 C 301.662598 250.495483 300.676605 243.795166 300.03714 239.466461 C 299.397675 235.137817 299.034821 231.435852 299.230713 231.239929 C 299.426666 231.043976 300.118896 231.087769 300.769012 231.33728 C 301.628265 231.666962 301.722687 231.932098 301.114746 232.307739 C 300.473877 232.703888 300.631531 234.133575 301.789063 238.423431 C 302.619995 241.502838 303.892517 247.4646 304.616943 251.671997 C 305.3414 255.879395 305.936157 262.28717 305.93866 265.911621 C 305.942108 270.927124 305.698853 272.704224 304.92041 273.350281 C 304.35788 273.817108 303.138794 274.054077 302.211334 273.87677 C 301.283875 273.699463 298.729218 271.89209 296.534332 269.860474 C 294.339447 267.828735 291.151062 265.428162 289.449036 264.525757 C 287.058258 263.258179 285.792786 262.990356 283.884705 263.348389 C 281.889252 263.722717 280.206421 265.122437 275.122833 270.636017 C 271.662231 274.389465 268.523712 277.460419 268.148376 277.460419 Z M 216.138489 275.406982 C 214.518036 275.406982 212.724991 273.9823 206.446976 267.706604 C 202.21019 263.471375 196.758408 257.335571 194.331848 254.07135 C 191.905304 250.80722 188.425674 245.664673 186.599335 242.643524 C 184.772995 239.622437 182.52742 235.080841 181.609177 232.551147 C 180.690933 230.021362 180.119049 227.48407 180.338318 226.912628 C 180.67717 226.029633 180.921997 226.072235 181.969528 227.19696 C 182.64743 227.924744 184.033783 230.493958 185.050308 232.90625 C 186.066849 235.318542 188.535507 239.78479 190.536224 242.831177 C 192.536942 245.877594 196.401932 251.142273 199.125076 254.530396 C 201.848221 257.918518 206.651276 263.385834 209.798523 266.679871 C 212.94577 269.973938 215.767853 272.657715 216.069809 272.643829 C 216.37175 272.630066 218.466888 269.947876 220.725662 266.683655 C 222.984451 263.419342 226.595779 258.972321 228.75087 256.801331 C 230.90596 254.630341 233.447083 252.658783 234.397812 252.420135 C 235.348557 252.181519 236.890594 252.178101 237.82457 252.412537 C 238.758545 252.646912 240.532349 253.848328 241.766327 255.082367 C 243.00032 256.316376 245.95668 259.727051 248.336029 262.661835 C 250.715363 265.596497 252.560745 268.090698 252.436874 268.204407 C 252.313019 268.318115 249.593536 266.900818 246.3936 265.05484 C 243.193665 263.208954 239.40979 261.342834 237.985016 260.908112 C 235.858841 260.259216 234.999969 260.309631 233.193665 261.189026 C 231.983215 261.77832 228.097977 265.218445 224.55983 268.83374 C 219.350311 274.156738 217.748642 275.406982 216.138489 275.406982 Z"/>
        <path id="path3" fill="#d98143" fill-rule="evenodd" stroke="none" d="M 261.415833 270.615631 C 261.076691 270.615631 260.378906 269.922638 259.865234 269.075562 C 259.351563 268.228485 257.670502 265.379364 256.129547 262.744141 C 254.588577 260.108917 251.907715 256.347107 250.172058 254.384674 C 248.436417 252.422241 244.643112 249.161346 241.742508 247.138336 C 238.841888 245.115387 233.542526 241.67395 229.966125 239.490845 C 226.389725 237.307739 220.537445 233.366791 216.961029 230.733154 C 213.384628 228.099609 208.201569 223.752197 205.4431 221.072266 C 202.684647 218.392334 199.636856 214.659546 198.670242 212.777222 C 196.933807 209.395874 196.918106 209.224915 197.359024 198.511139 C 197.805283 187.66745 197.805283 187.66745 195.627136 183.110382 C 194.429153 180.604004 192.793182 176.859253 191.991653 174.788696 C 190.561111 171.093231 190.479416 171.02005 187.546967 170.807922 C 185.903931 170.689087 183.426697 170.013885 182.042038 169.307434 C 180.657379 168.601074 177.959808 166.311096 176.04747 164.218719 C 174.135117 162.126251 171.774109 158.786591 170.800766 156.79715 C 169.827423 154.807739 168.68576 151.219727 168.263733 148.823883 C 167.841721 146.42804 167.663345 142.260956 167.86734 139.563538 C 168.071335 136.866241 168.743057 133.451111 169.360062 131.974457 C 169.977051 130.497711 171.14624 128.582397 171.958237 127.718048 C 172.770248 126.853668 174.174332 125.960876 175.078415 125.733948 C 176.578888 125.357361 176.683929 125.075806 176.283051 122.504822 C 176.041519 120.955627 175.254501 116.145996 174.534164 111.816711 C 173.813812 107.487427 172.900665 100.954193 172.504959 97.298523 C 172.109238 93.642853 171.785477 87.441193 171.785477 83.517059 C 171.785477 76.571594 171.857483 76.238556 174.499725 70.959503 C 175.992554 67.976837 179.18338 63.243988 181.590454 60.441895 C 183.997513 57.639832 188.089371 53.321899 190.683456 50.846436 C 193.277527 48.370972 198.788132 43.659729 202.92923 40.377136 C 208.22406 36.179932 212.896057 33.211426 218.672226 30.374084 C 223.406662 28.048523 229.330109 25.74292 232.65596 24.931091 C 235.829453 24.156464 241.713028 23.157227 245.73056 22.71048 C 251.261917 22.095428 255.095306 22.085907 261.521637 22.671204 C 266.189178 23.096313 272.472229 24.08194 275.483917 24.86142 C 278.495605 25.6409 283.214325 27.346893 285.96991 28.652435 C 289.238312 30.200867 292.510742 32.495941 295.382996 35.253998 C 298.082855 37.846527 300.57486 41.060699 301.8255 43.563477 C 302.947235 45.808258 304.059387 49.109741 304.296844 50.900146 C 304.686462 53.837006 305.005554 54.307343 307.560486 55.710632 C 309.117981 56.566071 311.699982 58.316772 313.298218 59.601166 C 314.896484 60.885498 317.142059 63.299561 318.288422 64.965698 C 319.434753 66.631866 320.836823 69.307526 321.404114 70.911621 C 321.971405 72.515686 322.607697 76.138275 322.818054 78.961761 C 323.048798 82.05835 322.759491 87.437927 322.088898 92.519562 C 321.477509 97.152893 320.176514 104.391205 319.197845 108.604797 C 318.219208 112.818359 316.726898 118.468903 315.881622 121.16153 C 314.344727 126.05722 314.344727 126.05722 316.213806 126.430969 C 317.241791 126.636597 318.931122 127.812866 319.967896 129.045044 C 321.004669 130.27713 322.354431 132.338501 322.967407 133.625824 C 323.733154 135.2341 324.047577 137.580048 323.97229 141.123444 C 323.897766 144.632477 323.266449 148.113434 321.996735 152.016754 C 320.970428 155.171692 318.971893 159.546021 317.555542 161.737305 C 316.139191 163.928711 313.48999 166.859619 311.668457 168.250458 C 309.446564 169.947052 307.848145 170.682159 306.811951 170.484131 C 305.962463 170.321716 304.917114 170.610962 304.488953 171.126831 C 304.060791 171.6427 302.857361 174.603607 301.814636 177.706573 C 300.771912 180.80954 298.78775 185.731232 297.405365 188.643616 C 296.02298 191.555908 293.451294 195.831543 291.69046 198.14502 C 289.929657 200.458466 287.964081 203.161285 287.322571 204.151306 C 286.464722 205.475159 286.048279 208.122253 285.748535 214.155701 C 285.524384 218.667999 284.739441 225.121246 284.004242 228.496094 C 283.15271 232.404846 281.527191 236.877258 279.526184 240.816681 C 277.798492 244.218201 275.009552 249.46524 273.328552 252.476959 C 271.647552 255.488678 269.10672 259.954926 267.68222 262.401917 C 266.257751 264.848877 264.403809 267.698059 263.562378 268.733337 C 262.720917 269.768555 261.754974 270.615631 261.415833 270.615631 Z"/>
        <path id="path4" fill="#48342e" fill-rule="evenodd" stroke="none" d="M 190.249451 143.302704 C 189.43045 143.302704 188.640015 142.672699 188.317108 141.762634 C 188.016541 140.915558 187.415161 138.612366 186.980682 136.644409 C 186.546188 134.676361 185.740204 131.988007 185.18959 130.670197 C 184.638962 129.352356 183.168869 127.652527 181.922729 126.892761 C 180.676559 126.132996 179.012192 125.510193 178.224136 125.50885 C 176.91922 125.506531 176.654953 124.696442 175.264313 116.43692 C 174.424484 111.448822 173.307785 103.825378 172.782761 99.496094 C 172.257736 95.166809 171.818573 88.195099 171.806824 84.00351 C 171.785721 76.4729 171.817734 76.317932 174.499725 70.959503 C 175.992554 67.976837 179.18338 63.243988 181.590454 60.441895 C 183.997513 57.639832 188.089371 53.321899 190.683456 50.846436 C 193.277542 48.370972 198.788132 43.659729 202.92923 40.377136 C 208.22406 36.179932 212.896072 33.211334 218.672226 30.374084 C 223.406677 28.048523 229.330109 25.74292 232.65596 24.931091 C 235.829453 24.156464 241.713028 23.157227 245.73056 22.71048 C 251.261917 22.095428 255.095306 22.085907 261.521637 22.671204 C 266.189178 23.096313 272.472229 24.08194 275.483917 24.86142 C 278.495605 25.640961 283.214325 27.346893 285.96991 28.652435 C 289.238312 30.200867 292.510742 32.495941 295.382996 35.253998 C 298.082855 37.846527 300.57486 41.060699 301.8255 43.563477 C 302.947266 45.808258 304.059387 49.109741 304.296875 50.900146 C 304.686462 53.837006 305.005554 54.307343 307.560486 55.710632 C 309.117981 56.566071 311.699982 58.316772 313.298248 59.601166 C 314.896484 60.885498 317.14209 63.299561 318.288422 64.965698 C 319.434723 66.631866 320.836823 69.307526 321.404114 70.911621 C 321.971405 72.515686 322.607697 76.138275 322.818054 78.961761 C 323.048798 82.05835 322.759491 87.437927 322.088898 92.519562 C 321.477478 97.152893 320.181305 104.391205 319.208527 108.604797 C 318.235718 112.818359 316.671967 118.575928 315.733459 121.399384 C 314.794952 124.22287 313.890015 127.260498 313.722504 128.149597 C 313.554962 129.038788 312.702209 131.194916 311.827423 132.940948 C 310.952667 134.687073 309.822723 137.347778 309.316467 138.853577 C 308.395966 141.591492 308.395966 141.591492 307.955872 138.511353 C 307.713837 136.817291 307.817657 134.947266 308.186646 134.355774 C 308.638245 133.631866 308.495575 130.947662 307.750061 126.142029 C 307.140991 122.215973 306.530212 117.15567 306.392792 114.896851 C 306.255341 112.638031 305.293945 107.401855 304.256287 103.260712 C 303.218628 99.119598 301.649872 92.714569 300.770172 89.02713 C 299.890472 85.339813 298.430267 80.705536 297.525299 78.72879 C 296.6203 76.751984 294.909576 74.029602 293.723724 72.678955 C 291.567596 70.223297 291.567596 70.223297 287.417633 71.899567 C 285.135162 72.821503 281.208313 74.020081 278.691315 74.56311 C 276.174316 75.106201 270.726776 75.742645 266.585693 75.977448 C 261.035797 76.292175 257.077087 76.094086 251.527176 75.22403 C 247.386093 74.574799 241.225784 73.454163 237.837616 72.733765 C 234.449448 72.013275 228.884186 71.229034 225.470352 70.990814 C 221.913406 70.742737 217.459854 70.87561 215.039063 71.301971 C 212.715683 71.711243 209.691971 72.578857 208.319687 73.230072 C 206.574646 74.058105 205.461502 75.251923 204.616669 77.201263 C 203.952286 78.734222 202.898132 83.222626 202.274109 87.175476 C 201.65007 91.128357 200.516235 96.518646 199.754471 99.15387 C 198.992706 101.789093 197.663635 105.177307 196.80098 106.683105 C 195.938309 108.188934 194.687912 111.73114 194.022324 114.554626 C 193.35672 117.378082 192.530533 120.31546 192.186325 121.082062 C 191.842117 121.848755 190.884308 122.772797 190.057846 123.135498 C 189.231384 123.498291 188.459091 124.470367 188.341644 125.295624 C 188.18425 126.401642 188.703644 127.093811 190.316818 127.928009 C 192.505539 129.059845 192.505539 129.059845 192.075302 133.614471 C 191.838669 136.119507 191.642883 139.324158 191.640213 140.735901 C 191.636185 142.855255 191.393753 143.302704 190.249451 143.302704 Z"/>
        <path id="path5" fill="#312727" fill-rule="evenodd" stroke="none" d="M 197.594345 77.90094 C 196.763901 78.076416 195.391418 77.934784 194.544373 77.586182 C 193.697327 77.23761 193.004303 76.516357 193.004303 75.983276 C 193.004303 75.450287 194.159363 73.973297 195.571091 72.701111 C 196.982834 71.428894 201.064026 68.927704 204.640427 67.142883 C 209.343277 64.795837 212.563782 63.686646 216.27655 63.135193 C 219.100037 62.715759 223.566238 62.565948 226.201492 62.802246 C 228.836731 63.038513 236.537109 64.537994 243.313446 66.134308 C 254.490067 68.767365 256.460266 69.036804 264.532257 69.036804 C 270.764191 69.036804 275.011719 68.662323 278.707489 67.78717 C 281.609833 67.099762 286.538055 65.290314 289.659149 63.766113 C 292.780182 62.241821 295.86908 60.844147 296.523315 60.660156 C 297.224609 60.462891 297.888977 60.784576 298.142029 61.444061 C 298.378082 62.059174 298.143646 63.445435 297.621002 64.524536 C 297.098389 65.603638 295.69931 67.394043 294.511932 68.503143 C 293.324585 69.612335 291.945709 70.548737 291.447784 70.584076 C 290.949829 70.619415 288.404083 71.457214 285.790497 72.445831 C 283.17691 73.43454 278.094666 74.687195 274.496613 75.229614 C 270.898529 75.771973 265.49054 76.208557 262.478821 76.199768 C 259.467133 76.19101 252.690796 75.41629 247.420319 74.478302 C 242.149826 73.540314 235.065475 72.286407 231.677322 71.691925 C 227.523819 70.963165 223.510208 70.735565 219.356705 70.993317 C 215.968536 71.203644 212.025223 71.753082 210.593781 72.214386 C 209.162338 72.67569 207.160233 73.843536 206.144669 74.809601 C 205.129105 75.775665 203.864532 76.515198 203.334503 76.453033 C 202.804474 76.390778 201.635834 76.619385 200.737518 76.960876 C 199.839218 77.302429 198.424774 77.725494 197.594345 77.90094 Z"/>
        <path id="path6" fill="#302526" fill-rule="evenodd" stroke="none" d="M 224.148056 156.748535 C 219.101654 156.890076 215.287231 156.624023 212.580826 155.941895 C 210.359955 155.38208 207.532349 154.299622 206.297272 153.536285 C 205.062195 152.772919 203.137665 151.107422 202.020554 149.835083 C 200.903427 148.562775 199.383636 145.879425 198.643234 143.872131 C 197.902832 141.864899 196.913925 137.709473 196.445648 134.637939 C 195.598297 129.079803 195.583435 129.051239 193.321396 128.626862 C 192.071335 128.392334 190.359177 127.642242 189.516617 126.959961 C 188.555817 126.181976 188.14389 125.304565 188.411743 124.606537 C 188.646637 123.994446 189.699036 123.280304 190.750443 123.019592 C 191.801819 122.758911 193.741547 121.834808 195.060913 120.966003 C 196.693192 119.891144 199.755447 119.020508 204.6436 118.241455 C 210.213104 117.353943 214.673019 117.171539 224.490295 117.430054 C 234.45575 117.692505 237.77095 118.02005 240.053467 118.967804 C 241.648636 119.630127 243.874832 121.221161 245.00058 122.503326 C 246.98909 124.768066 247.134201 124.815033 250.095688 124.151337 C 251.772263 123.775604 254.16629 123.661133 255.415741 123.896912 C 256.665192 124.132629 258.116943 124.551331 258.641815 124.827301 C 259.269287 125.157104 260.320648 124.503876 261.711273 122.920013 C 262.874603 121.595093 264.909271 120.04071 266.232758 119.465942 C 267.945709 118.721985 271.893555 118.331207 279.933014 118.109863 C 288.556671 117.872467 292.754211 118.06842 297.686646 118.938812 C 301.239502 119.565796 304.935699 120.520081 305.900391 121.059418 C 306.865082 121.598755 308.96347 122.680359 310.563416 123.462952 C 312.163391 124.245514 313.472443 125.13855 313.472443 125.447357 C 313.472443 125.756165 312.246124 126.820404 310.747253 127.812286 C 309.248413 128.804169 307.88089 130.308136 307.708344 131.154541 C 307.535797 132.000885 306.92215 134.928375 306.344635 137.660187 C 305.767151 140.391907 304.498016 144.310944 303.524353 146.369141 C 302.539032 148.451904 300.49054 151.192749 298.904541 152.550354 C 297.300842 153.922974 294.437103 155.459717 292.354431 156.065155 C 289.689911 156.839783 286.714478 157.061859 281.726654 156.858398 C 276.373779 156.640076 274.162476 156.243439 271.996735 155.11319 C 270.455231 154.308746 268.185944 152.50238 266.953857 151.099152 C 265.721771 149.695862 263.851593 146.626251 262.797882 144.277771 C 261.744171 141.92923 260.6633 138.256775 260.395935 136.11676 C 260.092712 133.690002 259.362457 131.589539 258.455322 130.534912 C 257.513062 129.439514 256.037048 128.725708 254.264023 128.508118 C 252.293121 128.266235 250.934021 128.544739 249.407806 129.503174 C 247.456467 130.728516 247.252686 131.218475 246.83783 135.682281 C 246.589996 138.348755 245.735428 142.272552 244.938782 144.401764 C 244.14212 146.531067 242.446899 149.42807 241.171616 150.83963 C 239.896317 152.251312 237.238388 154.110718 235.265106 154.971832 C 232.395065 156.224304 230.171051 156.579742 224.148056 156.748535 Z M 222.734192 154.179321 C 225.344727 154.220581 229.328354 153.735901 231.58667 153.102203 C 234.466644 152.294159 236.443665 151.199188 238.207642 149.435272 C 239.590851 148.052032 241.260529 145.413269 241.918015 143.571411 C 242.598785 141.664368 243.26622 137.260284 243.468277 133.342102 C 243.804672 126.818573 243.738846 126.366791 242.19931 124.631775 C 241.264969 123.578827 239.219101 122.450348 237.38089 121.973846 C 235.519867 121.491486 229.233643 121.127258 222.322372 121.10144 C 214.717728 121.073029 209.031662 121.38504 206.484146 121.97049 C 203.036972 122.762665 202.365112 123.187225 201.419037 125.171143 C 200.561462 126.969482 200.425446 128.623444 200.782776 132.90802 C 201.03273 135.905273 201.673813 139.808197 202.207413 141.581238 C 202.740997 143.354156 203.972961 145.952545 204.945114 147.355438 C 205.917282 148.758209 207.931183 150.59082 209.420471 151.427856 C 210.90976 152.264832 213.446655 153.209503 215.058014 153.527008 C 216.669373 153.844604 220.123657 154.138123 222.734192 154.179321 Z M 282.698242 154.20813 C 284.407349 154.233551 287.575592 153.793365 289.73877 153.229889 C 291.901978 152.666473 294.599304 151.519775 295.732849 150.681732 C 296.866394 149.843689 298.754761 147.206024 299.92923 144.820374 C 301.787659 141.04538 302.104584 139.578186 302.372955 133.507874 C 302.641602 127.430786 302.516785 126.330536 301.403229 124.960144 C 300.460449 123.799927 298.868042 123.171417 295.333771 122.564484 C 292.698547 122.111877 286.538239 121.768799 281.644226 121.80188 C 276.750214 121.835052 271.592163 122.079773 270.181915 122.345734 C 268.771667 122.611786 266.792572 123.539215 265.783966 124.406769 C 264.262878 125.715149 263.904724 126.673096 263.684204 130.023224 C 263.509186 132.682098 263.904968 135.927856 264.84256 139.522034 C 265.625854 142.524902 267.030975 146.136536 267.965027 147.548004 C 268.899048 148.959412 270.464264 150.639038 271.443268 151.280548 C 272.422241 151.921997 274.655945 152.832764 276.407013 153.304413 C 278.158112 153.776093 280.989166 154.182739 282.698242 154.20813 Z"/>
        <path id="path7" fill="#2e2825" fill-rule="evenodd" stroke="none" d="M 223.676437 139.88031 C 221.453659 139.88031 220.832077 139.536804 219.650772 137.655762 C 218.575378 135.943298 218.315292 134.599426 218.52095 131.818054 C 218.788116 128.204895 218.788116 128.204895 217.012039 129.906494 C 216.011215 130.865356 214.886261 131.391937 214.434769 131.112854 C 213.851288 130.752319 213.946182 130.23053 214.783936 129.193115 C 215.416641 128.409546 216.695892 127.259399 217.626694 126.637329 C 218.829224 125.833618 220.810425 125.508179 224.471481 125.512939 C 228.494232 125.518219 230.414261 125.887604 233.228821 127.197998 C 235.211548 128.121033 237.020676 129.363403 237.24913 129.95871 C 237.477585 130.554047 237.511261 131.194397 237.323975 131.381653 C 237.136673 131.56897 235.943558 131.125305 234.672623 130.395721 C 233.401657 129.666107 231.745773 128.887634 230.992844 128.66571 C 229.733856 128.294739 229.621994 128.589081 229.600388 132.329987 C 229.581177 135.657379 229.279205 136.714508 227.940994 138.138947 C 226.739258 139.418182 225.607468 139.88031 223.676437 139.88031 Z"/>
        <path id="path8" fill="#2e2825" fill-rule="evenodd" stroke="none" d="M 278.595184 140.564789 C 277.423279 140.564789 275.911285 139.965454 275.141663 139.195831 C 274.172485 138.226685 273.772736 136.914215 273.772736 134.701691 C 273.772736 132.98288 274.116577 130.934052 274.536835 130.148804 C 275.17688 128.952881 275.126068 128.788208 274.223846 129.134369 C 273.63147 129.361725 272.209564 130.032318 271.064087 130.624725 C 269.918579 131.217041 268.981384 131.401459 268.981384 131.034485 C 268.981384 130.667511 269.982422 129.624084 271.205933 128.715759 C 272.429443 127.807434 274.477509 126.713715 275.757172 126.285248 C 277.036865 125.856873 279.279846 125.506256 280.741638 125.506256 C 282.2034 125.506256 284.390564 125.928619 285.601959 126.444763 C 286.813354 126.960938 288.574554 128.21344 289.515717 129.228119 C 290.456879 130.242798 291.32959 131.360596 291.455078 131.712036 C 291.580566 132.063446 291.095245 132.351044 290.376556 132.351044 C 289.657867 132.351044 288.373718 131.610016 287.522827 130.704346 C 286.671997 129.798615 285.451569 128.920471 284.810822 128.75293 C 283.784729 128.48465 283.678436 128.961395 283.919647 132.749603 C 284.167572 136.643311 284.027039 137.217499 282.436615 138.807892 C 281.319611 139.924927 279.920532 140.564789 278.595184 140.564789 Z"/>
        <path id="path9" fill="#3f2f2b" fill-rule="evenodd" stroke="none" d="M 211.72995 114.860504 C 208.47583 115.370697 208.174377 115.299927 207.737442 113.923279 C 207.450058 113.017792 207.668442 111.818115 208.294617 110.862518 C 208.860992 109.998047 210.286484 108.481293 211.462372 107.491852 C 212.638245 106.50238 214.895523 105.30011 216.478516 104.82019 C 218.061523 104.340179 221.485046 104.000946 224.086349 104.066284 C 226.687653 104.131622 230.782181 104.527405 233.185287 104.945923 C 235.588409 105.36438 238.628906 106.219055 239.941986 106.845215 C 241.388962 107.535278 242.495499 108.645569 242.751083 109.66391 C 242.983032 110.588043 242.86496 111.835419 242.488724 112.436005 C 242.112503 113.03653 241.066101 113.644714 240.163391 113.787415 C 239.260681 113.930115 233.285843 114.105774 226.885971 114.177795 C 220.486099 114.249725 213.665894 114.556946 211.72995 114.860504 Z"/>
        <path id="path10" fill="#3f2f2b" fill-rule="evenodd" stroke="none" d="M 271.148346 114.554626 C 267.634399 114.742859 264.631256 114.768524 264.474701 114.611694 C 264.318146 114.454773 264.190033 113.48111 264.190033 112.447968 C 264.190033 111.206573 264.877319 109.991119 266.216431 108.864319 C 267.330933 107.926483 269.716309 106.596466 271.517242 105.908722 C 273.842957 105.020538 276.676727 104.654083 281.298065 104.643982 C 284.876617 104.636108 289.14035 105.035095 290.77301 105.530579 C 292.405731 106.026031 294.822784 107.422333 296.144287 108.633453 C 297.46579 109.844482 298.710876 111.692444 298.911133 112.740051 C 299.275238 114.644867 299.275238 114.644867 288.406311 114.428619 C 282.428375 114.309631 274.662292 114.366364 271.148346 114.554626 Z"/>
        <path id="path11" fill="#b95e27" fill-rule="evenodd" stroke="none" d="M 198.137894 187.671112 C 202.548325 193.866608 205.936478 197.714691 208.512589 200.219482 C 211.088684 202.724304 215.352509 206.368195 217.987747 208.317017 C 220.623001 210.26593 225.551239 213.224915 228.939407 214.89267 C 232.32756 216.560486 237.255814 218.460846 239.891052 219.115753 C 243.145966 219.924652 247.316299 220.299225 252.896133 220.283844 C 260.536774 220.262695 261.480072 220.108978 266.415924 218.079437 C 269.334259 216.879517 273.492493 214.769501 275.656403 213.390594 C 277.820313 212.011719 281.104492 209.62146 282.954559 208.078949 C 286.318359 205.274292 286.318359 205.274292 285.898743 210.279785 C 285.479065 215.285187 285.479065 215.285187 279.003021 221.667267 C 274.343414 226.259155 271.304413 228.63269 268.168335 230.129395 C 265.771118 231.273529 262.43222 232.527008 260.748596 232.914948 C 259.064972 233.302979 254.915359 233.596924 251.527176 233.568329 C 248.139023 233.539764 243.439133 233.093994 241.083008 232.577789 C 238.726883 232.061523 234.722672 230.812378 232.184799 229.80188 C 229.646896 228.791351 225.598724 226.771271 223.188828 225.312897 C 220.778931 223.854462 216.620728 221.081696 213.94838 219.151184 C 211.276016 217.220642 206.960144 213.645691 204.357574 211.206818 C 201.755005 208.767944 199.05986 206.624603 198.368393 206.443817 C 197.286606 206.160889 197.12233 205.433624 197.191177 201.232422 C 197.235168 198.546906 197.466187 194.397095 197.704529 192.010437 L 198.137894 187.671112 Z"/>
        <path id="path12" fill="#c0672f" fill-rule="evenodd" stroke="none" d="M 259.740906 195.957977 C 258.149506 197.520172 255.839386 198.151855 253.580612 198.36969 C 250.703873 198.647095 248.807434 198.465027 247.249191 197.761902 C 246.025681 197.209778 245.024643 196.281158 245.024643 195.698273 C 245.024643 194.817291 246.092209 194.64032 251.356064 194.649017 C 254.838333 194.654755 258.149506 194.951721 258.714203 195.308746 L 259.740906 195.957977 Z"/>
        <path id="path13" fill="#ad5925" fill-rule="evenodd" stroke="none" d="M 305.268616 168.510986 C 304.562134 168.746521 304.461182 168.095551 304.809814 165.552002 C 305.055664 163.758514 305.621246 161.074646 306.066742 159.587799 C 306.512207 158.100952 307.081268 153.905579 307.33136 150.264709 C 307.609741 146.211639 307.83493 144.971954 307.91214 147.067322 C 308.01001 149.722778 308.192322 150.225342 308.72583 149.309937 C 309.112671 148.646179 309.231384 146.444336 308.997223 144.276093 C 308.750763 141.993408 308.837799 140.580841 309.210815 140.81134 C 309.55719 141.025421 310.715393 140.287476 311.784576 139.171509 C 312.85376 138.055481 314.164856 137.142395 314.69812 137.142395 C 315.316772 137.142395 314.898804 138.018127 313.543365 139.56189 C 311.652466 141.715485 311.419006 142.450958 311.419006 146.254333 C 311.419006 148.765503 311.031464 151.084045 310.479065 151.877472 C 309.962067 152.620117 309.153107 155.526703 308.681305 158.336639 C 308.209534 161.146576 307.452454 164.517426 306.998932 165.827301 C 306.54541 167.137268 305.766754 168.344971 305.268616 168.510986 Z M 185.828247 156.551086 C 185.312576 156.748962 184.483246 156.419983 183.985321 155.820068 C 183.440994 155.164185 183.005875 152.519257 182.894089 149.187012 C 182.791855 146.138885 182.399185 142.506104 182.02153 141.114227 C 181.599335 139.558289 180.358475 137.778748 178.799881 136.494019 C 176.266068 134.405396 176.265747 134.40448 178.093887 134.40448 C 179.099838 134.40448 180.722702 135.097473 181.700287 135.94455 C 182.677841 136.791626 183.913559 138.716736 184.44632 140.222534 C 184.979065 141.728363 185.428467 145.173492 185.444992 147.878387 C 185.461533 150.583221 185.765472 153.560181 186.120438 154.493805 C 186.601563 155.759247 186.527206 156.282898 185.828247 156.551086 Z"/>
        <path id="path14" fill="#9b4d1f" fill-rule="evenodd" stroke="none" d="M 255.634048 187.543213 C 250.740036 187.630341 245.026535 187.433167 242.937393 187.10495 C 240.848251 186.776825 237.30986 185.823975 235.07431 184.98761 C 232.83876 184.151123 230.08699 182.544128 228.95929 181.416412 C 226.955276 179.412415 226.941254 179.351593 228.33934 178.727783 C 229.371155 178.267395 231.279892 178.566528 235.188843 179.801361 C 238.169327 180.74295 243.190964 181.890991 246.348022 182.352539 C 249.701614 182.842926 254.535629 183.018127 257.974884 182.774078 C 261.212585 182.54422 265.706604 181.745758 267.961578 180.999634 C 271.288239 179.898956 272.227661 179.807892 272.942261 180.516754 C 273.426666 180.997284 273.63739 181.874207 273.410492 182.465424 C 273.183594 183.056732 271.093201 184.405396 268.765106 185.462616 C 264.909271 187.213501 263.739685 187.398804 255.634048 187.543213 Z"/>
        <path id="path15" fill="#9b4d1f" fill-rule="evenodd" stroke="none" d="M 257.345245 170.610718 C 255.651154 170.572784 253.271362 170.305573 252.056793 170.017059 C 250.842224 169.728455 248.927338 169.11084 247.801498 168.644501 C 246.675659 168.178192 245.450729 167.430634 245.079453 166.983215 C 244.708176 166.535858 244.216827 165.681 243.987564 165.083588 C 243.618698 164.122284 244.105652 164.145599 248.218613 165.286133 C 250.774963 165.994995 254.136276 166.574951 255.688217 166.574951 C 257.240143 166.574951 259.481781 166.236145 260.669617 165.822052 C 262.058502 165.337921 262.980133 164.468292 263.251862 163.385681 C 263.484253 162.459717 263.516144 160.411407 263.322723 158.833801 C 263.129303 157.256287 262.301941 153.57605 261.484131 150.655579 C 260.666321 147.735016 260.093567 144.43219 260.211304 143.315887 C 260.337769 142.117065 260.705566 141.488892 261.109863 141.781158 C 261.486328 142.053314 262.688232 144.124023 263.780701 146.382843 C 264.873199 148.641663 265.827942 151.105774 265.902344 151.858673 C 265.976746 152.611572 266.253387 155.845734 266.51709 159.045685 C 266.869049 163.316742 266.757385 165.318787 266.097107 166.574951 C 265.602417 167.516113 264.123932 168.824646 262.811554 169.48291 C 261.494507 170.143494 259.045349 170.648834 257.345245 170.610718 Z"/>
        <path id="path16" fill="#d98143" fill-rule="evenodd" stroke="none" d="M 246.454147 458.559448 C 244.847977 458.918762 244.834015 458.886108 245.935471 457.347839 C 246.558044 456.478363 247.823532 454.534912 248.747665 453.029053 C 249.671799 451.523193 251.070374 448.837799 251.855606 447.061462 C 252.640884 445.285095 253.889267 441.462646 254.629807 438.567108 C 255.537445 435.018372 255.976288 431.02301 255.976288 426.308716 C 255.976288 421.515686 255.707062 419.111084 255.120697 418.666962 C 254.650116 418.310516 250.876923 416.531433 246.73584 414.713409 C 242.594742 412.895386 237.050476 410.37851 234.415222 409.120361 C 231.779984 407.862183 229.16185 406.523407 228.597168 406.145325 C 227.745712 405.575195 227.728973 405.355591 228.49913 404.858917 C 229.009888 404.52948 229.16391 404.105652 228.841354 403.917084 C 228.518814 403.728455 227.523315 403.348938 226.629135 403.07373 C 225.47641 402.718872 225.145935 402.803955 225.493408 403.366211 C 225.811722 403.881226 225.182098 403.812927 223.696808 403.171234 C 222.439148 402.627869 219.716049 401.409332 217.645508 400.463318 C 215.574966 399.517334 209.942154 397.482635 205.128143 395.941803 C 200.314117 394.40094 195.487595 392.483917 194.402527 391.681671 C 192.808807 390.503387 192.287064 389.404236 191.687668 385.96228 C 191.279587 383.618835 190.493973 380.200562 189.94191 378.36615 C 189.389832 376.531738 188.765076 374.24292 188.553558 373.279907 C 188.174057 371.552094 188.261612 371.511322 195.206879 370.183655 C 199.88916 369.288574 204.650253 368.880157 209.431778 368.963409 C 213.384628 369.032227 222.471085 369.893005 229.623886 370.87619 C 236.776672 371.859375 247.480698 373.261841 253.410599 373.992676 C 259.340485 374.723572 267.040863 375.637451 270.522552 376.02356 C 274.004242 376.409607 285.169281 377.048309 295.333771 377.442871 C 305.498291 377.837402 314.940155 378.453796 316.315674 378.812622 C 318.244965 379.315857 319.318085 380.246307 321.009949 382.882874 C 322.216217 384.762695 323.909363 388.531982 324.772461 391.259033 C 325.63559 393.986145 326.714447 398.681488 327.169983 401.693207 C 327.657776 404.91803 327.81192 409.279327 327.545044 412.302612 C 327.295776 415.126099 326.623627 419.284302 326.051361 421.54306 C 325.479126 423.801819 324.074951 427.343994 322.931 429.414551 C 321.787048 431.485138 320.037933 434.053711 319.044067 435.12262 C 318.050232 436.191498 316.357971 437.525085 315.283508 438.08609 C 313.915222 438.800537 312.366852 438.973663 310.115326 438.664001 C 307.206787 438.263977 306.121948 438.578186 298.721588 441.964142 C 294.223053 444.02243 284.646606 447.716125 277.440582 450.172333 C 270.234589 452.628571 260.686096 455.437378 256.221771 456.414215 C 251.757431 457.391022 247.362 458.356354 246.454147 458.559448 Z M 380.078339 380.739014 C 379.397308 380.69635 376.838013 380.078979 374.391022 379.367065 C 371.944 378.655182 366.39975 377.467621 362.070404 376.728088 C 356.771118 375.822815 349.054474 375.234009 338.455902 374.926208 C 329.797272 374.674744 322.618103 374.390656 322.502258 374.294922 C 322.386414 374.199219 323.298035 372.470276 324.528076 370.45285 C 325.758148 368.435425 328.119873 364.782715 329.776337 362.335693 C 331.4328 359.888672 334.406586 355.884521 336.384766 353.4375 C 338.362946 350.990479 342.927002 346.147491 346.527161 342.675262 C 350.127319 339.203064 355.328339 334.899506 358.084991 333.111938 C 360.841675 331.32428 364.117096 329.740112 365.363739 329.591461 C 367.034424 329.392181 368.069183 329.733429 369.2995 330.889221 C 370.668396 332.175232 370.968628 333.121033 370.968628 336.147644 C 370.968628 338.177277 370.675018 340.386536 370.316193 341.057007 C 369.710815 342.188171 370.034546 342.25235 374.803467 341.946289 C 377.79895 341.754028 380.626099 341.927551 381.580048 342.362213 C 382.480286 342.7724 383.73175 343.89386 384.361115 344.854401 C 385.328705 346.331146 385.374329 346.917236 384.656525 348.650208 C 384.189636 349.777344 383.392609 350.699585 382.885437 350.699585 C 382.378235 350.699585 382.119385 351.106506 382.310272 351.603882 C 382.527069 352.168945 383.402557 352.398804 384.643829 352.216614 C 386.111725 352.00119 387.087769 352.382446 388.382202 353.67688 C 389.52652 354.821198 390.134003 356.182861 390.134003 357.603577 C 390.134003 358.799744 389.483673 360.830719 388.688843 362.116791 C 387.358643 364.269073 387.33078 364.551392 388.33847 365.664886 C 388.940613 366.330231 389.620911 367.812805 389.85022 368.959473 C 390.112671 370.271576 389.862244 371.827454 389.174622 373.157166 C 388.5737 374.319275 387.019043 376.080811 385.719849 377.071747 C 384.420654 378.062683 382.729736 379.037659 381.962189 379.238342 C 381.194672 379.439087 380.735413 379.876282 380.94165 380.209961 C 381.147858 380.543579 380.759369 380.781677 380.078339 380.739014 Z"/>
        <path id="path17" fill="#b85c27" fill-rule="evenodd" stroke="none" d="M 245.936218 458.641998 C 244.734924 459.101257 244.732361 459.051086 245.874924 457.444153 C 246.530807 456.521729 247.823532 454.534912 248.747665 453.029053 C 249.671799 451.523193 251.070374 448.837799 251.855606 447.061462 C 252.640884 445.285095 253.889267 441.462646 254.629807 438.567108 C 255.537445 435.018372 255.976288 431.02301 255.976288 426.308716 C 255.976288 421.515686 255.707062 419.111084 255.120697 418.666962 C 254.650116 418.310516 250.876923 416.531433 246.73584 414.713409 C 242.594742 412.895386 236.896454 410.316956 234.072983 408.983521 C 231.249512 407.650146 227.640076 405.772339 226.052002 404.810669 C 224.463928 403.848999 223.154877 402.810394 223.142975 402.502686 C 223.131073 402.194946 223.814377 402.144012 224.661407 402.389404 C 225.508453 402.634857 228.665619 403.864075 231.677322 405.120972 C 234.689011 406.377838 239.771271 408.455353 242.971207 409.737579 C 246.171143 411.019806 253.4095 414.079346 259.056427 416.536621 C 264.7034 418.993835 275.945923 423.961426 284.039886 427.575653 C 292.13385 431.189941 300.543518 434.804535 302.728058 435.608124 C 304.912598 436.411743 306.588593 437.40332 306.452484 437.811646 C 306.316376 438.21994 304.070557 439.51947 301.461823 440.699402 C 296.718628 442.844696 296.718628 442.844696 293.630524 441.027588 C 291.932068 440.028198 284.228119 436.090454 276.51062 432.277039 C 268.793152 428.463715 261.977722 425.163147 261.365234 424.942505 C 260.421082 424.602448 260.178711 425.354614 259.772125 429.887024 C 259.508392 432.827087 258.822815 437.388733 258.248596 440.023987 C 257.674377 442.65921 256.639801 446.119263 255.949493 447.712952 C 255.259186 449.306641 253.879974 451.678345 252.884552 452.983429 C 251.889114 454.288483 250.909561 455.987671 250.707748 456.75946 C 250.471893 457.661316 249.777969 458.162659 248.765411 458.162659 C 247.898956 458.162659 246.625809 458.378357 245.936218 458.641998 Z M 313.417999 438.813171 C 312.594208 439.028595 312.038483 438.927124 312.182983 438.587708 C 312.327484 438.248291 314.203461 436.199402 316.351776 434.034607 C 319.718811 430.641815 320.510925 429.31958 322.092346 424.451935 C 323.514465 420.074677 324.00473 416.958527 324.27301 410.591431 C 324.485535 405.547363 324.289581 400.396606 323.765198 397.24408 C 323.295563 394.420624 322.165314 390.108398 321.253571 387.661407 C 320.341797 385.214386 318.978882 382.365234 318.224854 381.329956 C 317.172516 379.885193 317.080688 379.447662 317.829712 379.447662 C 318.366425 379.447662 319.795044 380.989624 321.004364 382.874207 C 322.213715 384.758789 323.909363 388.531982 324.772461 391.259033 C 325.63559 393.986145 326.714447 398.681488 327.169983 401.693207 C 327.657776 404.91803 327.81192 409.279327 327.545044 412.302612 C 327.295776 415.126099 326.623627 419.284302 326.051361 421.54306 C 325.479126 423.801819 324.074066 427.343994 322.929016 429.414551 C 321.783936 431.485138 320.188843 433.908112 319.384338 434.799072 C 318.579803 435.690002 317.24527 436.869537 316.418671 437.420258 C 315.592072 437.970917 314.241791 438.597748 313.417999 438.813171 Z M 193.693771 390.668091 C 193.298615 391.063232 192.822754 390.677094 192.445511 389.655182 C 192.110199 388.746826 191.633774 386.476013 191.38678 384.608887 C 191.070236 382.215881 191.151993 381.428436 191.663879 381.940308 C 192.063263 382.339691 192.827057 384.323151 193.361191 386.348022 C 193.962112 388.625977 194.088913 390.27298 193.693771 390.668091 Z M 365.563324 377.394226 C 364.771606 377.394226 364.12384 376.960876 364.12384 376.431274 C 364.12384 375.901611 365.586914 374.25415 367.375122 372.770264 C 369.1633 371.286346 372.073822 368.977539 373.842896 367.639496 C 375.611969 366.301514 378.629913 364.685089 380.549438 364.047546 C 382.468994 363.409973 384.794739 363.07782 385.717804 363.30954 C 386.640869 363.541199 387.396088 364.146851 387.396088 364.655396 C 387.396088 365.244568 386.270081 365.70697 384.292664 365.92984 C 382.325378 366.151611 379.882202 367.150635 377.619019 368.658752 C 375.655365 369.967224 372.46344 372.468018 370.525787 374.216003 C 368.588165 375.96402 366.355072 377.394226 365.563324 377.394226 Z M 349.615875 375.34079 C 347.875397 375.34079 347.730896 375.186249 348.364349 374.002686 C 348.75824 373.266663 350.733185 370.879395 352.753174 368.697571 C 354.773102 366.515808 358.850891 362.990906 361.814911 360.864441 C 364.7789 358.738037 369.360077 355.818298 371.995331 354.37616 C 374.630585 352.934082 377.786255 351.637329 379.007935 351.494598 C 380.229614 351.351837 381.769684 351.446655 382.430328 351.705261 C 383.312195 352.050476 381.812134 353.045166 376.786682 355.447449 C 373.022064 357.247009 367.190613 360.688141 363.827881 363.09436 C 360.256165 365.650146 356.439331 369.105835 354.648712 371.405029 C 352.181641 374.572845 351.199615 375.34079 349.615875 375.34079 Z M 338.693024 369.066406 C 338.37439 369.191895 338.113678 368.758331 338.113678 368.102905 C 338.113678 367.44751 339.382416 365.266724 340.933105 363.256714 C 342.483826 361.246735 345.7211 357.760742 348.127075 355.510071 C 350.533051 353.259399 354.195679 350.138885 356.266205 348.575623 C 358.336761 347.012329 362.071198 344.992676 364.565002 344.087494 C 367.058777 343.182251 369.255676 342.598175 369.44696 342.789429 C 369.638245 342.980713 369.389832 343.625122 368.894928 344.221436 C 368.400055 344.817719 366.781342 345.892059 365.297791 346.608826 C 363.81424 347.325623 360.402039 349.570496 357.715179 351.597473 C 355.02832 353.624481 349.77948 358.332855 346.051147 362.060608 C 342.322815 365.7883 339.011658 368.940918 338.693024 369.066406 Z"/>
    </g>
</svg>
